<?xml version="1.0" encoding="utf-8" standalone="no"?>
<!DOCTYPE svg PUBLIC "-//W3C//DTD SVG 1.1//EN"
  "http://www.w3.org/Graphics/SVG/1.1/DTD/svg11.dtd">
<svg height="848.25375pt" version="1.1" viewBox="0 0 1140.718319 848.25375" width="1140.718319pt" xmlns="http://www.w3.org/2000/svg" xmlns:xlink="http://www.w3.org/1999/xlink">
 <metadata>
  <rdf:RDF xmlns:cc="http://creativecommons.org/ns#" xmlns:dc="http://purl.org/dc/elements/1.1/" xmlns:rdf="http://www.w3.org/1999/02/22-rdf-syntax-ns#">
   <cc:Work>
    <dc:type rdf:resource="http://purl.org/dc/dcmitype/StillImage"/>
    <dc:date>2025-10-09T17:44:36.879503</dc:date>
    <dc:format>image/svg+xml</dc:format>
    <dc:creator>
     <cc:Agent>
      <dc:title>Matplotlib v3.4.3, https://matplotlib.org/</dc:title>
     </cc:Agent>
    </dc:creator>
   </cc:Work>
  </rdf:RDF>
 </metadata>
 <defs>
  <style type="text/css">*{stroke-linecap:butt;stroke-linejoin:round;}</style>
 </defs>
 <g id="figure_1">
  <g id="patch_1">
   <path d="M 0 848.25375 
L 1140.718319 848.25375 
L 1140.718319 0 
L 0 0 
z
" style="fill:#ffffff;"/>
  </g>
  <g id="axes_1">
   <g id="patch_2">
    <path d="M 54.169375 402.98 
L 559.233944 402.98 
L 559.233944 53.28 
L 54.169375 53.28 
z
" style="fill:#ffffff;"/>
   </g>
   <g id="matplotlib.axis_1">
    <g id="xtick_1">
     <g id="text_1">
      <text style="fill:#262626;font-family:DejaVu Sans;font-size:12px;font-stretch:normal;font-style:normal;font-weight:normal;text-anchor:middle;" transform="rotate(-0, 179.160102, 420.398125)" x="179.160102" y="420.398125">10X Genomics</text>
     </g>
    </g>
    <g id="xtick_2">
     <g id="text_2">
      <text style="fill:#262626;font-family:DejaVu Sans;font-size:12px;font-stretch:normal;font-style:normal;font-weight:normal;text-anchor:middle;" transform="rotate(-0, 434.243217, 420.398125)" x="434.243217" y="420.398125">ChronoSeq</text>
     </g>
    </g>
    <g id="text_3">
     <text style="fill:#262626;font-family:DejaVu Sans;font-size:14px;font-stretch:normal;font-style:normal;font-weight:normal;text-anchor:middle;" transform="rotate(-0, 306.701659, 437.531563)" x="306.701659" y="437.531563">technology</text>
    </g>
   </g>
   <g id="matplotlib.axis_2">
    <g id="ytick_1">
     <g id="line2d_1">
      <path clip-path="url(#p0abc0e4716)" d="M 54.169375 340.423062 
L 559.233944 340.423062 
" style="fill:none;stroke:#cccccc;stroke-linecap:round;stroke-width:0.8;"/>
     </g>
     <g id="text_4">
      <!-- $\mathdefault{10^{1}}$ -->
      <g style="fill:#262626;" transform="translate(24.749375 344.982125)">
       <text>
        <tspan style="font-family:DejaVu Sans;font-size:12px;font-style:book;font-weight:book;" x="0 7.634766" y="-0.28125">10</tspan>
        <tspan style="font-family:DejaVu Sans;font-size:8.4px;font-style:book;font-weight:book;" x="15.384375" y="-4.875">1</tspan>
       </text>
      </g>
     </g>
    </g>
    <g id="ytick_2">
     <g id="line2d_2">
      <path clip-path="url(#p0abc0e4716)" d="M 54.169375 273.665572 
L 559.233944 273.665572 
" style="fill:none;stroke:#cccccc;stroke-linecap:round;stroke-width:0.8;"/>
     </g>
     <g id="text_5">
      <!-- $\mathdefault{10^{2}}$ -->
      <g style="fill:#262626;" transform="translate(24.749375 278.224635)">
       <text>
        <tspan style="font-family:DejaVu Sans;font-size:12px;font-style:book;font-weight:book;" x="0 7.634766" y="-0.171875">10</tspan>
        <tspan style="font-family:DejaVu Sans;font-size:8.4px;font-style:book;font-weight:book;" x="15.384375" y="-4.765625">2</tspan>
       </text>
      </g>
     </g>
    </g>
    <g id="ytick_3">
     <g id="line2d_3">
      <path clip-path="url(#p0abc0e4716)" d="M 54.169375 206.908082 
L 559.233944 206.908082 
" style="fill:none;stroke:#cccccc;stroke-linecap:round;stroke-width:0.8;"/>
     </g>
     <g id="text_6">
      <!-- $\mathdefault{10^{3}}$ -->
      <g style="fill:#262626;" transform="translate(24.749375 211.467145)">
       <text>
        <tspan style="font-family:DejaVu Sans;font-size:12px;font-style:book;font-weight:book;" x="0 7.634766" y="-0.171875">10</tspan>
        <tspan style="font-family:DejaVu Sans;font-size:8.4px;font-style:book;font-weight:book;" x="15.384375" y="-4.765625">3</tspan>
       </text>
      </g>
     </g>
    </g>
    <g id="ytick_4">
     <g id="line2d_4">
      <path clip-path="url(#p0abc0e4716)" d="M 54.169375 140.150592 
L 559.233944 140.150592 
" style="fill:none;stroke:#cccccc;stroke-linecap:round;stroke-width:0.8;"/>
     </g>
     <g id="text_7">
      <!-- $\mathdefault{10^{4}}$ -->
      <g style="fill:#262626;" transform="translate(24.749375 144.709655)">
       <text>
        <tspan style="font-family:DejaVu Sans;font-size:12px;font-style:book;font-weight:book;" x="0 7.634766" y="-0.28125">10</tspan>
        <tspan style="font-family:DejaVu Sans;font-size:8.4px;font-style:book;font-weight:book;" x="15.384375" y="-4.875">4</tspan>
       </text>
      </g>
     </g>
    </g>
    <g id="ytick_5">
     <g id="line2d_5">
      <path clip-path="url(#p0abc0e4716)" d="M 54.169375 73.393102 
L 559.233944 73.393102 
" style="fill:none;stroke:#cccccc;stroke-linecap:round;stroke-width:0.8;"/>
     </g>
     <g id="text_8">
      <!-- $\mathdefault{10^{5}}$ -->
      <g style="fill:#262626;" transform="translate(24.749375 77.952165)">
       <text>
        <tspan style="font-family:DejaVu Sans;font-size:12px;font-style:book;font-weight:book;" x="0 7.634766" y="-0.28125">10</tspan>
        <tspan style="font-family:DejaVu Sans;font-size:8.4px;font-style:book;font-weight:book;" x="15.384375" y="-4.875">5</tspan>
       </text>
      </g>
     </g>
    </g>
    <g id="ytick_6"/>
    <g id="ytick_7"/>
    <g id="ytick_8"/>
    <g id="ytick_9"/>
    <g id="ytick_10"/>
    <g id="ytick_11"/>
    <g id="ytick_12"/>
    <g id="ytick_13"/>
    <g id="ytick_14"/>
    <g id="ytick_15"/>
    <g id="ytick_16"/>
    <g id="ytick_17"/>
    <g id="ytick_18"/>
    <g id="ytick_19"/>
    <g id="ytick_20"/>
    <g id="ytick_21"/>
    <g id="ytick_22"/>
    <g id="ytick_23"/>
    <g id="ytick_24"/>
    <g id="ytick_25"/>
    <g id="ytick_26"/>
    <g id="ytick_27"/>
    <g id="ytick_28"/>
    <g id="ytick_29"/>
    <g id="ytick_30"/>
    <g id="ytick_31"/>
    <g id="ytick_32"/>
    <g id="ytick_33"/>
    <g id="ytick_34"/>
    <g id="ytick_35"/>
    <g id="ytick_36"/>
    <g id="ytick_37"/>
    <g id="ytick_38"/>
    <g id="ytick_39"/>
    <g id="ytick_40"/>
    <g id="ytick_41"/>
    <g id="ytick_42"/>
    <g id="ytick_43"/>
    <g id="ytick_44"/>
    <g id="ytick_45"/>
    <g id="ytick_46"/>
    <g id="text_9">
     <text style="fill:#262626;font-family:DejaVu Sans;font-size:14px;font-stretch:normal;font-style:normal;font-weight:normal;text-anchor:middle;" transform="rotate(-90, 17.837813, 228.13)" x="17.837813" y="228.13">UMI Counts</text>
    </g>
   </g>
   <g id="PolyCollection_1">
    <path clip-path="url(#p0abc0e4716)" d="M 187.717157 67164.670529 
L 170.603046 67164.670529 
L 161.853592 67164.670529 
L 148.194992 67164.670529 
L 130.040699 67164.670529 
L 109.863467 67164.670529 
L 91.812943 67164.670529 
L 80.119082 205.824194 
L 77.126855 183.133366 
L 82.283792 170.562178 
L 92.738396 161.822141 
L 104.972636 155.115623 
L 116.26054 149.67272 
L 125.187406 145.091922 
L 131.349444 141.137108 
L 134.821533 137.657579 
L 135.825188 134.551256 
L 134.647027 131.745778 
L 131.650566 129.187985 
L 127.255926 126.837666 
L 121.877538 124.663675 
L 115.872588 122.641391 
L 109.538662 120.751015 
L 103.152022 118.976387 
L 97.006681 117.304148 
L 91.419198 115.723123 
L 86.693592 114.223875 
L 83.067906 112.798359 
L 80.671997 111.439661 
L 79.518363 110.141796 
L 79.532957 108.899551 
L 80.613462 107.708352 
L 82.683288 106.564171 
L 85.705914 105.463435 
L 89.647432 104.402966 
L 94.411797 103.379921 
L 99.793277 102.391749 
L 105.479275 101.436151 
L 111.107722 100.511047 
L 116.356915 99.614551 
L 121.029586 98.744947 
L 125.091135 97.900668 
L 128.642469 97.080281 
L 131.845172 96.282471 
L 134.843039 95.506028 
L 137.71678 94.749838 
L 140.479636 94.012871 
L 143.100501 93.294173 
L 145.538937 92.592861 
L 147.780064 91.908114 
L 149.855747 91.239167 
L 151.838082 90.585307 
L 153.803666 89.945869 
L 155.790104 89.32023 
L 157.778932 88.707807 
L 159.721305 88.108054 
L 161.5837 87.520456 
L 163.369419 86.944532 
L 165.095101 86.379825 
L 166.747727 85.825908 
L 168.267105 85.282375 
L 169.57228 84.748846 
L 170.60913 84.224957 
L 171.381821 83.710367 
L 171.949833 83.204751 
L 172.399397 82.707803 
L 172.810066 82.219229 
L 173.232344 81.738752 
L 173.682241 81.266108 
L 174.150607 80.801046 
L 174.619811 80.343326 
L 175.078002 79.89272 
L 175.523535 79.449011 
L 175.959221 79.01199 
L 176.38335 78.581459 
L 176.785952 78.157228 
L 177.153083 77.739115 
L 177.474262 77.326946 
L 177.7462 76.920555 
L 177.971024 76.519781 
L 178.153039 76.124472 
L 178.298043 75.734481 
L 178.414409 75.349666 
L 178.512192 74.969892 
L 178.599256 74.595028 
L 178.677908 74.224949 
L 178.745761 73.859535 
L 178.799994 73.498669 
L 178.84057 73.14224 
L 178.869766 72.79014 
L 178.889958 72.442264 
L 178.903183 72.098513 
L 178.912897 71.75879 
L 178.924992 71.423001 
L 178.945731 71.091057 
L 178.977898 70.762871 
L 179.018668 70.438358 
L 179.061138 70.117438 
L 179.098169 69.800031 
L 179.125598 69.486061 
L 179.143038 69.175455 
L 179.177165 69.175455 
L 179.177165 69.175455 
L 179.194605 69.486061 
L 179.222035 69.800031 
L 179.259065 70.117438 
L 179.301536 70.438358 
L 179.342305 70.762871 
L 179.374472 71.091057 
L 179.395211 71.423001 
L 179.407307 71.75879 
L 179.41702 72.098513 
L 179.430245 72.442264 
L 179.450437 72.79014 
L 179.479634 73.14224 
L 179.52021 73.498669 
L 179.574442 73.859535 
L 179.642295 74.224949 
L 179.720947 74.595028 
L 179.808011 74.969892 
L 179.905794 75.349666 
L 180.02216 75.734481 
L 180.167164 76.124472 
L 180.349179 76.519781 
L 180.574003 76.920555 
L 180.845941 77.326946 
L 181.16712 77.739115 
L 181.534251 78.157228 
L 181.936854 78.581459 
L 182.360982 79.01199 
L 182.796668 79.449011 
L 183.242201 79.89272 
L 183.700393 80.343326 
L 184.169596 80.801046 
L 184.637962 81.266108 
L 185.08786 81.738752 
L 185.510137 82.219229 
L 185.920806 82.707803 
L 186.370371 83.204751 
L 186.938382 83.710367 
L 187.711074 84.224957 
L 188.747924 84.748846 
L 190.053098 85.282375 
L 191.572476 85.825908 
L 193.225103 86.379825 
L 194.950784 86.944532 
L 196.736503 87.520456 
L 198.598898 88.108054 
L 200.541271 88.707807 
L 202.5301 89.32023 
L 204.516538 89.945869 
L 206.482121 90.585307 
L 208.464456 91.239167 
L 210.540139 91.908114 
L 212.781266 92.592861 
L 215.219702 93.294173 
L 217.840567 94.012871 
L 220.603423 94.749838 
L 223.477165 95.506028 
L 226.475031 96.282471 
L 229.677734 97.080281 
L 233.229068 97.900668 
L 237.290617 98.744947 
L 241.963288 99.614551 
L 247.212481 100.511047 
L 252.840928 101.436151 
L 258.526926 102.391749 
L 263.908407 103.379921 
L 268.672771 104.402966 
L 272.614289 105.463435 
L 275.636915 106.564171 
L 277.706741 107.708352 
L 278.787246 108.899551 
L 278.80184 110.141796 
L 277.648206 111.439661 
L 275.252297 112.798359 
L 271.626611 114.223875 
L 266.901005 115.723123 
L 261.313522 117.304148 
L 255.168182 118.976387 
L 248.781541 120.751015 
L 242.447615 122.641391 
L 236.442666 124.663675 
L 231.064277 126.837666 
L 226.669637 129.187985 
L 223.673176 131.745778 
L 222.495015 134.551256 
L 223.498671 137.657579 
L 226.97076 141.137108 
L 233.132797 145.091922 
L 242.059663 149.67272 
L 253.347567 155.115623 
L 265.581807 161.822141 
L 276.036411 170.562178 
L 281.193348 183.133366 
L 278.201122 205.824194 
L 266.507261 67164.670529 
L 248.456737 67164.670529 
L 228.279504 67164.670529 
L 210.125211 67164.670529 
L 196.466612 67164.670529 
L 187.717157 67164.670529 
z
" style="fill:#3274a1;stroke:#3f3f3f;stroke-width:1.2;"/>
   </g>
   <g id="PolyCollection_2">
    <path clip-path="url(#p0abc0e4716)" d="M 434.289063 67164.670529 
L 434.197371 67164.670529 
L 433.967373 67164.670529 
L 432.978463 67164.670529 
L 429.815017 67164.670529 
L 422.22194 255.695871 
L 408.293933 231.338107 
L 388.360961 218.290803 
L 365.874073 209.325225 
L 346.285342 202.487133 
L 334.460381 196.958022 
L 332.209971 192.316369 
L 337.645976 188.316303 
L 346.724115 184.801806 
L 355.651338 181.66765 
L 362.643553 178.839494 
L 368.055403 176.262866 
L 372.887175 173.896655 
L 377.43813 171.709075 
L 381.442255 169.675038 
L 384.909738 167.774397 
L 388.4175 165.990726 
L 392.417939 164.310459 
L 396.629817 162.722261 
L 400.561359 161.216565 
L 404.110007 159.78522 
L 407.310121 158.421228 
L 410.05656 157.118534 
L 412.282537 155.871864 
L 414.095759 154.676599 
L 415.686448 153.528665 
L 417.252617 152.424457 
L 418.954508 151.360766 
L 420.771043 150.334723 
L 422.456208 149.343754 
L 423.754667 148.385541 
L 424.617012 147.457986 
L 425.236842 146.559188 
L 425.917855 145.687419 
L 426.818816 144.841099 
L 427.83443 144.018785 
L 428.760806 143.219153 
L 429.503412 142.440985 
L 430.095095 141.683158 
L 430.608949 140.944636 
L 431.089283 140.22446 
L 431.504238 139.521741 
L 431.77826 138.835652 
L 431.896583 138.165424 
L 431.93951 137.510341 
L 432.01012 136.869733 
L 432.137141 136.242974 
L 432.257356 135.629478 
L 432.322251 135.028695 
L 432.38146 134.44011 
L 432.517491 133.863237 
L 432.742154 133.297618 
L 432.994991 132.742823 
L 433.21703 132.198445 
L 433.38188 131.664101 
L 433.475556 131.139427 
L 433.505658 130.62408 
L 433.525531 130.117733 
L 433.597456 129.620078 
L 433.720382 129.130821 
L 433.833811 128.649684 
L 433.906282 128.176401 
L 433.965778 127.710721 
L 434.029657 127.252402 
L 434.070845 126.801216 
L 434.060487 126.356943 
L 433.999418 125.919376 
L 433.919961 125.488315 
L 433.869566 125.063569 
L 433.869748 124.644956 
L 433.899556 124.232302 
L 433.933674 123.825438 
L 433.969018 123.424205 
L 434.002486 123.02845 
L 434.021941 122.638023 
L 434.034907 122.252785 
L 434.067224 121.872599 
L 434.121021 121.497333 
L 434.167079 121.126863 
L 434.183898 120.761067 
L 434.177084 120.399829 
L 434.1609 120.043036 
L 434.146531 119.690581 
L 434.144605 119.342359 
L 434.157003 118.998271 
L 434.17536 118.658218 
L 434.194924 118.322107 
L 434.214387 117.989848 
L 434.228006 117.661354 
L 434.229753 117.33654 
L 434.21985 117.015325 
L 434.206888 116.69763 
L 434.203382 116.383378 
L 434.213232 116.072496 
L 434.227762 115.764912 
L 434.237764 115.460558 
L 434.24867 115.460558 
L 434.24867 115.460558 
L 434.258672 115.764912 
L 434.273202 116.072496 
L 434.283052 116.383378 
L 434.279546 116.69763 
L 434.266584 117.015325 
L 434.256681 117.33654 
L 434.258428 117.661354 
L 434.272047 117.989848 
L 434.29151 118.322107 
L 434.311075 118.658218 
L 434.329431 118.998271 
L 434.34183 119.342359 
L 434.339903 119.690581 
L 434.325534 120.043036 
L 434.30935 120.399829 
L 434.302536 120.761067 
L 434.319356 121.126863 
L 434.365413 121.497333 
L 434.41921 121.872599 
L 434.451527 122.252785 
L 434.464493 122.638023 
L 434.483949 123.02845 
L 434.517417 123.424205 
L 434.55276 123.825438 
L 434.586879 124.232302 
L 434.616687 124.644956 
L 434.616868 125.063569 
L 434.566473 125.488315 
L 434.487016 125.919376 
L 434.425947 126.356943 
L 434.415589 126.801216 
L 434.456777 127.252402 
L 434.520656 127.710721 
L 434.580152 128.176401 
L 434.652623 128.649684 
L 434.766053 129.130821 
L 434.888978 129.620078 
L 434.960904 130.117733 
L 434.980776 130.62408 
L 435.010878 131.139427 
L 435.104555 131.664101 
L 435.269405 132.198445 
L 435.491444 132.742823 
L 435.74428 133.297618 
L 435.968943 133.863237 
L 436.104975 134.44011 
L 436.164183 135.028695 
L 436.229078 135.629478 
L 436.349294 136.242974 
L 436.476314 136.869733 
L 436.546924 137.510341 
L 436.589851 138.165424 
L 436.708175 138.835652 
L 436.982197 139.521741 
L 437.397151 140.22446 
L 437.877485 140.944636 
L 438.391339 141.683158 
L 438.983022 142.440985 
L 439.725628 143.219153 
L 440.652005 144.018785 
L 441.667618 144.841099 
L 442.568579 145.687419 
L 443.249592 146.559188 
L 443.869422 147.457986 
L 444.731768 148.385541 
L 446.030226 149.343754 
L 447.715391 150.334723 
L 449.531926 151.360766 
L 451.233817 152.424457 
L 452.799986 153.528665 
L 454.390676 154.676599 
L 456.203898 155.871864 
L 458.429874 157.118534 
L 461.176313 158.421228 
L 464.376428 159.78522 
L 467.925075 161.216565 
L 471.856618 162.722261 
L 476.068495 164.310459 
L 480.068935 165.990726 
L 483.576696 167.774397 
L 487.04418 169.675038 
L 491.048304 171.709075 
L 495.59926 173.896655 
L 500.431031 176.262866 
L 505.842881 178.839494 
L 512.835096 181.66765 
L 521.762319 184.801806 
L 530.840459 188.316303 
L 536.276463 192.316369 
L 534.026053 196.958022 
L 522.201092 202.487133 
L 502.612362 209.325225 
L 480.125473 218.290803 
L 460.192502 231.338107 
L 446.264494 255.695871 
L 438.671417 67164.670529 
L 435.507972 67164.670529 
L 434.519061 67164.670529 
L 434.289063 67164.670529 
z
" style="fill:#e1812c;stroke:#3f3f3f;stroke-width:1.2;"/>
   </g>
   <g id="line2d_6">
    <path clip-path="url(#p0abc0e4716)" d="M 179.160102 227.004089 
L 179.160102 79.557945 
" style="fill:none;stroke:#3f3f3f;stroke-linecap:round;stroke-width:1.2;"/>
   </g>
   <g id="line2d_7">
    <path clip-path="url(#p0abc0e4716)" d="M 179.160102 141.640761 
L 179.160102 101.408334 
" style="fill:none;stroke:#3f3f3f;stroke-linecap:round;stroke-width:3.6;"/>
   </g>
   <g id="line2d_8">
    <path clip-path="url(#p0abc0e4716)" d="M 434.243217 387.084545 
L 434.243217 144.621242 
" style="fill:none;stroke:#3f3f3f;stroke-linecap:round;stroke-width:1.2;"/>
   </g>
   <g id="line2d_9">
    <path clip-path="url(#p0abc0e4716)" d="M 434.243217 193.227235 
L 434.243217 164.01216 
" style="fill:none;stroke:#3f3f3f;stroke-linecap:round;stroke-width:3.6;"/>
   </g>
   <g id="patch_3">
    <path d="M 54.169375 402.98 
L 54.169375 53.28 
" style="fill:none;stroke:#cccccc;stroke-linecap:square;stroke-linejoin:miter;"/>
   </g>
   <g id="patch_4">
    <path d="M 559.233944 402.98 
L 559.233944 53.28 
" style="fill:none;stroke:#cccccc;stroke-linecap:square;stroke-linejoin:miter;"/>
   </g>
   <g id="patch_5">
    <path d="M 54.169375 402.98 
L 559.233944 402.98 
" style="fill:none;stroke:#cccccc;stroke-linecap:square;stroke-linejoin:miter;"/>
   </g>
   <g id="patch_6">
    <path d="M 54.169375 53.28 
L 559.233944 53.28 
" style="fill:none;stroke:#cccccc;stroke-linecap:square;stroke-linejoin:miter;"/>
   </g>
   <g id="PathCollection_1">
    <defs>
     <path d="M 0 1.2 
C 0.318244 1.2 0.623496 1.07356 0.848528 0.848528 
C 1.07356 0.623496 1.2 0.318244 1.2 0 
C 1.2 -0.318244 1.07356 -0.623496 0.848528 -0.848528 
C 0.623496 -1.07356 0.318244 -1.2 0 -1.2 
C -0.318244 -1.2 -0.623496 -1.07356 -0.848528 -0.848528 
C -1.07356 -0.623496 -1.2 -0.318244 -1.2 0 
C -1.2 0.318244 -1.07356 0.623496 -0.848528 0.848528 
C -0.623496 1.07356 -0.318244 1.2 0 1.2 
z
" id="me8b3c88cf7" style="stroke:#3f3f3f;stroke-width:0.8;"/>
    </defs>
    <g clip-path="url(#p0abc0e4716)">
     <use style="fill:#ffffff;stroke:#3f3f3f;stroke-width:0.8;" x="179.160102" xlink:href="#me8b3c88cf7" y="111.660403"/>
    </g>
   </g>
   <g id="PathCollection_2">
    <g clip-path="url(#p0abc0e4716)">
     <use style="fill:#ffffff;stroke:#3f3f3f;stroke-width:0.8;" x="434.243217" xlink:href="#me8b3c88cf7" y="178.186583"/>
    </g>
   </g>
   <g id="patch_7">
    <path d="M 179.160102 99.163738 
Q 179.160102 103.091558 179.160102 106.124952 
" style="fill:none;stroke:#808080;stroke-linecap:round;stroke-width:0.8;"/>
    <path d="M 181.160102 102.124952 
L 179.160102 106.124952 
L 177.160102 102.124952 
" style="fill:none;stroke:#808080;stroke-linecap:round;stroke-width:0.8;"/>
   </g>
   <g id="text_10">
    <g id="patch_8">
     <path d="M 141.793695 96.762713 
L 216.526508 96.762713 
Q 219.526508 96.762713 219.526508 93.762713 
L 219.526508 72.886775 
Q 219.526508 69.886775 216.526508 69.886775 
L 141.793695 69.886775 
Q 138.793695 69.886775 138.793695 72.886775 
L 138.793695 93.762713 
Q 138.793695 96.762713 141.793695 96.762713 
z
" style="fill:#ffffff;opacity:0.8;stroke:#ffffff;stroke-linejoin:miter;stroke-width:0.8;"/>
    </g>
    <text style="fill:#262626;font-family:DejaVu Sans;font-size:10px;font-stretch:normal;font-style:normal;font-weight:normal;" transform="translate(146.356977 80.485213)">Mean: 26607</text>
    <text style="fill:#262626;font-family:DejaVu Sans;font-size:10px;font-stretch:normal;font-style:normal;font-weight:normal;" transform="translate(141.793695 91.683025)">Median: 26716</text>
   </g>
   <g id="patch_9">
    <path d="M 434.243217 159.016058 
Q 434.243217 162.943878 434.243217 165.977272 
" style="fill:none;stroke:#808080;stroke-linecap:round;stroke-width:0.8;"/>
    <path d="M 436.243217 161.977272 
L 434.243217 165.977272 
L 432.243217 161.977272 
" style="fill:none;stroke:#808080;stroke-linecap:round;stroke-width:0.8;"/>
   </g>
   <g id="text_11">
    <g id="patch_10">
     <path d="M 400.058061 156.615033 
L 468.428373 156.615033 
Q 471.428373 156.615033 471.428373 153.615033 
L 471.428373 132.739095 
Q 471.428373 129.739095 468.428373 129.739095 
L 400.058061 129.739095 
Q 397.058061 129.739095 397.058061 132.739095 
L 397.058061 153.615033 
Q 397.058061 156.615033 400.058061 156.615033 
z
" style="fill:#ffffff;opacity:0.8;stroke:#ffffff;stroke-linejoin:miter;stroke-width:0.8;"/>
    </g>
    <text style="fill:#262626;font-family:DejaVu Sans;font-size:10px;font-stretch:normal;font-style:normal;font-weight:normal;" transform="translate(404.621342 140.337533)">Mean: 3376</text>
    <text style="fill:#262626;font-family:DejaVu Sans;font-size:10px;font-stretch:normal;font-style:normal;font-weight:normal;" transform="translate(400.058061 151.535345)">Median: 2693</text>
   </g>
   <g id="text_12">
    <text style="fill:#262626;font-family:DejaVu Sans;font-size:16px;font-stretch:normal;font-style:normal;font-weight:normal;text-anchor:middle;" transform="rotate(-0, 306.701659, 47.28)" x="306.701659" y="47.28">Total UMIs per Cell</text>
   </g>
   <g id="PathCollection_3">
    <defs>
     <path d="M 0 5 
C 1.326016 5 2.597899 4.473168 3.535534 3.535534 
C 4.473168 2.597899 5 1.326016 5 0 
C 5 -1.326016 4.473168 -2.597899 3.535534 -3.535534 
C 2.597899 -4.473168 1.326016 -5 0 -5 
C -1.326016 -5 -2.597899 -4.473168 -3.535534 -3.535534 
C -4.473168 -2.597899 -5 -1.326016 -5 0 
C -5 1.326016 -4.473168 2.597899 -3.535534 3.535534 
C -2.597899 4.473168 -1.326016 5 0 5 
z
" id="md48f873606" style="stroke:#000000;stroke-width:0.8;"/>
    </defs>
    <g clip-path="url(#p0abc0e4716)">
     <use style="fill:#ff0000;stroke:#000000;stroke-width:0.8;" x="179.160102" xlink:href="#md48f873606" y="111.779032"/>
    </g>
   </g>
   <g id="PathCollection_4">
    <g clip-path="url(#p0abc0e4716)">
     <use style="fill:#ff0000;stroke:#000000;stroke-width:0.8;" x="434.243217" xlink:href="#md48f873606" y="171.631352"/>
    </g>
   </g>
  </g>
  <g id="axes_2">
   <g id="patch_11">
    <path d="M 618.911875 402.98 
L 1123.976444 402.98 
L 1123.976444 53.28 
L 618.911875 53.28 
z
" style="fill:#ffffff;"/>
   </g>
   <g id="matplotlib.axis_3">
    <g id="xtick_3">
     <g id="text_13">
      <text style="fill:#262626;font-family:DejaVu Sans;font-size:12px;font-stretch:normal;font-style:normal;font-weight:normal;text-anchor:middle;" transform="rotate(-0, 743.902602, 420.398125)" x="743.902602" y="420.398125">10X Genomics</text>
     </g>
    </g>
    <g id="xtick_4">
     <g id="text_14">
      <text style="fill:#262626;font-family:DejaVu Sans;font-size:12px;font-stretch:normal;font-style:normal;font-weight:normal;text-anchor:middle;" transform="rotate(-0, 998.985717, 420.398125)" x="998.985717" y="420.398125">ChronoSeq</text>
     </g>
    </g>
    <g id="text_15">
     <text style="fill:#262626;font-family:DejaVu Sans;font-size:14px;font-stretch:normal;font-style:normal;font-weight:normal;text-anchor:middle;" transform="rotate(-0, 871.444159, 437.531563)" x="871.444159" y="437.531563">technology</text>
    </g>
   </g>
   <g id="matplotlib.axis_4">
    <g id="ytick_47">
     <g id="line2d_10">
      <path clip-path="url(#p6634299a45)" d="M 618.911875 326.954918 
L 1123.976444 326.954918 
" style="fill:none;stroke:#cccccc;stroke-linecap:round;stroke-width:0.8;"/>
     </g>
     <g id="text_16">
      <!-- $\mathdefault{10^{1}}$ -->
      <g style="fill:#262626;" transform="translate(589.491875 331.513981)">
       <text>
        <tspan style="font-family:DejaVu Sans;font-size:12px;font-style:book;font-weight:book;" x="0 7.634766" y="-0.28125">10</tspan>
        <tspan style="font-family:DejaVu Sans;font-size:8.4px;font-style:book;font-weight:book;" x="15.384375" y="-4.875">1</tspan>
       </text>
      </g>
     </g>
    </g>
    <g id="ytick_48">
     <g id="line2d_11">
      <path clip-path="url(#p6634299a45)" d="M 618.911875 240.92887 
L 1123.976444 240.92887 
" style="fill:none;stroke:#cccccc;stroke-linecap:round;stroke-width:0.8;"/>
     </g>
     <g id="text_17">
      <!-- $\mathdefault{10^{2}}$ -->
      <g style="fill:#262626;" transform="translate(589.491875 245.487932)">
       <text>
        <tspan style="font-family:DejaVu Sans;font-size:12px;font-style:book;font-weight:book;" x="0 7.634766" y="-0.171875">10</tspan>
        <tspan style="font-family:DejaVu Sans;font-size:8.4px;font-style:book;font-weight:book;" x="15.384375" y="-4.765625">2</tspan>
       </text>
      </g>
     </g>
    </g>
    <g id="ytick_49">
     <g id="line2d_12">
      <path clip-path="url(#p6634299a45)" d="M 618.911875 154.902822 
L 1123.976444 154.902822 
" style="fill:none;stroke:#cccccc;stroke-linecap:round;stroke-width:0.8;"/>
     </g>
     <g id="text_18">
      <!-- $\mathdefault{10^{3}}$ -->
      <g style="fill:#262626;" transform="translate(589.491875 159.461884)">
       <text>
        <tspan style="font-family:DejaVu Sans;font-size:12px;font-style:book;font-weight:book;" x="0 7.634766" y="-0.171875">10</tspan>
        <tspan style="font-family:DejaVu Sans;font-size:8.4px;font-style:book;font-weight:book;" x="15.384375" y="-4.765625">3</tspan>
       </text>
      </g>
     </g>
    </g>
    <g id="ytick_50">
     <g id="line2d_13">
      <path clip-path="url(#p6634299a45)" d="M 618.911875 68.876773 
L 1123.976444 68.876773 
" style="fill:none;stroke:#cccccc;stroke-linecap:round;stroke-width:0.8;"/>
     </g>
     <g id="text_19">
      <!-- $\mathdefault{10^{4}}$ -->
      <g style="fill:#262626;" transform="translate(589.491875 73.435836)">
       <text>
        <tspan style="font-family:DejaVu Sans;font-size:12px;font-style:book;font-weight:book;" x="0 7.634766" y="-0.28125">10</tspan>
        <tspan style="font-family:DejaVu Sans;font-size:8.4px;font-style:book;font-weight:book;" x="15.384375" y="-4.875">4</tspan>
       </text>
      </g>
     </g>
    </g>
    <g id="ytick_51"/>
    <g id="ytick_52"/>
    <g id="ytick_53"/>
    <g id="ytick_54"/>
    <g id="ytick_55"/>
    <g id="ytick_56"/>
    <g id="ytick_57"/>
    <g id="ytick_58"/>
    <g id="ytick_59"/>
    <g id="ytick_60"/>
    <g id="ytick_61"/>
    <g id="ytick_62"/>
    <g id="ytick_63"/>
    <g id="ytick_64"/>
    <g id="ytick_65"/>
    <g id="ytick_66"/>
    <g id="ytick_67"/>
    <g id="ytick_68"/>
    <g id="ytick_69"/>
    <g id="ytick_70"/>
    <g id="ytick_71"/>
    <g id="ytick_72"/>
    <g id="ytick_73"/>
    <g id="ytick_74"/>
    <g id="ytick_75"/>
    <g id="ytick_76"/>
    <g id="ytick_77"/>
    <g id="ytick_78"/>
    <g id="ytick_79"/>
    <g id="ytick_80"/>
    <g id="ytick_81"/>
    <g id="ytick_82"/>
    <g id="text_20">
     <text style="fill:#262626;font-family:DejaVu Sans;font-size:14px;font-stretch:normal;font-style:normal;font-weight:normal;text-anchor:middle;" transform="rotate(-90, 582.580312, 228.13)" x="582.580312" y="228.13">Number of Genes</text>
    </g>
   </g>
   <g id="PolyCollection_3">
    <path clip-path="url(#p6634299a45)" d="M 746.288335 86439.029216 
L 741.516868 86439.029216 
L 739.758314 86439.029216 
L 737.107539 86439.029216 
L 733.381921 86439.029216 
L 728.512958 86439.029216 
L 722.620104 86439.029216 
L 716.056453 86439.029216 
L 709.39747 308.920239 
L 703.358404 232.934755 
L 698.652072 209.56593 
L 695.825732 195.299511 
L 695.12993 185.000467 
L 696.464503 176.935659 
L 699.419201 170.306434 
L 703.391335 164.678117 
L 707.736776 159.787739 
L 711.904659 155.464033 
L 715.520295 151.589206 
L 718.405634 148.078758 
L 720.549444 144.87001 
L 722.05139 141.915183 
L 723.063769 139.177021 
L 723.746143 136.625907 
L 724.237764 134.237914 
L 724.645343 131.993427 
L 725.040825 129.876174 
L 725.464473 127.872499 
L 725.93053 125.970835 
L 726.434318 124.161295 
L 726.96011 122.435366 
L 727.488719 120.78566 
L 728.00329 119.205729 
L 728.491901 117.689909 
L 728.946539 116.233199 
L 729.35932 114.831162 
L 729.71784 113.479842 
L 730.001619 112.175697 
L 730.180779 110.915545 
L 730.216823 109.696513 
L 730.064494 108.516004 
L 729.673691 107.371656 
L 728.991165 106.26132 
L 727.962619 105.183033 
L 726.536068 104.134995 
L 724.666655 103.115557 
L 722.32193 102.123198 
L 719.485822 101.156517 
L 716.159853 100.214219 
L 712.361393 99.295103 
L 708.120293 98.398057 
L 703.475877 97.522046 
L 698.475636 96.666105 
L 693.175538 95.829336 
L 687.640797 95.010897 
L 681.946047 94.210005 
L 676.175189 93.425921 
L 670.42246 92.657955 
L 664.796179 91.905457 
L 659.424668 91.167817 
L 654.461024 90.444459 
L 650.081689 89.734841 
L 646.474945 89.038451 
L 643.81933 88.354804 
L 642.256895 87.683442 
L 641.869355 87.023931 
L 642.664894 86.375861 
L 644.579743 85.738842 
L 647.493459 85.112502 
L 651.252414 84.496489 
L 655.694057 83.890469 
L 660.665407 83.294122 
L 666.032339 82.707145 
L 671.680008 82.129248 
L 677.507811 81.560153 
L 683.423317 80.999597 
L 689.338556 80.447328 
L 695.16969 79.903103 
L 700.838892 79.366693 
L 706.276412 78.837875 
L 711.421459 78.316438 
L 716.221991 77.802178 
L 720.634532 77.294901 
L 724.6251 76.79442 
L 728.171359 76.300554 
L 731.265034 75.813132 
L 733.913196 75.331987 
L 736.137463 74.85696 
L 737.971134 74.387897 
L 739.455117 73.92465 
L 740.633803 73.467076 
L 741.551771 73.015039 
L 742.25162 72.568406 
L 742.772776 72.12705 
L 743.150876 71.690846 
L 743.417408 71.259677 
L 743.599481 70.833427 
L 743.719705 70.411985 
L 743.79625 69.995244 
L 743.843131 69.583101 
L 743.87069 69.175455 
L 743.934513 69.175455 
L 743.934513 69.175455 
L 743.962072 69.583101 
L 744.008954 69.995244 
L 744.085498 70.411985 
L 744.205722 70.833427 
L 744.387795 71.259677 
L 744.654328 71.690846 
L 745.032427 72.12705 
L 745.553584 72.568406 
L 746.253433 73.015039 
L 747.1714 73.467076 
L 748.350086 73.92465 
L 749.834069 74.387897 
L 751.66774 74.85696 
L 753.892007 75.331987 
L 756.540169 75.813132 
L 759.633844 76.300554 
L 763.180103 76.79442 
L 767.170671 77.294901 
L 771.583212 77.802178 
L 776.383744 78.316438 
L 781.528791 78.837875 
L 786.966311 79.366693 
L 792.635513 79.903103 
L 798.466647 80.447328 
L 804.381887 80.999597 
L 810.297392 81.560153 
L 816.125195 82.129248 
L 821.772864 82.707145 
L 827.139796 83.294122 
L 832.111147 83.890469 
L 836.552789 84.496489 
L 840.311744 85.112502 
L 843.22546 85.738842 
L 845.140309 86.375861 
L 845.935848 87.023931 
L 845.548308 87.683442 
L 843.985873 88.354804 
L 841.330258 89.038451 
L 837.723514 89.734841 
L 833.34418 90.444459 
L 828.380535 91.167817 
L 823.009024 91.905457 
L 817.382743 92.657955 
L 811.630014 93.425921 
L 805.859157 94.210005 
L 800.164406 95.010897 
L 794.629665 95.829336 
L 789.329567 96.666105 
L 784.329326 97.522046 
L 779.68491 98.398057 
L 775.44381 99.295103 
L 771.64535 100.214219 
L 768.319381 101.156517 
L 765.483274 102.123198 
L 763.138548 103.115557 
L 761.269136 104.134995 
L 759.842585 105.183033 
L 758.814038 106.26132 
L 758.131512 107.371656 
L 757.740709 108.516004 
L 757.58838 109.696513 
L 757.624424 110.915545 
L 757.803584 112.175697 
L 758.087363 113.479842 
L 758.445883 114.831162 
L 758.858665 116.233199 
L 759.313302 117.689909 
L 759.801913 119.205729 
L 760.316484 120.78566 
L 760.845093 122.435366 
L 761.370885 124.161295 
L 761.874673 125.970835 
L 762.340731 127.872499 
L 762.764379 129.876174 
L 763.15986 131.993427 
L 763.567439 134.237914 
L 764.05906 136.625907 
L 764.741434 139.177021 
L 765.753814 141.915183 
L 767.255759 144.87001 
L 769.399569 148.078758 
L 772.284908 151.589206 
L 775.900544 155.464033 
L 780.068427 159.787739 
L 784.413868 164.678117 
L 788.386002 170.306434 
L 791.340701 176.935659 
L 792.675273 185.000467 
L 791.979471 195.299511 
L 789.153131 209.56593 
L 784.446799 232.934755 
L 778.407734 308.920239 
L 771.74875 86439.029216 
L 765.185099 86439.029216 
L 759.292245 86439.029216 
L 754.423282 86439.029216 
L 750.697664 86439.029216 
L 748.04689 86439.029216 
L 746.288335 86439.029216 
z
" style="fill:#3274a1;stroke:#3f3f3f;stroke-width:1.2;"/>
   </g>
   <g id="PolyCollection_4">
    <path clip-path="url(#p6634299a45)" d="M 998.993645 86439.029216 
L 998.977789 86439.029216 
L 998.966868 86439.029216 
L 998.947369 86439.029216 
L 998.913373 86439.029216 
L 998.842821 86439.029216 
L 998.668569 271.279673 
L 998.238034 239.499545 
L 997.283662 222.579199 
L 995.443751 210.975807 
L 992.359177 202.135023 
L 987.798828 194.991113 
L 981.702295 188.996412 
L 974.102204 183.831914 
L 965.056605 179.295393 
L 954.732964 175.250555 
L 943.564793 171.601166 
L 932.254112 168.276742 
L 921.571125 165.224112 
L 912.172322 162.402173 
L 904.611941 159.778494 
L 899.412137 157.327037 
L 896.952471 155.026577 
L 897.219201 152.859589 
L 899.707718 150.811429 
L 903.614775 148.86974 
L 908.128494 147.023998 
L 912.578616 145.265165 
L 916.448625 143.585423 
L 919.419268 141.977965 
L 921.498702 140.436825 
L 923.064444 138.956747 
L 924.644503 137.533076 
L 926.550609 136.16167 
L 928.681767 134.838827 
L 930.678347 133.561226 
L 932.28813 132.325873 
L 933.623954 131.130064 
L 935.103132 129.971345 
L 937.151956 128.847485 
L 939.940338 127.756447 
L 943.317782 126.696368 
L 946.922699 125.665541 
L 950.365211 124.662393 
L 953.411832 123.685477 
L 956.086546 122.733457 
L 958.593731 121.805094 
L 961.100591 120.899242 
L 963.588302 120.014834 
L 965.927219 119.150878 
L 968.063996 118.306451 
L 970.080179 117.480688 
L 972.074771 116.672783 
L 974.047832 115.881979 
L 975.916646 115.107568 
L 977.616152 114.348883 
L 979.172749 113.605299 
L 980.687968 112.876226 
L 982.245906 112.161108 
L 983.838798 111.459422 
L 985.394628 110.770672 
L 986.862831 110.094389 
L 988.242768 109.430131 
L 989.53221 108.777477 
L 990.682899 108.136029 
L 991.626218 107.505409 
L 992.33744 106.885256 
L 992.86925 106.275229 
L 993.319776 105.675004 
L 993.761776 105.084269 
L 994.201288 104.502729 
L 994.607024 103.930103 
L 994.973015 103.366121 
L 995.341173 102.810526 
L 995.760416 102.263073 
L 996.231714 101.723525 
L 996.70214 101.191659 
L 997.111147 100.667259 
L 997.431641 100.150117 
L 997.665835 99.640036 
L 997.821372 99.136825 
L 997.909772 98.640303 
L 997.961475 98.150292 
L 998.020231 97.666625 
L 998.112584 97.18914 
L 998.231089 96.71768 
L 998.352491 96.252095 
L 998.462767 95.792242 
L 998.5589 95.337979 
L 998.637775 94.889174 
L 998.6954 94.445696 
L 998.734028 94.007421 
L 998.76166 93.574227 
L 998.784294 93.145999 
L 998.803765 92.722624 
L 998.82327 92.303992 
L 998.849035 91.89 
L 998.883557 91.480544 
L 998.920908 91.075528 
L 998.951746 90.674855 
L 998.971206 90.278434 
L 999.000228 90.278434 
L 999.000228 90.278434 
L 999.019688 90.674855 
L 999.050526 91.075528 
L 999.087877 91.480544 
L 999.122399 91.89 
L 999.148165 92.303992 
L 999.167669 92.722624 
L 999.187141 93.145999 
L 999.209775 93.574227 
L 999.237406 94.007421 
L 999.276034 94.445696 
L 999.333659 94.889174 
L 999.412534 95.337979 
L 999.508667 95.792242 
L 999.618944 96.252095 
L 999.740345 96.71768 
L 999.85885 97.18914 
L 999.951203 97.666625 
L 1000.009959 98.150292 
L 1000.061663 98.640303 
L 1000.150062 99.136825 
L 1000.305599 99.640036 
L 1000.539794 100.150117 
L 1000.860288 100.667259 
L 1001.269295 101.191659 
L 1001.739721 101.723525 
L 1002.211019 102.263073 
L 1002.630261 102.810526 
L 1002.998419 103.366121 
L 1003.36441 103.930103 
L 1003.770146 104.502729 
L 1004.209658 105.084269 
L 1004.651658 105.675004 
L 1005.102184 106.275229 
L 1005.633994 106.885256 
L 1006.345217 107.505409 
L 1007.288535 108.136029 
L 1008.439224 108.777477 
L 1009.728666 109.430131 
L 1011.108603 110.094389 
L 1012.576807 110.770672 
L 1014.132636 111.459422 
L 1015.725528 112.161108 
L 1017.283466 112.876226 
L 1018.798685 113.605299 
L 1020.355282 114.348883 
L 1022.054788 115.107568 
L 1023.923603 115.881979 
L 1025.896663 116.672783 
L 1027.891256 117.480688 
L 1029.907439 118.306451 
L 1032.044215 119.150878 
L 1034.383132 120.014834 
L 1036.870843 120.899242 
L 1039.377703 121.805094 
L 1041.884888 122.733457 
L 1044.559603 123.685477 
L 1047.606224 124.662393 
L 1051.048735 125.665541 
L 1054.653652 126.696368 
L 1058.031097 127.756447 
L 1060.819478 128.847485 
L 1062.868302 129.971345 
L 1064.34748 131.130064 
L 1065.683304 132.325873 
L 1067.293087 133.561226 
L 1069.289668 134.838827 
L 1071.420825 136.16167 
L 1073.326931 137.533076 
L 1074.90699 138.956747 
L 1076.472732 140.436825 
L 1078.552166 141.977965 
L 1081.522809 143.585423 
L 1085.392819 145.265165 
L 1089.84294 147.023998 
L 1094.35666 148.86974 
L 1098.263716 150.811429 
L 1100.752233 152.859589 
L 1101.018963 155.026577 
L 1098.559298 157.327037 
L 1093.359493 159.778494 
L 1085.799112 162.402173 
L 1076.400309 165.224112 
L 1065.717322 168.276742 
L 1054.406641 171.601166 
L 1043.23847 175.250555 
L 1032.91483 179.295393 
L 1023.86923 183.831914 
L 1016.269139 188.996412 
L 1010.172606 194.991113 
L 1005.612257 202.135023 
L 1002.527683 210.975807 
L 1000.687773 222.579199 
L 999.733401 239.499545 
L 999.302865 271.279673 
L 999.128613 86439.029216 
L 999.058061 86439.029216 
L 999.024066 86439.029216 
L 999.004566 86439.029216 
L 998.993645 86439.029216 
z
" style="fill:#e1812c;stroke:#3f3f3f;stroke-width:1.2;"/>
   </g>
   <g id="line2d_14">
    <path clip-path="url(#p6634299a45)" d="M 743.902602 231.415274 
L 743.902602 72.589615 
" style="fill:none;stroke:#3f3f3f;stroke-linecap:round;stroke-width:1.2;"/>
   </g>
   <g id="line2d_15">
    <path clip-path="url(#p6634299a45)" d="M 743.902602 113.081517 
L 743.902602 84.930885 
" style="fill:none;stroke:#3f3f3f;stroke-linecap:round;stroke-width:3.6;"/>
   </g>
   <g id="line2d_16">
    <path clip-path="url(#p6634299a45)" d="M 998.985717 387.084545 
L 998.985717 105.421684 
" style="fill:none;stroke:#3f3f3f;stroke-linecap:round;stroke-width:1.2;"/>
   </g>
   <g id="line2d_17">
    <path clip-path="url(#p6634299a45)" d="M 998.985717 154.199629 
L 998.985717 126.899995 
" style="fill:none;stroke:#3f3f3f;stroke-linecap:round;stroke-width:3.6;"/>
   </g>
   <g id="patch_12">
    <path d="M 618.911875 402.98 
L 618.911875 53.28 
" style="fill:none;stroke:#cccccc;stroke-linecap:square;stroke-linejoin:miter;"/>
   </g>
   <g id="patch_13">
    <path d="M 1123.976444 402.98 
L 1123.976444 53.28 
" style="fill:none;stroke:#cccccc;stroke-linecap:square;stroke-linejoin:miter;"/>
   </g>
   <g id="patch_14">
    <path d="M 618.911875 402.98 
L 1123.976444 402.98 
" style="fill:none;stroke:#cccccc;stroke-linecap:square;stroke-linejoin:miter;"/>
   </g>
   <g id="patch_15">
    <path d="M 618.911875 53.28 
L 1123.976444 53.28 
" style="fill:none;stroke:#cccccc;stroke-linecap:square;stroke-linejoin:miter;"/>
   </g>
   <g id="PathCollection_5">
    <g clip-path="url(#p6634299a45)">
     <use style="fill:#ffffff;stroke:#3f3f3f;stroke-width:0.8;" x="743.902602" xlink:href="#me8b3c88cf7" y="90.200454"/>
    </g>
   </g>
   <g id="PathCollection_6">
    <g clip-path="url(#p6634299a45)">
     <use style="fill:#ffffff;stroke:#3f3f3f;stroke-width:0.8;" x="998.985717" xlink:href="#me8b3c88cf7" y="139.87913"/>
    </g>
   </g>
   <g id="patch_16">
    <path d="M 743.902602 77.967511 
Q 743.902602 84.398404 743.902602 89.93487 
" style="fill:none;stroke:#808080;stroke-linecap:round;stroke-width:0.8;"/>
    <path d="M 745.902602 85.93487 
L 743.902602 89.93487 
L 741.902602 85.93487 
" style="fill:none;stroke:#808080;stroke-linecap:round;stroke-width:0.8;"/>
   </g>
   <g id="text_21">
    <g id="patch_17">
     <path d="M 709.717445 75.572523 
L 778.087758 75.572523 
Q 781.087758 75.572523 781.087758 72.572523 
L 781.087758 51.696585 
Q 781.087758 48.696585 778.087758 48.696585 
L 709.717445 48.696585 
Q 706.717445 48.696585 706.717445 51.696585 
L 706.717445 72.572523 
Q 706.717445 75.572523 709.717445 75.572523 
z
" style="fill:#ffffff;opacity:0.8;stroke:#ffffff;stroke-linejoin:miter;stroke-width:0.8;"/>
    </g>
    <text style="fill:#262626;font-family:DejaVu Sans;font-size:10px;font-stretch:normal;font-style:normal;font-weight:normal;" transform="translate(714.280727 59.295023)">Mean: 4788</text>
    <text style="fill:#262626;font-family:DejaVu Sans;font-size:10px;font-stretch:normal;font-style:normal;font-weight:normal;" transform="translate(709.717445 70.492835)">Median: 5651</text>
   </g>
   <g id="patch_18">
    <path d="M 998.985717 117.968532 
Q 998.985717 124.399426 998.985717 129.935892 
" style="fill:none;stroke:#808080;stroke-linecap:round;stroke-width:0.8;"/>
    <path d="M 1000.985717 125.935892 
L 998.985717 129.935892 
L 996.985717 125.935892 
" style="fill:none;stroke:#808080;stroke-linecap:round;stroke-width:0.8;"/>
   </g>
   <g id="text_22">
    <g id="patch_19">
     <path d="M 964.800561 115.573544 
L 1033.170873 115.573544 
Q 1036.170873 115.573544 1036.170873 112.573544 
L 1036.170873 91.697607 
Q 1036.170873 88.697607 1033.170873 88.697607 
L 964.800561 88.697607 
Q 961.800561 88.697607 961.800561 91.697607 
L 961.800561 112.573544 
Q 961.800561 115.573544 964.800561 115.573544 
z
" style="fill:#ffffff;opacity:0.8;stroke:#ffffff;stroke-linejoin:miter;stroke-width:0.8;"/>
    </g>
    <text style="fill:#262626;font-family:DejaVu Sans;font-size:10px;font-stretch:normal;font-style:normal;font-weight:normal;" transform="translate(969.363842 99.296044)">Mean: 1641</text>
    <text style="fill:#262626;font-family:DejaVu Sans;font-size:10px;font-stretch:normal;font-style:normal;font-weight:normal;" transform="translate(964.800561 110.493857)">Median: 1495</text>
   </g>
   <g id="text_23">
    <text style="fill:#262626;font-family:DejaVu Sans;font-size:16px;font-stretch:normal;font-style:normal;font-weight:normal;text-anchor:middle;" transform="rotate(-0, 871.444159, 47.28)" x="871.444159" y="47.28">Genes Detected per Cell</text>
   </g>
   <g id="PathCollection_7">
    <g clip-path="url(#p6634299a45)">
     <use style="fill:#ff0000;stroke:#000000;stroke-width:0.8;" x="743.902602" xlink:href="#md48f873606" y="96.389256"/>
    </g>
   </g>
   <g id="PathCollection_8">
    <g clip-path="url(#p6634299a45)">
     <use style="fill:#ff0000;stroke:#000000;stroke-width:0.8;" x="998.985717" xlink:href="#md48f873606" y="136.390278"/>
    </g>
   </g>
  </g>
  <g id="axes_3">
   <g id="patch_20">
    <path d="M 54.169375 821.14 
L 559.233944 821.14 
L 559.233944 471.44 
L 54.169375 471.44 
z
" style="fill:#ffffff;"/>
   </g>
   <g id="matplotlib.axis_5">
    <g id="xtick_5">
     <g id="line2d_18">
      <path clip-path="url(#pec4b108602)" d="M 54.169375 821.14 
L 54.169375 471.44 
" style="fill:none;stroke:#cccccc;stroke-linecap:round;stroke-width:0.8;"/>
     </g>
     <g id="text_24">
      <text style="fill:#262626;font-family:DejaVu Sans;font-size:12px;font-stretch:normal;font-style:normal;font-weight:normal;text-anchor:middle;" transform="rotate(-0, 54.169375, 838.558125)" x="54.169375" y="838.558125">0.0</text>
     </g>
    </g>
    <g id="xtick_6">
     <g id="line2d_19">
      <path clip-path="url(#pec4b108602)" d="M 155.182289 821.14 
L 155.182289 471.44 
" style="fill:none;stroke:#cccccc;stroke-linecap:round;stroke-width:0.8;"/>
     </g>
     <g id="text_25">
      <text style="fill:#262626;font-family:DejaVu Sans;font-size:12px;font-stretch:normal;font-style:normal;font-weight:normal;text-anchor:middle;" transform="rotate(-0, 155.182289, 838.558125)" x="155.182289" y="838.558125">0.2</text>
     </g>
    </g>
    <g id="xtick_7">
     <g id="line2d_20">
      <path clip-path="url(#pec4b108602)" d="M 256.195202 821.14 
L 256.195202 471.44 
" style="fill:none;stroke:#cccccc;stroke-linecap:round;stroke-width:0.8;"/>
     </g>
     <g id="text_26">
      <text style="fill:#262626;font-family:DejaVu Sans;font-size:12px;font-stretch:normal;font-style:normal;font-weight:normal;text-anchor:middle;" transform="rotate(-0, 256.195202, 838.558125)" x="256.195202" y="838.558125">0.4</text>
     </g>
    </g>
    <g id="xtick_8">
     <g id="line2d_21">
      <path clip-path="url(#pec4b108602)" d="M 357.208116 821.14 
L 357.208116 471.44 
" style="fill:none;stroke:#cccccc;stroke-linecap:round;stroke-width:0.8;"/>
     </g>
     <g id="text_27">
      <text style="fill:#262626;font-family:DejaVu Sans;font-size:12px;font-stretch:normal;font-style:normal;font-weight:normal;text-anchor:middle;" transform="rotate(-0, 357.208116, 838.558125)" x="357.208116" y="838.558125">0.6</text>
     </g>
    </g>
    <g id="xtick_9">
     <g id="line2d_22">
      <path clip-path="url(#pec4b108602)" d="M 458.22103 821.14 
L 458.22103 471.44 
" style="fill:none;stroke:#cccccc;stroke-linecap:round;stroke-width:0.8;"/>
     </g>
     <g id="text_28">
      <text style="fill:#262626;font-family:DejaVu Sans;font-size:12px;font-stretch:normal;font-style:normal;font-weight:normal;text-anchor:middle;" transform="rotate(-0, 458.22103, 838.558125)" x="458.22103" y="838.558125">0.8</text>
     </g>
    </g>
    <g id="xtick_10">
     <g id="line2d_23">
      <path clip-path="url(#pec4b108602)" d="M 559.233944 821.14 
L 559.233944 471.44 
" style="fill:none;stroke:#cccccc;stroke-linecap:round;stroke-width:0.8;"/>
     </g>
     <g id="text_29">
      <text style="fill:#262626;font-family:DejaVu Sans;font-size:12px;font-stretch:normal;font-style:normal;font-weight:normal;text-anchor:middle;" transform="rotate(-0, 559.233944, 838.558125)" x="559.233944" y="838.558125">1.0</text>
     </g>
    </g>
   </g>
   <g id="matplotlib.axis_6">
    <g id="ytick_83">
     <g id="line2d_24">
      <path clip-path="url(#pec4b108602)" d="M 54.169375 821.14 
L 559.233944 821.14 
" style="fill:none;stroke:#cccccc;stroke-linecap:round;stroke-width:0.8;"/>
     </g>
     <g id="text_30">
      <text style="fill:#262626;font-family:DejaVu Sans;font-size:12px;font-stretch:normal;font-style:normal;font-weight:normal;text-anchor:end;" transform="rotate(-0, 45.869375, 825.699063)" x="45.869375" y="825.699063">0.0</text>
     </g>
    </g>
    <g id="ytick_84">
     <g id="line2d_25">
      <path clip-path="url(#pec4b108602)" d="M 54.169375 751.2 
L 559.233944 751.2 
" style="fill:none;stroke:#cccccc;stroke-linecap:round;stroke-width:0.8;"/>
     </g>
     <g id="text_31">
      <text style="fill:#262626;font-family:DejaVu Sans;font-size:12px;font-stretch:normal;font-style:normal;font-weight:normal;text-anchor:end;" transform="rotate(-0, 45.869375, 755.759063)" x="45.869375" y="755.759063">0.2</text>
     </g>
    </g>
    <g id="ytick_85">
     <g id="line2d_26">
      <path clip-path="url(#pec4b108602)" d="M 54.169375 681.26 
L 559.233944 681.26 
" style="fill:none;stroke:#cccccc;stroke-linecap:round;stroke-width:0.8;"/>
     </g>
     <g id="text_32">
      <text style="fill:#262626;font-family:DejaVu Sans;font-size:12px;font-stretch:normal;font-style:normal;font-weight:normal;text-anchor:end;" transform="rotate(-0, 45.869375, 685.819062)" x="45.869375" y="685.819062">0.4</text>
     </g>
    </g>
    <g id="ytick_86">
     <g id="line2d_27">
      <path clip-path="url(#pec4b108602)" d="M 54.169375 611.32 
L 559.233944 611.32 
" style="fill:none;stroke:#cccccc;stroke-linecap:round;stroke-width:0.8;"/>
     </g>
     <g id="text_33">
      <text style="fill:#262626;font-family:DejaVu Sans;font-size:12px;font-stretch:normal;font-style:normal;font-weight:normal;text-anchor:end;" transform="rotate(-0, 45.869375, 615.879062)" x="45.869375" y="615.879062">0.6</text>
     </g>
    </g>
    <g id="ytick_87">
     <g id="line2d_28">
      <path clip-path="url(#pec4b108602)" d="M 54.169375 541.38 
L 559.233944 541.38 
" style="fill:none;stroke:#cccccc;stroke-linecap:round;stroke-width:0.8;"/>
     </g>
     <g id="text_34">
      <text style="fill:#262626;font-family:DejaVu Sans;font-size:12px;font-stretch:normal;font-style:normal;font-weight:normal;text-anchor:end;" transform="rotate(-0, 45.869375, 545.939062)" x="45.869375" y="545.939062">0.8</text>
     </g>
    </g>
    <g id="ytick_88">
     <g id="line2d_29">
      <path clip-path="url(#pec4b108602)" d="M 54.169375 471.44 
L 559.233944 471.44 
" style="fill:none;stroke:#cccccc;stroke-linecap:round;stroke-width:0.8;"/>
     </g>
     <g id="text_35">
      <text style="fill:#262626;font-family:DejaVu Sans;font-size:12px;font-stretch:normal;font-style:normal;font-weight:normal;text-anchor:end;" transform="rotate(-0, 45.869375, 475.999062)" x="45.869375" y="475.999062">1.0</text>
     </g>
    </g>
   </g>
   <g id="patch_21">
    <path d="M 54.169375 821.14 
L 54.169375 471.44 
" style="fill:none;stroke:#cccccc;stroke-linecap:square;stroke-linejoin:miter;"/>
   </g>
   <g id="patch_22">
    <path d="M 559.233944 821.14 
L 559.233944 471.44 
" style="fill:none;stroke:#cccccc;stroke-linecap:square;stroke-linejoin:miter;"/>
   </g>
   <g id="patch_23">
    <path d="M 54.169375 821.14 
L 559.233944 821.14 
" style="fill:none;stroke:#cccccc;stroke-linecap:square;stroke-linejoin:miter;"/>
   </g>
   <g id="patch_24">
    <path d="M 54.169375 471.44 
L 559.233944 471.44 
" style="fill:none;stroke:#cccccc;stroke-linecap:square;stroke-linejoin:miter;"/>
   </g>
   <g id="text_36">
    <text style="fill:#262626;font-family:DejaVu Sans;font-size:16px;font-stretch:normal;font-style:normal;font-weight:normal;" transform="translate(238.974159 641.74675)">No Mitochondrial</text>
    <text style="fill:#262626;font-family:DejaVu Sans;font-size:16px;font-stretch:normal;font-style:normal;font-weight:normal;" transform="translate(242.200409 659.66325)">Genes Detected</text>
   </g>
   <g id="text_37">
    <text style="fill:#262626;font-family:DejaVu Sans;font-size:16px;font-stretch:normal;font-style:normal;font-weight:normal;text-anchor:middle;" transform="rotate(-0, 306.701659, 465.44)" x="306.701659" y="465.44">Mitochondrial Gene Percentage</text>
   </g>
  </g>
  <g id="axes_4">
   <g id="patch_25">
    <path d="M 618.911875 821.14 
L 1123.976444 821.14 
L 1123.976444 471.44 
L 618.911875 471.44 
z
" style="fill:#ffffff;"/>
   </g>
   <g id="matplotlib.axis_7">
    <g id="xtick_11">
     <g id="line2d_30">
      <path clip-path="url(#p93a245714b)" d="M 618.911875 821.14 
L 618.911875 471.44 
" style="fill:none;stroke:#cccccc;stroke-linecap:round;stroke-width:0.8;"/>
     </g>
     <g id="text_38">
      <text style="fill:#262626;font-family:DejaVu Sans;font-size:12px;font-stretch:normal;font-style:normal;font-weight:normal;text-anchor:middle;" transform="rotate(-0, 618.911875, 838.558125)" x="618.911875" y="838.558125">0.0</text>
     </g>
    </g>
    <g id="xtick_12">
     <g id="line2d_31">
      <path clip-path="url(#p93a245714b)" d="M 719.924789 821.14 
L 719.924789 471.44 
" style="fill:none;stroke:#cccccc;stroke-linecap:round;stroke-width:0.8;"/>
     </g>
     <g id="text_39">
      <text style="fill:#262626;font-family:DejaVu Sans;font-size:12px;font-stretch:normal;font-style:normal;font-weight:normal;text-anchor:middle;" transform="rotate(-0, 719.924789, 838.558125)" x="719.924789" y="838.558125">0.2</text>
     </g>
    </g>
    <g id="xtick_13">
     <g id="line2d_32">
      <path clip-path="url(#p93a245714b)" d="M 820.937703 821.14 
L 820.937703 471.44 
" style="fill:none;stroke:#cccccc;stroke-linecap:round;stroke-width:0.8;"/>
     </g>
     <g id="text_40">
      <text style="fill:#262626;font-family:DejaVu Sans;font-size:12px;font-stretch:normal;font-style:normal;font-weight:normal;text-anchor:middle;" transform="rotate(-0, 820.937703, 838.558125)" x="820.937703" y="838.558125">0.4</text>
     </g>
    </g>
    <g id="xtick_14">
     <g id="line2d_33">
      <path clip-path="url(#p93a245714b)" d="M 921.950616 821.14 
L 921.950616 471.44 
" style="fill:none;stroke:#cccccc;stroke-linecap:round;stroke-width:0.8;"/>
     </g>
     <g id="text_41">
      <text style="fill:#262626;font-family:DejaVu Sans;font-size:12px;font-stretch:normal;font-style:normal;font-weight:normal;text-anchor:middle;" transform="rotate(-0, 921.950616, 838.558125)" x="921.950616" y="838.558125">0.6</text>
     </g>
    </g>
    <g id="xtick_15">
     <g id="line2d_34">
      <path clip-path="url(#p93a245714b)" d="M 1022.96353 821.14 
L 1022.96353 471.44 
" style="fill:none;stroke:#cccccc;stroke-linecap:round;stroke-width:0.8;"/>
     </g>
     <g id="text_42">
      <text style="fill:#262626;font-family:DejaVu Sans;font-size:12px;font-stretch:normal;font-style:normal;font-weight:normal;text-anchor:middle;" transform="rotate(-0, 1022.96353, 838.558125)" x="1022.96353" y="838.558125">0.8</text>
     </g>
    </g>
    <g id="xtick_16">
     <g id="line2d_35">
      <path clip-path="url(#p93a245714b)" d="M 1123.976444 821.14 
L 1123.976444 471.44 
" style="fill:none;stroke:#cccccc;stroke-linecap:round;stroke-width:0.8;"/>
     </g>
     <g id="text_43">
      <text style="fill:#262626;font-family:DejaVu Sans;font-size:12px;font-stretch:normal;font-style:normal;font-weight:normal;text-anchor:middle;" transform="rotate(-0, 1123.976444, 838.558125)" x="1123.976444" y="838.558125">1.0</text>
     </g>
    </g>
   </g>
   <g id="matplotlib.axis_8">
    <g id="ytick_89">
     <g id="line2d_36">
      <path clip-path="url(#p93a245714b)" d="M 618.911875 821.14 
L 1123.976444 821.14 
" style="fill:none;stroke:#cccccc;stroke-linecap:round;stroke-width:0.8;"/>
     </g>
     <g id="text_44">
      <text style="fill:#262626;font-family:DejaVu Sans;font-size:12px;font-stretch:normal;font-style:normal;font-weight:normal;text-anchor:end;" transform="rotate(-0, 610.611875, 825.699063)" x="610.611875" y="825.699063">0.0</text>
     </g>
    </g>
    <g id="ytick_90">
     <g id="line2d_37">
      <path clip-path="url(#p93a245714b)" d="M 618.911875 751.2 
L 1123.976444 751.2 
" style="fill:none;stroke:#cccccc;stroke-linecap:round;stroke-width:0.8;"/>
     </g>
     <g id="text_45">
      <text style="fill:#262626;font-family:DejaVu Sans;font-size:12px;font-stretch:normal;font-style:normal;font-weight:normal;text-anchor:end;" transform="rotate(-0, 610.611875, 755.759063)" x="610.611875" y="755.759063">0.2</text>
     </g>
    </g>
    <g id="ytick_91">
     <g id="line2d_38">
      <path clip-path="url(#p93a245714b)" d="M 618.911875 681.26 
L 1123.976444 681.26 
" style="fill:none;stroke:#cccccc;stroke-linecap:round;stroke-width:0.8;"/>
     </g>
     <g id="text_46">
      <text style="fill:#262626;font-family:DejaVu Sans;font-size:12px;font-stretch:normal;font-style:normal;font-weight:normal;text-anchor:end;" transform="rotate(-0, 610.611875, 685.819062)" x="610.611875" y="685.819062">0.4</text>
     </g>
    </g>
    <g id="ytick_92">
     <g id="line2d_39">
      <path clip-path="url(#p93a245714b)" d="M 618.911875 611.32 
L 1123.976444 611.32 
" style="fill:none;stroke:#cccccc;stroke-linecap:round;stroke-width:0.8;"/>
     </g>
     <g id="text_47">
      <text style="fill:#262626;font-family:DejaVu Sans;font-size:12px;font-stretch:normal;font-style:normal;font-weight:normal;text-anchor:end;" transform="rotate(-0, 610.611875, 615.879062)" x="610.611875" y="615.879062">0.6</text>
     </g>
    </g>
    <g id="ytick_93">
     <g id="line2d_40">
      <path clip-path="url(#p93a245714b)" d="M 618.911875 541.38 
L 1123.976444 541.38 
" style="fill:none;stroke:#cccccc;stroke-linecap:round;stroke-width:0.8;"/>
     </g>
     <g id="text_48">
      <text style="fill:#262626;font-family:DejaVu Sans;font-size:12px;font-stretch:normal;font-style:normal;font-weight:normal;text-anchor:end;" transform="rotate(-0, 610.611875, 545.939062)" x="610.611875" y="545.939062">0.8</text>
     </g>
    </g>
    <g id="ytick_94">
     <g id="line2d_41">
      <path clip-path="url(#p93a245714b)" d="M 618.911875 471.44 
L 1123.976444 471.44 
" style="fill:none;stroke:#cccccc;stroke-linecap:round;stroke-width:0.8;"/>
     </g>
     <g id="text_49">
      <text style="fill:#262626;font-family:DejaVu Sans;font-size:12px;font-stretch:normal;font-style:normal;font-weight:normal;text-anchor:end;" transform="rotate(-0, 610.611875, 475.999062)" x="610.611875" y="475.999062">1.0</text>
     </g>
    </g>
   </g>
   <g id="patch_26">
    <path d="M 618.911875 821.14 
L 618.911875 471.44 
" style="fill:none;stroke:#cccccc;stroke-linecap:square;stroke-linejoin:miter;"/>
   </g>
   <g id="patch_27">
    <path d="M 1123.976444 821.14 
L 1123.976444 471.44 
" style="fill:none;stroke:#cccccc;stroke-linecap:square;stroke-linejoin:miter;"/>
   </g>
   <g id="patch_28">
    <path d="M 618.911875 821.14 
L 1123.976444 821.14 
" style="fill:none;stroke:#cccccc;stroke-linecap:square;stroke-linejoin:miter;"/>
   </g>
   <g id="patch_29">
    <path d="M 618.911875 471.44 
L 1123.976444 471.44 
" style="fill:none;stroke:#cccccc;stroke-linecap:square;stroke-linejoin:miter;"/>
   </g>
   <g id="text_50">
    <text style="fill:#262626;font-family:DejaVu Sans;font-size:16px;font-stretch:normal;font-style:normal;font-weight:normal;" transform="translate(816.286659 641.74675)">No Ribosomal</text>
    <text style="fill:#262626;font-family:DejaVu Sans;font-size:16px;font-stretch:normal;font-style:normal;font-weight:normal;" transform="translate(806.942909 659.66325)">Genes Detected</text>
   </g>
   <g id="text_51">
    <text style="fill:#262626;font-family:DejaVu Sans;font-size:16px;font-stretch:normal;font-style:normal;font-weight:normal;text-anchor:middle;" transform="rotate(-0, 871.444159, 465.44)" x="871.444159" y="465.44">Ribosomal Gene Percentage</text>
   </g>
  </g>
  <g id="text_52">
   <text style="fill:#262626;font-family:DejaVu Sans;font-size:20px;font-stretch:normal;font-style:normal;font-weight:normal;text-anchor:middle;" transform="rotate(-0, 570.491444, 22.396875)" x="570.491444" y="22.396875">Technology Comparison: Quality Control Metrics</text>
  </g>
 </g>
 <defs>
  <clipPath id="p0abc0e4716">
   <rect height="349.7" width="505.064569" x="54.169375" y="53.28"/>
  </clipPath>
  <clipPath id="p6634299a45">
   <rect height="349.7" width="505.064569" x="618.911875" y="53.28"/>
  </clipPath>
  <clipPath id="pec4b108602">
   <rect height="349.7" width="505.064569" x="54.169375" y="471.44"/>
  </clipPath>
  <clipPath id="p93a245714b">
   <rect height="349.7" width="505.064569" x="618.911875" y="471.44"/>
  </clipPath>
 </defs>
</svg>
