<?xml version="1.0" encoding="utf-8" standalone="no"?>
<!DOCTYPE svg PUBLIC "-//W3C//DTD SVG 1.1//EN"
  "http://www.w3.org/Graphics/SVG/1.1/DTD/svg11.dtd">
<svg height="848.25375pt" version="1.1" viewBox="0 0 1140.718319 848.25375" width="1140.718319pt" xmlns="http://www.w3.org/2000/svg" xmlns:xlink="http://www.w3.org/1999/xlink">
 <metadata>
  <rdf:RDF xmlns:cc="http://creativecommons.org/ns#" xmlns:dc="http://purl.org/dc/elements/1.1/" xmlns:rdf="http://www.w3.org/1999/02/22-rdf-syntax-ns#">
   <cc:Work>
    <dc:type rdf:resource="http://purl.org/dc/dcmitype/StillImage"/>
    <dc:date>2025-10-01T03:42:00.645920</dc:date>
    <dc:format>image/svg+xml</dc:format>
    <dc:creator>
     <cc:Agent>
      <dc:title>Matplotlib v3.4.3, https://matplotlib.org/</dc:title>
     </cc:Agent>
    </dc:creator>
   </cc:Work>
  </rdf:RDF>
 </metadata>
 <defs>
  <style type="text/css">*{stroke-linecap:butt;stroke-linejoin:round;}</style>
 </defs>
 <g id="figure_1">
  <g id="patch_1">
   <path d="M 0 848.25375 
L 1140.718319 848.25375 
L 1140.718319 0 
L 0 0 
z
" style="fill:#ffffff;"/>
  </g>
  <g id="axes_1">
   <g id="patch_2">
    <path d="M 54.169375 402.98 
L 559.233944 402.98 
L 559.233944 53.28 
L 54.169375 53.28 
z
" style="fill:#ffffff;"/>
   </g>
   <g id="matplotlib.axis_1">
    <g id="xtick_1">
     <g id="text_1">
      <text style="fill:#262626;font-family:DejaVu Sans;font-size:12px;font-stretch:normal;font-style:normal;font-weight:normal;text-anchor:middle;" transform="rotate(-0, 180.435517, 420.398125)" x="180.435517" y="420.398125">10X Genomics</text>
     </g>
    </g>
    <g id="xtick_2">
     <g id="text_2">
      <text style="fill:#262626;font-family:DejaVu Sans;font-size:12px;font-stretch:normal;font-style:normal;font-weight:normal;text-anchor:middle;" transform="rotate(-0, 432.967802, 420.398125)" x="432.967802" y="420.398125">ChronoSeq</text>
     </g>
    </g>
    <g id="text_3">
     <text style="fill:#262626;font-family:DejaVu Sans;font-size:14px;font-stretch:normal;font-style:normal;font-weight:normal;text-anchor:middle;" transform="rotate(-0, 306.701659, 437.531563)" x="306.701659" y="437.531563">technology</text>
    </g>
   </g>
   <g id="matplotlib.axis_2">
    <g id="ytick_1">
     <g id="line2d_1">
      <path clip-path="url(#pb2f5aa9317)" d="M 54.169375 340.161538 
L 559.233944 340.161538 
" style="fill:none;stroke:#cccccc;stroke-linecap:round;stroke-width:0.8;"/>
     </g>
     <g id="text_4">
      <!-- $\mathdefault{10^{1}}$ -->
      <g style="fill:#262626;" transform="translate(24.749375 344.7206)">
       <text>
        <tspan style="font-family:DejaVu Sans;font-size:12px;font-style:book;font-weight:book;" x="0 7.634766" y="-0.28125">10</tspan>
        <tspan style="font-family:DejaVu Sans;font-size:8.4px;font-style:book;font-weight:book;" x="15.384375" y="-4.875">1</tspan>
       </text>
      </g>
     </g>
    </g>
    <g id="ytick_2">
     <g id="line2d_2">
      <path clip-path="url(#pb2f5aa9317)" d="M 54.169375 273.02989 
L 559.233944 273.02989 
" style="fill:none;stroke:#cccccc;stroke-linecap:round;stroke-width:0.8;"/>
     </g>
     <g id="text_5">
      <!-- $\mathdefault{10^{2}}$ -->
      <g style="fill:#262626;" transform="translate(24.749375 277.588953)">
       <text>
        <tspan style="font-family:DejaVu Sans;font-size:12px;font-style:book;font-weight:book;" x="0 7.634766" y="-0.171875">10</tspan>
        <tspan style="font-family:DejaVu Sans;font-size:8.4px;font-style:book;font-weight:book;" x="15.384375" y="-4.765625">2</tspan>
       </text>
      </g>
     </g>
    </g>
    <g id="ytick_3">
     <g id="line2d_3">
      <path clip-path="url(#pb2f5aa9317)" d="M 54.169375 205.898243 
L 559.233944 205.898243 
" style="fill:none;stroke:#cccccc;stroke-linecap:round;stroke-width:0.8;"/>
     </g>
     <g id="text_6">
      <!-- $\mathdefault{10^{3}}$ -->
      <g style="fill:#262626;" transform="translate(24.749375 210.457306)">
       <text>
        <tspan style="font-family:DejaVu Sans;font-size:12px;font-style:book;font-weight:book;" x="0 7.634766" y="-0.171875">10</tspan>
        <tspan style="font-family:DejaVu Sans;font-size:8.4px;font-style:book;font-weight:book;" x="15.384375" y="-4.765625">3</tspan>
       </text>
      </g>
     </g>
    </g>
    <g id="ytick_4">
     <g id="line2d_4">
      <path clip-path="url(#pb2f5aa9317)" d="M 54.169375 138.766596 
L 559.233944 138.766596 
" style="fill:none;stroke:#cccccc;stroke-linecap:round;stroke-width:0.8;"/>
     </g>
     <g id="text_7">
      <!-- $\mathdefault{10^{4}}$ -->
      <g style="fill:#262626;" transform="translate(24.749375 143.325658)">
       <text>
        <tspan style="font-family:DejaVu Sans;font-size:12px;font-style:book;font-weight:book;" x="0 7.634766" y="-0.28125">10</tspan>
        <tspan style="font-family:DejaVu Sans;font-size:8.4px;font-style:book;font-weight:book;" x="15.384375" y="-4.875">4</tspan>
       </text>
      </g>
     </g>
    </g>
    <g id="ytick_5">
     <g id="line2d_5">
      <path clip-path="url(#pb2f5aa9317)" d="M 54.169375 71.634949 
L 559.233944 71.634949 
" style="fill:none;stroke:#cccccc;stroke-linecap:round;stroke-width:0.8;"/>
     </g>
     <g id="text_8">
      <!-- $\mathdefault{10^{5}}$ -->
      <g style="fill:#262626;" transform="translate(24.749375 76.194011)">
       <text>
        <tspan style="font-family:DejaVu Sans;font-size:12px;font-style:book;font-weight:book;" x="0 7.634766" y="-0.28125">10</tspan>
        <tspan style="font-family:DejaVu Sans;font-size:8.4px;font-style:book;font-weight:book;" x="15.384375" y="-4.875">5</tspan>
       </text>
      </g>
     </g>
    </g>
    <g id="ytick_6"/>
    <g id="ytick_7"/>
    <g id="ytick_8"/>
    <g id="ytick_9"/>
    <g id="ytick_10"/>
    <g id="ytick_11"/>
    <g id="ytick_12"/>
    <g id="ytick_13"/>
    <g id="ytick_14"/>
    <g id="ytick_15"/>
    <g id="ytick_16"/>
    <g id="ytick_17"/>
    <g id="ytick_18"/>
    <g id="ytick_19"/>
    <g id="ytick_20"/>
    <g id="ytick_21"/>
    <g id="ytick_22"/>
    <g id="ytick_23"/>
    <g id="ytick_24"/>
    <g id="ytick_25"/>
    <g id="ytick_26"/>
    <g id="ytick_27"/>
    <g id="ytick_28"/>
    <g id="ytick_29"/>
    <g id="ytick_30"/>
    <g id="ytick_31"/>
    <g id="ytick_32"/>
    <g id="ytick_33"/>
    <g id="ytick_34"/>
    <g id="ytick_35"/>
    <g id="ytick_36"/>
    <g id="ytick_37"/>
    <g id="ytick_38"/>
    <g id="ytick_39"/>
    <g id="ytick_40"/>
    <g id="ytick_41"/>
    <g id="ytick_42"/>
    <g id="ytick_43"/>
    <g id="ytick_44"/>
    <g id="ytick_45"/>
    <g id="text_9">
     <text style="fill:#262626;font-family:DejaVu Sans;font-size:14px;font-stretch:normal;font-style:normal;font-weight:normal;text-anchor:middle;" transform="rotate(-90, 17.837813, 228.13)" x="17.837813" y="228.13">UMI Counts</text>
    </g>
   </g>
   <g id="PolyCollection_1">
    <defs>
     <path d="M 274.907822 -622.146867 
L 85.963213 -622.146867 
L 79.422603 -655.948142 
L 79.832438 -671.182924 
L 86.046355 -681.13797 
L 95.789172 -688.54539 
L 106.623515 -694.446955 
L 116.69404 -699.352678 
L 124.974541 -703.550612 
L 131.103922 -707.219477 
L 135.080976 -710.47783 
L 137.037201 -713.40836 
L 137.149197 -716.071043 
L 135.635813 -718.510767 
L 132.764483 -720.762003 
L 128.831473 -722.851798 
L 124.124941 -724.801765 
L 118.896663 -726.629449 
L 113.358997 -728.349285 
L 107.704257 -729.973296 
L 102.129546 -731.511597 
L 96.848868 -732.972785 
L 92.08416 -734.364223 
L 88.039737 -735.692267 
L 84.872362 -736.962444 
L 82.669685 -738.179586 
L 81.445797 -739.347945 
L 81.156767 -740.471282 
L 81.731533 -741.552937 
L 83.105428 -742.595894 
L 85.239603 -743.602827 
L 88.114932 -744.576141 
L 91.70267 -745.518008 
L 95.927802 -746.430398 
L 100.64519 -747.315099 
L 105.641779 -748.173742 
L 110.666235 -749.00782 
L 115.477002 -749.818698 
L 119.892985 -750.607632 
L 123.828337 -751.375779 
L 127.297181 -752.124206 
L 130.386645 -752.8539 
L 133.211789 -753.565776 
L 135.873138 -754.260684 
L 138.431969 -754.939413 
L 140.906242 -755.602701 
L 143.281276 -756.251233 
L 145.5279 -756.885652 
L 147.622686 -757.50656 
L 149.565122 -758.11452 
L 151.385136 -758.710061 
L 153.135543 -759.29368 
L 154.870532 -759.865845 
L 156.62089 -760.426997 
L 158.381652 -760.977551 
L 160.121572 -761.517902 
L 161.808215 -762.04842 
L 163.429486 -762.569457 
L 164.994516 -763.081345 
L 166.513693 -763.584401 
L 167.974964 -764.078924 
L 169.336229 -764.565198 
L 170.540222 -765.043495 
L 171.541356 -765.514071 
L 172.3272 -765.977173 
L 172.923495 -766.433034 
L 173.383194 -766.881876 
L 173.767749 -767.323913 
L 174.129692 -767.759348 
L 174.502072 -768.188375 
L 174.896361 -768.611181 
L 175.307605 -769.027942 
L 175.723584 -769.43883 
L 176.133662 -769.844007 
L 176.5335 -770.243631 
L 176.924176 -770.637851 
L 177.307449 -771.026811 
L 177.6811 -771.410651 
L 178.037706 -771.789503 
L 178.367416 -772.163495 
L 178.662228 -772.53275 
L 178.918564 -772.897386 
L 179.136871 -773.257519 
L 179.319656 -773.613257 
L 179.470255 -773.964707 
L 179.593137 -774.311971 
L 179.69448 -774.655147 
L 179.781362 -774.994331 
L 179.859467 -775.329614 
L 179.931061 -775.661085 
L 179.995047 -775.98883 
L 180.049116 -776.312931 
L 180.092132 -776.633469 
L 180.124904 -776.950522 
L 180.149218 -777.264163 
L 180.166654 -777.574466 
L 180.178604 -777.881502 
L 180.187352 -778.185337 
L 180.19678 -778.486039 
L 180.211509 -778.783671 
L 180.234795 -779.078295 
L 180.636239 -779.078295 
L 180.636239 -779.078295 
L 180.659525 -778.783671 
L 180.674255 -778.486039 
L 180.683683 -778.185337 
L 180.692431 -777.881502 
L 180.70438 -777.574466 
L 180.721816 -777.264163 
L 180.74613 -776.950522 
L 180.778902 -776.633469 
L 180.821918 -776.312931 
L 180.875987 -775.98883 
L 180.939974 -775.661085 
L 181.011567 -775.329614 
L 181.089672 -774.994331 
L 181.176554 -774.655147 
L 181.277897 -774.311971 
L 181.400779 -773.964707 
L 181.551379 -773.613257 
L 181.734163 -773.257519 
L 181.95247 -772.897386 
L 182.208806 -772.53275 
L 182.503618 -772.163495 
L 182.833328 -771.789503 
L 183.189935 -771.410651 
L 183.563585 -771.026811 
L 183.946858 -770.637851 
L 184.337534 -770.243631 
L 184.737373 -769.844007 
L 185.14745 -769.43883 
L 185.563429 -769.027942 
L 185.974674 -768.611181 
L 186.368963 -768.188375 
L 186.741343 -767.759348 
L 187.103286 -767.323913 
L 187.48784 -766.881876 
L 187.947539 -766.433034 
L 188.543835 -765.977173 
L 189.329678 -765.514071 
L 190.330812 -765.043495 
L 191.534805 -764.565198 
L 192.896071 -764.078924 
L 194.357342 -763.584401 
L 195.876519 -763.081345 
L 197.441549 -762.569457 
L 199.062819 -762.04842 
L 200.749462 -761.517902 
L 202.489382 -760.977551 
L 204.250144 -760.426997 
L 206.000502 -759.865845 
L 207.735491 -759.29368 
L 209.485898 -758.710061 
L 211.305913 -758.11452 
L 213.248348 -757.50656 
L 215.343135 -756.885652 
L 217.589758 -756.251233 
L 219.964793 -755.602701 
L 222.439065 -754.939413 
L 224.997897 -754.260684 
L 227.659246 -753.565776 
L 230.48439 -752.8539 
L 233.573853 -752.124206 
L 237.042697 -751.375779 
L 240.97805 -750.607632 
L 245.394032 -749.818698 
L 250.2048 -749.00782 
L 255.229255 -748.173742 
L 260.225845 -747.315099 
L 264.943232 -746.430398 
L 269.168364 -745.518008 
L 272.756103 -744.576141 
L 275.631431 -743.602827 
L 277.765606 -742.595894 
L 279.139501 -741.552937 
L 279.714268 -740.471282 
L 279.425237 -739.347945 
L 278.201349 -738.179586 
L 275.998672 -736.962444 
L 272.831297 -735.692267 
L 268.786875 -734.364223 
L 264.022167 -732.972785 
L 258.741488 -731.511597 
L 253.166778 -729.973296 
L 247.512037 -728.349285 
L 241.974371 -726.629449 
L 236.746094 -724.801765 
L 232.039562 -722.851798 
L 228.106551 -720.762003 
L 225.235221 -718.510767 
L 223.721837 -716.071043 
L 223.833833 -713.40836 
L 225.790059 -710.47783 
L 229.767112 -707.219477 
L 235.896494 -703.550612 
L 244.176995 -699.352678 
L 254.24752 -694.446955 
L 265.081863 -688.54539 
L 274.824679 -681.13797 
L 281.038596 -671.182924 
L 281.448431 -655.948142 
L 274.907822 -622.146867 
z
" id="m9bc0f2bb10" style="stroke:#3f3f3f;stroke-width:1.2;"/>
    </defs>
    <g clip-path="url(#pb2f5aa9317)">
     <use style="fill:#3274a1;stroke:#3f3f3f;stroke-width:1.2;" x="0" xlink:href="#m9bc0f2bb10" y="848.25375"/>
    </g>
   </g>
   <g id="PolyCollection_2">
    <defs>
     <path d="M 438.702482 -461.169205 
L 427.233121 -461.169205 
L 419.079088 -599.590353 
L 405.305171 -619.672318 
L 386.537048 -631.451267 
L 365.765567 -639.817413 
L 347.429973 -646.310417 
L 335.556834 -651.617498 
L 331.954888 -656.105682 
L 335.567128 -659.994229 
L 343.350661 -663.424644 
L 351.965625 -666.493589 
L 359.26138 -669.270031 
L 364.866887 -671.804909 
L 369.536854 -674.136913 
L 373.911519 -676.296124 
L 377.990123 -678.306391 
L 381.54619 -680.186943 
L 384.702349 -681.953511 
L 387.972687 -683.619126 
L 391.679709 -685.194706 
L 395.570102 -686.689486 
L 399.232666 -688.111352 
L 402.558859 -689.467086 
L 405.589389 -690.76257 
L 408.259311 -692.002929 
L 410.481472 -693.192666 
L 412.295342 -694.33575 
L 413.839726 -695.435702 
L 415.273752 -696.49566 
L 416.753474 -697.51843 
L 418.370611 -698.506534 
L 420.043971 -699.462244 
L 421.548752 -700.387617 
L 422.697945 -701.28452 
L 423.475351 -702.154653 
L 424.046841 -702.999568 
L 424.660849 -703.820685 
L 425.463563 -704.619308 
L 426.395516 -705.396637 
L 427.288732 -706.153777 
L 428.033007 -706.891752 
L 428.627709 -707.611508 
L 429.127499 -708.313921 
L 429.585835 -708.99981 
L 430.01315 -709.669932 
L 430.36053 -710.324997 
L 430.572889 -710.965667 
L 430.659979 -711.59256 
L 430.697654 -712.206257 
L 430.766391 -712.807302 
L 430.883947 -713.396206 
L 430.997777 -713.97345 
L 431.063408 -714.539486 
L 431.111847 -715.094742 
L 431.213841 -715.63962 
L 431.398616 -716.174502 
L 431.630038 -716.699747 
L 431.852698 -717.215696 
L 432.034487 -717.722674 
L 432.16089 -718.220986 
L 432.224261 -718.710924 
L 432.242537 -719.192764 
L 432.267077 -719.666771 
L 432.342374 -720.133194 
L 432.457736 -720.592273 
L 432.562009 -721.044234 
L 432.630235 -721.489297 
L 432.684718 -721.927667 
L 432.744022 -722.359543 
L 432.790588 -722.785116 
L 432.79731 -723.204565 
L 432.756535 -723.618065 
L 432.685276 -724.025783 
L 432.619946 -724.427878 
L 432.593443 -724.824502 
L 432.607061 -725.215803 
L 432.637329 -725.601921 
L 432.668789 -725.982993 
L 432.701712 -726.359148 
L 432.731846 -726.730512 
L 432.749309 -727.097205 
L 432.76092 -727.459343 
L 432.788195 -727.817038 
L 432.836125 -728.170397 
L 432.883058 -728.519525 
L 432.907025 -728.864522 
L 432.906986 -729.205484 
L 432.894315 -729.542505 
L 432.878905 -729.875674 
L 432.86965 -730.205079 
L 432.873365 -730.530804 
L 432.887455 -730.852929 
L 432.904794 -731.171535 
L 432.922993 -731.486696 
L 432.940716 -731.798487 
L 432.952895 -732.106979 
L 432.954737 -732.412241 
L 432.946271 -732.71434 
L 432.933908 -733.01334 
L 432.927997 -733.309305 
L 433.007606 -733.309305 
L 433.007606 -733.309305 
L 433.001696 -733.01334 
L 432.989332 -732.71434 
L 432.980866 -732.412241 
L 432.982708 -732.106979 
L 432.994887 -731.798487 
L 433.01261 -731.486696 
L 433.030809 -731.171535 
L 433.048148 -730.852929 
L 433.062239 -730.530804 
L 433.065953 -730.205079 
L 433.056698 -729.875674 
L 433.041288 -729.542505 
L 433.028617 -729.205484 
L 433.028578 -728.864522 
L 433.052545 -728.519525 
L 433.099478 -728.170397 
L 433.147408 -727.817038 
L 433.174683 -727.459343 
L 433.186294 -727.097205 
L 433.203757 -726.730512 
L 433.233891 -726.359148 
L 433.266814 -725.982993 
L 433.298274 -725.601921 
L 433.328542 -725.215803 
L 433.34216 -724.824502 
L 433.315657 -724.427878 
L 433.250327 -724.025783 
L 433.179068 -723.618065 
L 433.138293 -723.204565 
L 433.145015 -722.785116 
L 433.191581 -722.359543 
L 433.250885 -721.927667 
L 433.305368 -721.489297 
L 433.373594 -721.044234 
L 433.477868 -720.592273 
L 433.59323 -720.133194 
L 433.668526 -719.666771 
L 433.693066 -719.192764 
L 433.711342 -718.710924 
L 433.774714 -718.220986 
L 433.901117 -717.722674 
L 434.082905 -717.215696 
L 434.305565 -716.699747 
L 434.536987 -716.174502 
L 434.721762 -715.63962 
L 434.823756 -715.094742 
L 434.872195 -714.539486 
L 434.937826 -713.97345 
L 435.051656 -713.396206 
L 435.169212 -712.807302 
L 435.23795 -712.206257 
L 435.275625 -711.59256 
L 435.362714 -710.965667 
L 435.575073 -710.324997 
L 435.922454 -709.669932 
L 436.349769 -708.99981 
L 436.808104 -708.313921 
L 437.307894 -707.611508 
L 437.902596 -706.891752 
L 438.646871 -706.153777 
L 439.540087 -705.396637 
L 440.47204 -704.619308 
L 441.274754 -703.820685 
L 441.888762 -702.999568 
L 442.460252 -702.154653 
L 443.237658 -701.28452 
L 444.386851 -700.387617 
L 445.891632 -699.462244 
L 447.564992 -698.506534 
L 449.182129 -697.51843 
L 450.661851 -696.49566 
L 452.095877 -695.435702 
L 453.640261 -694.33575 
L 455.454131 -693.192666 
L 457.676292 -692.002929 
L 460.346214 -690.76257 
L 463.376744 -689.467086 
L 466.702937 -688.111352 
L 470.365501 -686.689486 
L 474.255894 -685.194706 
L 477.962916 -683.619126 
L 481.233254 -681.953511 
L 484.389413 -680.186943 
L 487.94548 -678.306391 
L 492.024084 -676.296124 
L 496.398749 -674.136913 
L 501.068716 -671.804909 
L 506.674224 -669.270031 
L 513.969978 -666.493589 
L 522.584942 -663.424644 
L 530.368475 -659.994229 
L 533.980715 -656.105682 
L 530.378769 -651.617498 
L 518.50563 -646.310417 
L 500.170037 -639.817413 
L 479.398555 -631.451267 
L 460.630432 -619.672318 
L 446.856515 -599.590353 
L 438.702482 -461.169205 
z
" id="m3d6df53c41" style="stroke:#3f3f3f;stroke-width:1.2;"/>
    </defs>
    <g clip-path="url(#pb2f5aa9317)">
     <use style="fill:#e1812c;stroke:#3f3f3f;stroke-width:1.2;" x="0" xlink:href="#m3d6df53c41" y="848.25375"/>
    </g>
   </g>
   <g id="patch_3">
    <path d="M 54.169375 402.98 
L 54.169375 53.28 
" style="fill:none;stroke:#cccccc;stroke-linecap:square;stroke-linejoin:miter;"/>
   </g>
   <g id="patch_4">
    <path d="M 559.233944 402.98 
L 559.233944 53.28 
" style="fill:none;stroke:#cccccc;stroke-linecap:square;stroke-linejoin:miter;"/>
   </g>
   <g id="patch_5">
    <path d="M 54.169375 402.98 
L 559.233944 402.98 
" style="fill:none;stroke:#cccccc;stroke-linecap:square;stroke-linejoin:miter;"/>
   </g>
   <g id="patch_6">
    <path d="M 54.169375 53.28 
L 559.233944 53.28 
" style="fill:none;stroke:#cccccc;stroke-linecap:square;stroke-linejoin:miter;"/>
   </g>
   <g id="text_10">
    <text style="fill:#262626;font-family:DejaVu Sans;font-size:16px;font-stretch:normal;font-style:normal;font-weight:normal;text-anchor:middle;" transform="rotate(-0, 306.701659, 47.28)" x="306.701659" y="47.28">Total UMIs per Cell</text>
   </g>
  </g>
  <g id="axes_2">
   <g id="patch_7">
    <path d="M 618.911875 402.98 
L 1123.976444 402.98 
L 1123.976444 53.28 
L 618.911875 53.28 
z
" style="fill:#ffffff;"/>
   </g>
   <g id="matplotlib.axis_3">
    <g id="xtick_3">
     <g id="text_11">
      <text style="fill:#262626;font-family:DejaVu Sans;font-size:12px;font-stretch:normal;font-style:normal;font-weight:normal;text-anchor:middle;" transform="rotate(-0, 745.178017, 420.398125)" x="745.178017" y="420.398125">10X Genomics</text>
     </g>
    </g>
    <g id="xtick_4">
     <g id="text_12">
      <text style="fill:#262626;font-family:DejaVu Sans;font-size:12px;font-stretch:normal;font-style:normal;font-weight:normal;text-anchor:middle;" transform="rotate(-0, 997.710302, 420.398125)" x="997.710302" y="420.398125">ChronoSeq</text>
     </g>
    </g>
    <g id="text_13">
     <text style="fill:#262626;font-family:DejaVu Sans;font-size:14px;font-stretch:normal;font-style:normal;font-weight:normal;text-anchor:middle;" transform="rotate(-0, 871.444159, 437.531563)" x="871.444159" y="437.531563">technology</text>
    </g>
   </g>
   <g id="matplotlib.axis_4">
    <g id="ytick_46">
     <g id="line2d_6">
      <path clip-path="url(#p4236e8b978)" d="M 618.911875 326.30215 
L 1123.976444 326.30215 
" style="fill:none;stroke:#cccccc;stroke-linecap:round;stroke-width:0.8;"/>
     </g>
     <g id="text_14">
      <!-- $\mathdefault{10^{1}}$ -->
      <g style="fill:#262626;" transform="translate(589.491875 330.861213)">
       <text>
        <tspan style="font-family:DejaVu Sans;font-size:12px;font-style:book;font-weight:book;" x="0 7.634766" y="-0.28125">10</tspan>
        <tspan style="font-family:DejaVu Sans;font-size:8.4px;font-style:book;font-weight:book;" x="15.384375" y="-4.875">1</tspan>
       </text>
      </g>
     </g>
    </g>
    <g id="ytick_47">
     <g id="line2d_7">
      <path clip-path="url(#p4236e8b978)" d="M 618.911875 239.342202 
L 1123.976444 239.342202 
" style="fill:none;stroke:#cccccc;stroke-linecap:round;stroke-width:0.8;"/>
     </g>
     <g id="text_15">
      <!-- $\mathdefault{10^{2}}$ -->
      <g style="fill:#262626;" transform="translate(589.491875 243.901265)">
       <text>
        <tspan style="font-family:DejaVu Sans;font-size:12px;font-style:book;font-weight:book;" x="0 7.634766" y="-0.171875">10</tspan>
        <tspan style="font-family:DejaVu Sans;font-size:8.4px;font-style:book;font-weight:book;" x="15.384375" y="-4.765625">2</tspan>
       </text>
      </g>
     </g>
    </g>
    <g id="ytick_48">
     <g id="line2d_8">
      <path clip-path="url(#p4236e8b978)" d="M 618.911875 152.382254 
L 1123.976444 152.382254 
" style="fill:none;stroke:#cccccc;stroke-linecap:round;stroke-width:0.8;"/>
     </g>
     <g id="text_16">
      <!-- $\mathdefault{10^{3}}$ -->
      <g style="fill:#262626;" transform="translate(589.491875 156.941316)">
       <text>
        <tspan style="font-family:DejaVu Sans;font-size:12px;font-style:book;font-weight:book;" x="0 7.634766" y="-0.171875">10</tspan>
        <tspan style="font-family:DejaVu Sans;font-size:8.4px;font-style:book;font-weight:book;" x="15.384375" y="-4.765625">3</tspan>
       </text>
      </g>
     </g>
    </g>
    <g id="ytick_49">
     <g id="line2d_9">
      <path clip-path="url(#p4236e8b978)" d="M 618.911875 65.422306 
L 1123.976444 65.422306 
" style="fill:none;stroke:#cccccc;stroke-linecap:round;stroke-width:0.8;"/>
     </g>
     <g id="text_17">
      <!-- $\mathdefault{10^{4}}$ -->
      <g style="fill:#262626;" transform="translate(589.491875 69.981368)">
       <text>
        <tspan style="font-family:DejaVu Sans;font-size:12px;font-style:book;font-weight:book;" x="0 7.634766" y="-0.28125">10</tspan>
        <tspan style="font-family:DejaVu Sans;font-size:8.4px;font-style:book;font-weight:book;" x="15.384375" y="-4.875">4</tspan>
       </text>
      </g>
     </g>
    </g>
    <g id="ytick_50"/>
    <g id="ytick_51"/>
    <g id="ytick_52"/>
    <g id="ytick_53"/>
    <g id="ytick_54"/>
    <g id="ytick_55"/>
    <g id="ytick_56"/>
    <g id="ytick_57"/>
    <g id="ytick_58"/>
    <g id="ytick_59"/>
    <g id="ytick_60"/>
    <g id="ytick_61"/>
    <g id="ytick_62"/>
    <g id="ytick_63"/>
    <g id="ytick_64"/>
    <g id="ytick_65"/>
    <g id="ytick_66"/>
    <g id="ytick_67"/>
    <g id="ytick_68"/>
    <g id="ytick_69"/>
    <g id="ytick_70"/>
    <g id="ytick_71"/>
    <g id="ytick_72"/>
    <g id="ytick_73"/>
    <g id="ytick_74"/>
    <g id="ytick_75"/>
    <g id="ytick_76"/>
    <g id="ytick_77"/>
    <g id="ytick_78"/>
    <g id="ytick_79"/>
    <g id="ytick_80"/>
    <g id="ytick_81"/>
    <g id="text_18">
     <text style="fill:#262626;font-family:DejaVu Sans;font-size:14px;font-stretch:normal;font-style:normal;font-weight:normal;text-anchor:middle;" transform="rotate(-90, 582.580312, 228.13)" x="582.580312" y="228.13">Number of Genes</text>
    </g>
   </g>
   <g id="PolyCollection_3">
    <defs>
     <path d="M 785.592927 -618.528423 
L 704.763108 -618.528423 
L 700.808141 -638.54267 
L 698.129534 -651.55533 
L 696.912639 -661.215119 
L 697.172335 -668.900589 
L 698.75599 -675.283418 
L 701.377652 -680.741845 
L 704.673855 -685.510064 
L 708.266747 -689.743193 
L 711.820117 -693.549303 
L 715.077828 -697.006704 
L 717.880346 -700.173966 
L 720.161164 -703.096036 
L 721.929133 -705.808164 
L 723.244246 -708.338507 
L 724.193531 -710.709909 
L 724.871401 -712.941164 
L 725.366195 -715.047917 
L 725.752603 -717.04333 
L 726.088573 -718.938583 
L 726.415091 -720.743253 
L 726.75756 -722.465605 
L 727.128038 -724.112822 
L 727.528018 -725.691187 
L 727.951543 -727.206224 
L 728.388482 -728.662821 
L 728.827551 -730.065319 
L 729.258647 -731.417593 
L 729.674064 -732.723116 
L 730.068442 -733.985013 
L 730.437576 -735.206105 
L 730.77657 -736.38895 
L 731.077933 -737.535869 
L 731.330176 -738.648983 
L 731.517196 -739.730225 
L 731.618452 -740.781372 
L 731.609639 -741.804052 
L 731.463509 -742.799768 
L 731.150631 -743.769904 
L 730.640054 -744.715742 
L 729.900127 -745.63847 
L 728.899729 -746.53919 
L 727.61004 -747.418927 
L 726.006713 -748.278637 
L 724.071998 -749.119212 
L 721.796269 -749.941484 
L 719.178559 -750.746234 
L 716.226016 -751.534193 
L 712.952623 -752.306047 
L 709.377743 -753.062442 
L 705.525066 -753.803984 
L 701.422203 -754.531246 
L 697.100852 -755.244767 
L 692.597155 -755.945058 
L 687.951867 -756.632599 
L 683.210287 -757.307847 
L 678.422224 -757.971233 
L 673.642577 -758.623167 
L 668.932893 -759.264039 
L 664.363805 -759.894216 
L 660.017443 -760.51405 
L 655.988414 -761.123875 
L 652.381882 -761.72401 
L 649.307906 -762.314757 
L 646.87234 -762.896405 
L 645.165793 -763.469231 
L 644.253012 -764.033499 
L 644.165103 -764.589459 
L 644.896417 -765.137354 
L 646.406688 -765.677413 
L 648.627761 -766.209859 
L 651.473193 -766.734902 
L 654.84854 -767.252746 
L 658.660259 -767.763585 
L 662.821793 -768.267606 
L 667.256304 -768.764989 
L 671.896453 -769.255907 
L 676.682315 -769.740525 
L 681.558749 -770.219003 
L 686.473348 -770.691495 
L 691.375555 -771.158149 
L 696.216914 -771.619107 
L 700.951942 -772.074506 
L 705.539021 -772.524479 
L 709.940882 -772.969154 
L 714.124614 -773.408654 
L 718.061478 -773.843099 
L 721.726923 -774.272602 
L 725.101038 -774.697276 
L 728.169459 -775.117227 
L 730.924412 -775.53256 
L 733.365484 -775.943375 
L 735.499768 -776.349769 
L 737.34122 -776.751837 
L 738.909353 -777.149669 
L 740.227536 -777.543354 
L 741.321267 -777.932978 
L 742.216677 -778.318622 
L 742.939434 -778.700369 
L 743.514015 -779.078295 
L 746.842019 -779.078295 
L 746.842019 -779.078295 
L 747.416601 -778.700369 
L 748.139357 -778.318622 
L 749.034768 -777.932978 
L 750.128498 -777.543354 
L 751.446681 -777.149669 
L 753.014814 -776.751837 
L 754.856267 -776.349769 
L 756.99055 -775.943375 
L 759.431623 -775.53256 
L 762.186575 -775.117227 
L 765.254996 -774.697276 
L 768.629112 -774.272602 
L 772.294556 -773.843099 
L 776.231421 -773.408654 
L 780.415152 -772.969154 
L 784.817013 -772.524479 
L 789.404093 -772.074506 
L 794.13912 -771.619107 
L 798.980479 -771.158149 
L 803.882687 -770.691495 
L 808.797285 -770.219003 
L 813.673719 -769.740525 
L 818.459581 -769.255907 
L 823.09973 -768.764989 
L 827.534241 -768.267606 
L 831.695776 -767.763585 
L 835.507495 -767.252746 
L 838.882841 -766.734902 
L 841.728273 -766.209859 
L 843.949346 -765.677413 
L 845.459617 -765.137354 
L 846.190931 -764.589459 
L 846.103022 -764.033499 
L 845.190241 -763.469231 
L 843.483695 -762.896405 
L 841.048128 -762.314757 
L 837.974153 -761.72401 
L 834.367621 -761.123875 
L 830.338592 -760.51405 
L 825.992229 -759.894216 
L 821.423141 -759.264039 
L 816.713458 -758.623167 
L 811.93381 -757.971233 
L 807.145748 -757.307847 
L 802.404167 -756.632599 
L 797.758879 -755.945058 
L 793.255182 -755.244767 
L 788.933832 -754.531246 
L 784.830968 -753.803984 
L 780.978291 -753.062442 
L 777.403412 -752.306047 
L 774.130018 -751.534193 
L 771.177475 -750.746234 
L 768.559765 -749.941484 
L 766.284037 -749.119212 
L 764.349321 -748.278637 
L 762.745994 -747.418927 
L 761.456305 -746.53919 
L 760.455907 -745.63847 
L 759.715981 -744.715742 
L 759.205404 -743.769904 
L 758.892525 -742.799768 
L 758.746396 -741.804052 
L 758.737582 -740.781372 
L 758.838839 -739.730225 
L 759.025859 -738.648983 
L 759.278101 -737.535869 
L 759.579465 -736.38895 
L 759.918458 -735.206105 
L 760.287592 -733.985013 
L 760.68197 -732.723116 
L 761.097388 -731.417593 
L 761.528483 -730.065319 
L 761.967552 -728.662821 
L 762.404491 -727.206224 
L 762.828017 -725.691187 
L 763.227996 -724.112822 
L 763.598475 -722.465605 
L 763.940943 -720.743253 
L 764.267461 -718.938583 
L 764.603432 -717.04333 
L 764.989839 -715.047917 
L 765.484633 -712.941164 
L 766.162503 -710.709909 
L 767.111788 -708.338507 
L 768.426901 -705.808164 
L 770.19487 -703.096036 
L 772.475688 -700.173966 
L 775.278206 -697.006704 
L 778.535917 -693.549303 
L 782.089287 -689.743193 
L 785.682179 -685.510064 
L 788.978382 -680.741845 
L 791.600045 -675.283418 
L 793.1837 -668.900589 
L 793.443395 -661.215119 
L 792.226501 -651.55533 
L 789.547894 -638.54267 
L 785.592927 -618.528423 
z
" id="m15cdf5d5c4" style="stroke:#3f3f3f;stroke-width:1.2;"/>
    </defs>
    <g clip-path="url(#p4236e8b978)">
     <use style="fill:#3274a1;stroke:#3f3f3f;stroke-width:1.2;" x="0" xlink:href="#m15cdf5d5c4" y="848.25375"/>
    </g>
   </g>
   <g id="PolyCollection_4">
    <defs>
     <path d="M 997.886013 -461.169205 
L 997.53459 -461.169205 
L 997.338149 -587.258434 
L 996.895154 -612.759926 
L 995.989886 -627.844743 
L 994.345225 -638.594855 
L 991.687596 -646.953245 
L 987.828889 -653.79284 
L 982.70287 -659.581635 
L 976.324707 -664.599923 
L 968.730425 -669.02893 
L 959.991417 -672.992621 
L 950.313709 -676.57954 
L 940.111843 -679.85514 
L 929.952951 -682.86917 
L 920.409374 -685.660335 
L 911.962634 -688.259336 
L 905.02752 -690.690937 
L 900.000859 -692.975404 
L 897.1994 -695.12953 
L 896.697388 -697.167391 
L 898.222751 -699.100896 
L 901.228288 -700.940214 
L 905.078302 -702.694097 
L 909.200059 -704.370131 
L 913.128633 -705.974934 
L 916.504818 -707.514314 
L 919.119132 -708.993398 
L 920.999952 -710.416731 
L 922.433571 -711.788365 
L 923.825222 -713.111923 
L 925.461396 -714.390661 
L 927.347742 -715.627517 
L 929.24871 -716.825146 
L 930.89821 -717.985962 
L 932.223369 -719.112158 
L 933.41974 -720.205742 
L 934.835577 -721.268548 
L 936.767261 -722.302262 
L 939.312077 -723.308434 
L 942.346214 -724.288493 
L 945.59889 -725.243761 
L 948.767593 -726.175462 
L 951.638146 -727.084729 
L 954.168373 -727.972619 
L 956.47809 -728.840112 
L 958.732094 -729.688126 
L 961.001247 -730.517516 
L 963.225318 -731.329082 
L 965.30595 -732.123574 
L 967.221606 -732.901696 
L 969.041879 -733.66411 
L 970.843445 -734.411436 
L 972.633659 -735.14426 
L 974.354535 -735.863135 
L 975.944651 -736.568581 
L 977.397224 -737.261091 
L 978.771644 -737.941131 
L 980.149864 -738.609143 
L 981.571741 -739.265543 
L 983.00962 -739.910729 
L 984.406031 -740.545079 
L 985.728058 -741.168949 
L 986.97734 -741.78268 
L 988.154021 -742.386597 
L 989.225859 -742.981009 
L 990.139425 -743.566209 
L 990.86075 -744.142481 
L 991.407209 -744.71009 
L 991.843463 -745.269295 
L 992.242732 -745.820341 
L 992.643261 -746.363462 
L 993.037074 -746.898883 
L 993.399676 -747.426818 
L 993.729766 -747.947476 
L 994.059875 -748.461053 
L 994.429184 -748.96774 
L 994.846364 -749.467718 
L 995.278815 -749.961164 
L 995.677245 -750.448246 
L 996.008582 -750.929125 
L 996.265823 -751.403959 
L 996.454281 -751.872896 
L 996.579513 -752.336082 
L 996.652305 -752.793656 
L 996.698035 -753.245752 
L 996.750187 -753.692501 
L 996.829837 -754.134026 
L 996.933845 -754.570449 
L 997.044775 -755.001886 
L 997.148842 -755.428451 
L 997.241777 -755.850251 
L 997.322179 -756.267392 
L 997.386731 -756.679975 
L 997.433503 -757.088101 
L 997.465866 -757.491862 
L 997.490161 -757.891353 
L 997.510546 -758.286662 
L 997.528268 -758.677877 
L 997.545487 -759.06508 
L 997.566876 -759.448353 
L 997.853727 -759.448353 
L 997.853727 -759.448353 
L 997.875116 -759.06508 
L 997.892335 -758.677877 
L 997.910058 -758.286662 
L 997.930442 -757.891353 
L 997.954737 -757.491862 
L 997.9871 -757.088101 
L 998.033872 -756.679975 
L 998.098425 -756.267392 
L 998.178826 -755.850251 
L 998.271761 -755.428451 
L 998.375828 -755.001886 
L 998.486758 -754.570449 
L 998.590766 -754.134026 
L 998.670416 -753.692501 
L 998.722568 -753.245752 
L 998.768298 -752.793656 
L 998.84109 -752.336082 
L 998.966322 -751.872896 
L 999.15478 -751.403959 
L 999.412021 -750.929125 
L 999.743358 -750.448246 
L 1000.141788 -749.961164 
L 1000.57424 -749.467718 
L 1000.991419 -748.96774 
L 1001.360728 -748.461053 
L 1001.690837 -747.947476 
L 1002.020927 -747.426818 
L 1002.383529 -746.898883 
L 1002.777342 -746.363462 
L 1003.177871 -745.820341 
L 1003.57714 -745.269295 
L 1004.013394 -744.71009 
L 1004.559854 -744.142481 
L 1005.281178 -743.566209 
L 1006.194744 -742.981009 
L 1007.266582 -742.386597 
L 1008.443263 -741.78268 
L 1009.692545 -741.168949 
L 1011.014572 -740.545079 
L 1012.410983 -739.910729 
L 1013.848862 -739.265543 
L 1015.270739 -738.609143 
L 1016.648959 -737.941131 
L 1018.023379 -737.261091 
L 1019.475952 -736.568581 
L 1021.066068 -735.863135 
L 1022.786944 -735.14426 
L 1024.577158 -734.411436 
L 1026.378724 -733.66411 
L 1028.198997 -732.901696 
L 1030.114654 -732.123574 
L 1032.195285 -731.329082 
L 1034.419356 -730.517516 
L 1036.688509 -729.688126 
L 1038.942514 -728.840112 
L 1041.252231 -727.972619 
L 1043.782457 -727.084729 
L 1046.65301 -726.175462 
L 1049.821713 -725.243761 
L 1053.074389 -724.288493 
L 1056.108526 -723.308434 
L 1058.653342 -722.302262 
L 1060.585026 -721.268548 
L 1062.000863 -720.205742 
L 1063.197234 -719.112158 
L 1064.522393 -717.985962 
L 1066.171893 -716.825146 
L 1068.072861 -715.627517 
L 1069.959207 -714.390661 
L 1071.595381 -713.111923 
L 1072.987032 -711.788365 
L 1074.420651 -710.416731 
L 1076.301471 -708.993398 
L 1078.915785 -707.514314 
L 1082.29197 -705.974934 
L 1086.220544 -704.370131 
L 1090.342301 -702.694097 
L 1094.192315 -700.940214 
L 1097.197852 -699.100896 
L 1098.723215 -697.167391 
L 1098.221203 -695.12953 
L 1095.419745 -692.975404 
L 1090.393084 -690.690937 
L 1083.45797 -688.259336 
L 1075.011229 -685.660335 
L 1065.467652 -682.86917 
L 1055.30876 -679.85514 
L 1045.106894 -676.57954 
L 1035.429186 -672.992621 
L 1026.690178 -669.02893 
L 1019.095896 -664.599923 
L 1012.717733 -659.581635 
L 1007.591714 -653.79284 
L 1003.733007 -646.953245 
L 1001.075378 -638.594855 
L 999.430717 -627.844743 
L 998.525449 -612.759926 
L 998.082454 -587.258434 
L 997.886013 -461.169205 
z
" id="m3f0bf82e83" style="stroke:#3f3f3f;stroke-width:1.2;"/>
    </defs>
    <g clip-path="url(#p4236e8b978)">
     <use style="fill:#e1812c;stroke:#3f3f3f;stroke-width:1.2;" x="0" xlink:href="#m3f0bf82e83" y="848.25375"/>
    </g>
   </g>
   <g id="patch_8">
    <path d="M 618.911875 402.98 
L 618.911875 53.28 
" style="fill:none;stroke:#cccccc;stroke-linecap:square;stroke-linejoin:miter;"/>
   </g>
   <g id="patch_9">
    <path d="M 1123.976444 402.98 
L 1123.976444 53.28 
" style="fill:none;stroke:#cccccc;stroke-linecap:square;stroke-linejoin:miter;"/>
   </g>
   <g id="patch_10">
    <path d="M 618.911875 402.98 
L 1123.976444 402.98 
" style="fill:none;stroke:#cccccc;stroke-linecap:square;stroke-linejoin:miter;"/>
   </g>
   <g id="patch_11">
    <path d="M 618.911875 53.28 
L 1123.976444 53.28 
" style="fill:none;stroke:#cccccc;stroke-linecap:square;stroke-linejoin:miter;"/>
   </g>
   <g id="text_19">
    <text style="fill:#262626;font-family:DejaVu Sans;font-size:16px;font-stretch:normal;font-style:normal;font-weight:normal;text-anchor:middle;" transform="rotate(-0, 871.444159, 47.28)" x="871.444159" y="47.28">Genes Detected per Cell</text>
   </g>
  </g>
  <g id="axes_3">
   <g id="patch_12">
    <path d="M 54.169375 821.14 
L 559.233944 821.14 
L 559.233944 471.44 
L 54.169375 471.44 
z
" style="fill:#ffffff;"/>
   </g>
   <g id="matplotlib.axis_5">
    <g id="xtick_5">
     <g id="line2d_10">
      <path clip-path="url(#p8346ec46a7)" d="M 54.169375 821.14 
L 54.169375 471.44 
" style="fill:none;stroke:#cccccc;stroke-linecap:round;stroke-width:0.8;"/>
     </g>
     <g id="text_20">
      <text style="fill:#262626;font-family:DejaVu Sans;font-size:12px;font-stretch:normal;font-style:normal;font-weight:normal;text-anchor:middle;" transform="rotate(-0, 54.169375, 838.558125)" x="54.169375" y="838.558125">0.0</text>
     </g>
    </g>
    <g id="xtick_6">
     <g id="line2d_11">
      <path clip-path="url(#p8346ec46a7)" d="M 155.182289 821.14 
L 155.182289 471.44 
" style="fill:none;stroke:#cccccc;stroke-linecap:round;stroke-width:0.8;"/>
     </g>
     <g id="text_21">
      <text style="fill:#262626;font-family:DejaVu Sans;font-size:12px;font-stretch:normal;font-style:normal;font-weight:normal;text-anchor:middle;" transform="rotate(-0, 155.182289, 838.558125)" x="155.182289" y="838.558125">0.2</text>
     </g>
    </g>
    <g id="xtick_7">
     <g id="line2d_12">
      <path clip-path="url(#p8346ec46a7)" d="M 256.195202 821.14 
L 256.195202 471.44 
" style="fill:none;stroke:#cccccc;stroke-linecap:round;stroke-width:0.8;"/>
     </g>
     <g id="text_22">
      <text style="fill:#262626;font-family:DejaVu Sans;font-size:12px;font-stretch:normal;font-style:normal;font-weight:normal;text-anchor:middle;" transform="rotate(-0, 256.195202, 838.558125)" x="256.195202" y="838.558125">0.4</text>
     </g>
    </g>
    <g id="xtick_8">
     <g id="line2d_13">
      <path clip-path="url(#p8346ec46a7)" d="M 357.208116 821.14 
L 357.208116 471.44 
" style="fill:none;stroke:#cccccc;stroke-linecap:round;stroke-width:0.8;"/>
     </g>
     <g id="text_23">
      <text style="fill:#262626;font-family:DejaVu Sans;font-size:12px;font-stretch:normal;font-style:normal;font-weight:normal;text-anchor:middle;" transform="rotate(-0, 357.208116, 838.558125)" x="357.208116" y="838.558125">0.6</text>
     </g>
    </g>
    <g id="xtick_9">
     <g id="line2d_14">
      <path clip-path="url(#p8346ec46a7)" d="M 458.22103 821.14 
L 458.22103 471.44 
" style="fill:none;stroke:#cccccc;stroke-linecap:round;stroke-width:0.8;"/>
     </g>
     <g id="text_24">
      <text style="fill:#262626;font-family:DejaVu Sans;font-size:12px;font-stretch:normal;font-style:normal;font-weight:normal;text-anchor:middle;" transform="rotate(-0, 458.22103, 838.558125)" x="458.22103" y="838.558125">0.8</text>
     </g>
    </g>
    <g id="xtick_10">
     <g id="line2d_15">
      <path clip-path="url(#p8346ec46a7)" d="M 559.233944 821.14 
L 559.233944 471.44 
" style="fill:none;stroke:#cccccc;stroke-linecap:round;stroke-width:0.8;"/>
     </g>
     <g id="text_25">
      <text style="fill:#262626;font-family:DejaVu Sans;font-size:12px;font-stretch:normal;font-style:normal;font-weight:normal;text-anchor:middle;" transform="rotate(-0, 559.233944, 838.558125)" x="559.233944" y="838.558125">1.0</text>
     </g>
    </g>
   </g>
   <g id="matplotlib.axis_6">
    <g id="ytick_82">
     <g id="line2d_16">
      <path clip-path="url(#p8346ec46a7)" d="M 54.169375 821.14 
L 559.233944 821.14 
" style="fill:none;stroke:#cccccc;stroke-linecap:round;stroke-width:0.8;"/>
     </g>
     <g id="text_26">
      <text style="fill:#262626;font-family:DejaVu Sans;font-size:12px;font-stretch:normal;font-style:normal;font-weight:normal;text-anchor:end;" transform="rotate(-0, 45.869375, 825.699063)" x="45.869375" y="825.699063">0.0</text>
     </g>
    </g>
    <g id="ytick_83">
     <g id="line2d_17">
      <path clip-path="url(#p8346ec46a7)" d="M 54.169375 751.2 
L 559.233944 751.2 
" style="fill:none;stroke:#cccccc;stroke-linecap:round;stroke-width:0.8;"/>
     </g>
     <g id="text_27">
      <text style="fill:#262626;font-family:DejaVu Sans;font-size:12px;font-stretch:normal;font-style:normal;font-weight:normal;text-anchor:end;" transform="rotate(-0, 45.869375, 755.759063)" x="45.869375" y="755.759063">0.2</text>
     </g>
    </g>
    <g id="ytick_84">
     <g id="line2d_18">
      <path clip-path="url(#p8346ec46a7)" d="M 54.169375 681.26 
L 559.233944 681.26 
" style="fill:none;stroke:#cccccc;stroke-linecap:round;stroke-width:0.8;"/>
     </g>
     <g id="text_28">
      <text style="fill:#262626;font-family:DejaVu Sans;font-size:12px;font-stretch:normal;font-style:normal;font-weight:normal;text-anchor:end;" transform="rotate(-0, 45.869375, 685.819062)" x="45.869375" y="685.819062">0.4</text>
     </g>
    </g>
    <g id="ytick_85">
     <g id="line2d_19">
      <path clip-path="url(#p8346ec46a7)" d="M 54.169375 611.32 
L 559.233944 611.32 
" style="fill:none;stroke:#cccccc;stroke-linecap:round;stroke-width:0.8;"/>
     </g>
     <g id="text_29">
      <text style="fill:#262626;font-family:DejaVu Sans;font-size:12px;font-stretch:normal;font-style:normal;font-weight:normal;text-anchor:end;" transform="rotate(-0, 45.869375, 615.879062)" x="45.869375" y="615.879062">0.6</text>
     </g>
    </g>
    <g id="ytick_86">
     <g id="line2d_20">
      <path clip-path="url(#p8346ec46a7)" d="M 54.169375 541.38 
L 559.233944 541.38 
" style="fill:none;stroke:#cccccc;stroke-linecap:round;stroke-width:0.8;"/>
     </g>
     <g id="text_30">
      <text style="fill:#262626;font-family:DejaVu Sans;font-size:12px;font-stretch:normal;font-style:normal;font-weight:normal;text-anchor:end;" transform="rotate(-0, 45.869375, 545.939062)" x="45.869375" y="545.939062">0.8</text>
     </g>
    </g>
    <g id="ytick_87">
     <g id="line2d_21">
      <path clip-path="url(#p8346ec46a7)" d="M 54.169375 471.44 
L 559.233944 471.44 
" style="fill:none;stroke:#cccccc;stroke-linecap:round;stroke-width:0.8;"/>
     </g>
     <g id="text_31">
      <text style="fill:#262626;font-family:DejaVu Sans;font-size:12px;font-stretch:normal;font-style:normal;font-weight:normal;text-anchor:end;" transform="rotate(-0, 45.869375, 475.999062)" x="45.869375" y="475.999062">1.0</text>
     </g>
    </g>
   </g>
   <g id="patch_13">
    <path d="M 54.169375 821.14 
L 54.169375 471.44 
" style="fill:none;stroke:#cccccc;stroke-linecap:square;stroke-linejoin:miter;"/>
   </g>
   <g id="patch_14">
    <path d="M 559.233944 821.14 
L 559.233944 471.44 
" style="fill:none;stroke:#cccccc;stroke-linecap:square;stroke-linejoin:miter;"/>
   </g>
   <g id="patch_15">
    <path d="M 54.169375 821.14 
L 559.233944 821.14 
" style="fill:none;stroke:#cccccc;stroke-linecap:square;stroke-linejoin:miter;"/>
   </g>
   <g id="patch_16">
    <path d="M 54.169375 471.44 
L 559.233944 471.44 
" style="fill:none;stroke:#cccccc;stroke-linecap:square;stroke-linejoin:miter;"/>
   </g>
   <g id="text_32">
    <text style="fill:#262626;font-family:DejaVu Sans;font-size:16px;font-stretch:normal;font-style:normal;font-weight:normal;" transform="translate(238.974159 641.74675)">No Mitochondrial</text>
    <text style="fill:#262626;font-family:DejaVu Sans;font-size:16px;font-stretch:normal;font-style:normal;font-weight:normal;" transform="translate(242.200409 659.66325)">Genes Detected</text>
   </g>
   <g id="text_33">
    <text style="fill:#262626;font-family:DejaVu Sans;font-size:16px;font-stretch:normal;font-style:normal;font-weight:normal;text-anchor:middle;" transform="rotate(-0, 306.701659, 465.44)" x="306.701659" y="465.44">Mitochondrial Gene Percentage</text>
   </g>
  </g>
  <g id="axes_4">
   <g id="patch_17">
    <path d="M 618.911875 821.14 
L 1123.976444 821.14 
L 1123.976444 471.44 
L 618.911875 471.44 
z
" style="fill:#ffffff;"/>
   </g>
   <g id="matplotlib.axis_7">
    <g id="xtick_11">
     <g id="line2d_22">
      <path clip-path="url(#pb6572822b0)" d="M 618.911875 821.14 
L 618.911875 471.44 
" style="fill:none;stroke:#cccccc;stroke-linecap:round;stroke-width:0.8;"/>
     </g>
     <g id="text_34">
      <text style="fill:#262626;font-family:DejaVu Sans;font-size:12px;font-stretch:normal;font-style:normal;font-weight:normal;text-anchor:middle;" transform="rotate(-0, 618.911875, 838.558125)" x="618.911875" y="838.558125">0.0</text>
     </g>
    </g>
    <g id="xtick_12">
     <g id="line2d_23">
      <path clip-path="url(#pb6572822b0)" d="M 719.924789 821.14 
L 719.924789 471.44 
" style="fill:none;stroke:#cccccc;stroke-linecap:round;stroke-width:0.8;"/>
     </g>
     <g id="text_35">
      <text style="fill:#262626;font-family:DejaVu Sans;font-size:12px;font-stretch:normal;font-style:normal;font-weight:normal;text-anchor:middle;" transform="rotate(-0, 719.924789, 838.558125)" x="719.924789" y="838.558125">0.2</text>
     </g>
    </g>
    <g id="xtick_13">
     <g id="line2d_24">
      <path clip-path="url(#pb6572822b0)" d="M 820.937703 821.14 
L 820.937703 471.44 
" style="fill:none;stroke:#cccccc;stroke-linecap:round;stroke-width:0.8;"/>
     </g>
     <g id="text_36">
      <text style="fill:#262626;font-family:DejaVu Sans;font-size:12px;font-stretch:normal;font-style:normal;font-weight:normal;text-anchor:middle;" transform="rotate(-0, 820.937703, 838.558125)" x="820.937703" y="838.558125">0.4</text>
     </g>
    </g>
    <g id="xtick_14">
     <g id="line2d_25">
      <path clip-path="url(#pb6572822b0)" d="M 921.950616 821.14 
L 921.950616 471.44 
" style="fill:none;stroke:#cccccc;stroke-linecap:round;stroke-width:0.8;"/>
     </g>
     <g id="text_37">
      <text style="fill:#262626;font-family:DejaVu Sans;font-size:12px;font-stretch:normal;font-style:normal;font-weight:normal;text-anchor:middle;" transform="rotate(-0, 921.950616, 838.558125)" x="921.950616" y="838.558125">0.6</text>
     </g>
    </g>
    <g id="xtick_15">
     <g id="line2d_26">
      <path clip-path="url(#pb6572822b0)" d="M 1022.96353 821.14 
L 1022.96353 471.44 
" style="fill:none;stroke:#cccccc;stroke-linecap:round;stroke-width:0.8;"/>
     </g>
     <g id="text_38">
      <text style="fill:#262626;font-family:DejaVu Sans;font-size:12px;font-stretch:normal;font-style:normal;font-weight:normal;text-anchor:middle;" transform="rotate(-0, 1022.96353, 838.558125)" x="1022.96353" y="838.558125">0.8</text>
     </g>
    </g>
    <g id="xtick_16">
     <g id="line2d_27">
      <path clip-path="url(#pb6572822b0)" d="M 1123.976444 821.14 
L 1123.976444 471.44 
" style="fill:none;stroke:#cccccc;stroke-linecap:round;stroke-width:0.8;"/>
     </g>
     <g id="text_39">
      <text style="fill:#262626;font-family:DejaVu Sans;font-size:12px;font-stretch:normal;font-style:normal;font-weight:normal;text-anchor:middle;" transform="rotate(-0, 1123.976444, 838.558125)" x="1123.976444" y="838.558125">1.0</text>
     </g>
    </g>
   </g>
   <g id="matplotlib.axis_8">
    <g id="ytick_88">
     <g id="line2d_28">
      <path clip-path="url(#pb6572822b0)" d="M 618.911875 821.14 
L 1123.976444 821.14 
" style="fill:none;stroke:#cccccc;stroke-linecap:round;stroke-width:0.8;"/>
     </g>
     <g id="text_40">
      <text style="fill:#262626;font-family:DejaVu Sans;font-size:12px;font-stretch:normal;font-style:normal;font-weight:normal;text-anchor:end;" transform="rotate(-0, 610.611875, 825.699063)" x="610.611875" y="825.699063">0.0</text>
     </g>
    </g>
    <g id="ytick_89">
     <g id="line2d_29">
      <path clip-path="url(#pb6572822b0)" d="M 618.911875 751.2 
L 1123.976444 751.2 
" style="fill:none;stroke:#cccccc;stroke-linecap:round;stroke-width:0.8;"/>
     </g>
     <g id="text_41">
      <text style="fill:#262626;font-family:DejaVu Sans;font-size:12px;font-stretch:normal;font-style:normal;font-weight:normal;text-anchor:end;" transform="rotate(-0, 610.611875, 755.759063)" x="610.611875" y="755.759063">0.2</text>
     </g>
    </g>
    <g id="ytick_90">
     <g id="line2d_30">
      <path clip-path="url(#pb6572822b0)" d="M 618.911875 681.26 
L 1123.976444 681.26 
" style="fill:none;stroke:#cccccc;stroke-linecap:round;stroke-width:0.8;"/>
     </g>
     <g id="text_42">
      <text style="fill:#262626;font-family:DejaVu Sans;font-size:12px;font-stretch:normal;font-style:normal;font-weight:normal;text-anchor:end;" transform="rotate(-0, 610.611875, 685.819062)" x="610.611875" y="685.819062">0.4</text>
     </g>
    </g>
    <g id="ytick_91">
     <g id="line2d_31">
      <path clip-path="url(#pb6572822b0)" d="M 618.911875 611.32 
L 1123.976444 611.32 
" style="fill:none;stroke:#cccccc;stroke-linecap:round;stroke-width:0.8;"/>
     </g>
     <g id="text_43">
      <text style="fill:#262626;font-family:DejaVu Sans;font-size:12px;font-stretch:normal;font-style:normal;font-weight:normal;text-anchor:end;" transform="rotate(-0, 610.611875, 615.879062)" x="610.611875" y="615.879062">0.6</text>
     </g>
    </g>
    <g id="ytick_92">
     <g id="line2d_32">
      <path clip-path="url(#pb6572822b0)" d="M 618.911875 541.38 
L 1123.976444 541.38 
" style="fill:none;stroke:#cccccc;stroke-linecap:round;stroke-width:0.8;"/>
     </g>
     <g id="text_44">
      <text style="fill:#262626;font-family:DejaVu Sans;font-size:12px;font-stretch:normal;font-style:normal;font-weight:normal;text-anchor:end;" transform="rotate(-0, 610.611875, 545.939062)" x="610.611875" y="545.939062">0.8</text>
     </g>
    </g>
    <g id="ytick_93">
     <g id="line2d_33">
      <path clip-path="url(#pb6572822b0)" d="M 618.911875 471.44 
L 1123.976444 471.44 
" style="fill:none;stroke:#cccccc;stroke-linecap:round;stroke-width:0.8;"/>
     </g>
     <g id="text_45">
      <text style="fill:#262626;font-family:DejaVu Sans;font-size:12px;font-stretch:normal;font-style:normal;font-weight:normal;text-anchor:end;" transform="rotate(-0, 610.611875, 475.999062)" x="610.611875" y="475.999062">1.0</text>
     </g>
    </g>
   </g>
   <g id="patch_18">
    <path d="M 618.911875 821.14 
L 618.911875 471.44 
" style="fill:none;stroke:#cccccc;stroke-linecap:square;stroke-linejoin:miter;"/>
   </g>
   <g id="patch_19">
    <path d="M 1123.976444 821.14 
L 1123.976444 471.44 
" style="fill:none;stroke:#cccccc;stroke-linecap:square;stroke-linejoin:miter;"/>
   </g>
   <g id="patch_20">
    <path d="M 618.911875 821.14 
L 1123.976444 821.14 
" style="fill:none;stroke:#cccccc;stroke-linecap:square;stroke-linejoin:miter;"/>
   </g>
   <g id="patch_21">
    <path d="M 618.911875 471.44 
L 1123.976444 471.44 
" style="fill:none;stroke:#cccccc;stroke-linecap:square;stroke-linejoin:miter;"/>
   </g>
   <g id="text_46">
    <text style="fill:#262626;font-family:DejaVu Sans;font-size:16px;font-stretch:normal;font-style:normal;font-weight:normal;" transform="translate(816.286659 641.74675)">No Ribosomal</text>
    <text style="fill:#262626;font-family:DejaVu Sans;font-size:16px;font-stretch:normal;font-style:normal;font-weight:normal;" transform="translate(806.942909 659.66325)">Genes Detected</text>
   </g>
   <g id="text_47">
    <text style="fill:#262626;font-family:DejaVu Sans;font-size:16px;font-stretch:normal;font-style:normal;font-weight:normal;text-anchor:middle;" transform="rotate(-0, 871.444159, 465.44)" x="871.444159" y="465.44">Ribosomal Gene Percentage</text>
   </g>
  </g>
  <g id="text_48">
   <text style="fill:#262626;font-family:DejaVu Sans;font-size:20px;font-stretch:normal;font-style:normal;font-weight:normal;text-anchor:middle;" transform="rotate(-0, 570.491444, 22.396875)" x="570.491444" y="22.396875">Technology Comparison: Quality Control Metrics</text>
  </g>
 </g>
 <defs>
  <clipPath id="pb2f5aa9317">
   <rect height="349.7" width="505.064569" x="54.169375" y="53.28"/>
  </clipPath>
  <clipPath id="p4236e8b978">
   <rect height="349.7" width="505.064569" x="618.911875" y="53.28"/>
  </clipPath>
  <clipPath id="p8346ec46a7">
   <rect height="349.7" width="505.064569" x="54.169375" y="471.44"/>
  </clipPath>
  <clipPath id="pb6572822b0">
   <rect height="349.7" width="505.064569" x="618.911875" y="471.44"/>
  </clipPath>
 </defs>
</svg>
