<?xml version="1.0" encoding="utf-8" standalone="no"?>
<!DOCTYPE svg PUBLIC "-//W3C//DTD SVG 1.1//EN"
  "http://www.w3.org/Graphics/SVG/1.1/DTD/svg11.dtd">
<svg height="398.340625pt" version="1.1" viewBox="0 0 510.649375 398.340625" width="510.649375pt" xmlns="http://www.w3.org/2000/svg" xmlns:xlink="http://www.w3.org/1999/xlink">
 <metadata>
  <rdf:RDF xmlns:cc="http://creativecommons.org/ns#" xmlns:dc="http://purl.org/dc/elements/1.1/" xmlns:rdf="http://www.w3.org/1999/02/22-rdf-syntax-ns#">
   <cc:Work>
    <dc:type rdf:resource="http://purl.org/dc/dcmitype/StillImage"/>
    <dc:date>2025-10-09T17:48:37.325244</dc:date>
    <dc:format>image/svg+xml</dc:format>
    <dc:creator>
     <cc:Agent>
      <dc:title>Matplotlib v3.4.3, https://matplotlib.org/</dc:title>
     </cc:Agent>
    </dc:creator>
   </cc:Work>
  </rdf:RDF>
 </metadata>
 <defs>
  <style type="text/css">*{stroke-linecap:butt;stroke-linejoin:round;}</style>
 </defs>
 <g id="figure_1">
  <g id="patch_1">
   <path d="M 0 398.340625 
L 510.649375 398.340625 
L 510.649375 0 
L 0 0 
z
" style="fill:#ffffff;"/>
  </g>
  <g id="axes_1">
   <g id="patch_2">
    <path d="M 54.169375 353.6775 
L 503.449375 353.6775 
L 503.449375 25.3575 
L 54.169375 25.3575 
z
" style="fill:#ffffff;"/>
   </g>
   <g id="matplotlib.axis_1">
    <g id="xtick_1">
     <g id="text_1">
      <text style="fill:#262626;font-family:DejaVu Sans;font-size:12px;font-stretch:normal;font-style:normal;font-weight:normal;text-anchor:middle;" transform="rotate(-0, 165.35483, 371.095625)" x="165.35483" y="371.095625">10X Genomics</text>
     </g>
    </g>
    <g id="xtick_2">
     <g id="text_2">
      <text style="fill:#262626;font-family:DejaVu Sans;font-size:12px;font-stretch:normal;font-style:normal;font-weight:normal;text-anchor:middle;" transform="rotate(-0, 392.26392, 371.095625)" x="392.26392" y="371.095625">ChronoSeq</text>
     </g>
    </g>
    <g id="text_3">
     <text style="fill:#262626;font-family:DejaVu Sans;font-size:14px;font-stretch:normal;font-style:normal;font-weight:normal;text-anchor:middle;" transform="rotate(-0, 278.809375, 388.229062)" x="278.809375" y="388.229062">technology</text>
    </g>
   </g>
   <g id="matplotlib.axis_2">
    <g id="ytick_1">
     <g id="line2d_1">
      <path clip-path="url(#p1feab143e2)" d="M 54.169375 294.945176 
L 503.449375 294.945176 
" style="fill:none;stroke:#cccccc;stroke-linecap:round;stroke-width:0.8;"/>
     </g>
     <g id="text_4">
      <!-- $\mathdefault{10^{1}}$ -->
      <g style="fill:#262626;" transform="translate(24.749375 299.504238)">
       <text>
        <tspan style="font-family:DejaVu Sans;font-size:12px;font-style:book;font-weight:book;" x="0 7.634766" y="-0.28125">10</tspan>
        <tspan style="font-family:DejaVu Sans;font-size:8.4px;font-style:book;font-weight:book;" x="15.384375" y="-4.875">1</tspan>
       </text>
      </g>
     </g>
    </g>
    <g id="ytick_2">
     <g id="line2d_2">
      <path clip-path="url(#p1feab143e2)" d="M 54.169375 232.269113 
L 503.449375 232.269113 
" style="fill:none;stroke:#cccccc;stroke-linecap:round;stroke-width:0.8;"/>
     </g>
     <g id="text_5">
      <!-- $\mathdefault{10^{2}}$ -->
      <g style="fill:#262626;" transform="translate(24.749375 236.828176)">
       <text>
        <tspan style="font-family:DejaVu Sans;font-size:12px;font-style:book;font-weight:book;" x="0 7.634766" y="-0.171875">10</tspan>
        <tspan style="font-family:DejaVu Sans;font-size:8.4px;font-style:book;font-weight:book;" x="15.384375" y="-4.765625">2</tspan>
       </text>
      </g>
     </g>
    </g>
    <g id="ytick_3">
     <g id="line2d_3">
      <path clip-path="url(#p1feab143e2)" d="M 54.169375 169.593051 
L 503.449375 169.593051 
" style="fill:none;stroke:#cccccc;stroke-linecap:round;stroke-width:0.8;"/>
     </g>
     <g id="text_6">
      <!-- $\mathdefault{10^{3}}$ -->
      <g style="fill:#262626;" transform="translate(24.749375 174.152113)">
       <text>
        <tspan style="font-family:DejaVu Sans;font-size:12px;font-style:book;font-weight:book;" x="0 7.634766" y="-0.171875">10</tspan>
        <tspan style="font-family:DejaVu Sans;font-size:8.4px;font-style:book;font-weight:book;" x="15.384375" y="-4.765625">3</tspan>
       </text>
      </g>
     </g>
    </g>
    <g id="ytick_4">
     <g id="line2d_4">
      <path clip-path="url(#p1feab143e2)" d="M 54.169375 106.916988 
L 503.449375 106.916988 
" style="fill:none;stroke:#cccccc;stroke-linecap:round;stroke-width:0.8;"/>
     </g>
     <g id="text_7">
      <!-- $\mathdefault{10^{4}}$ -->
      <g style="fill:#262626;" transform="translate(24.749375 111.47605)">
       <text>
        <tspan style="font-family:DejaVu Sans;font-size:12px;font-style:book;font-weight:book;" x="0 7.634766" y="-0.28125">10</tspan>
        <tspan style="font-family:DejaVu Sans;font-size:8.4px;font-style:book;font-weight:book;" x="15.384375" y="-4.875">4</tspan>
       </text>
      </g>
     </g>
    </g>
    <g id="ytick_5">
     <g id="line2d_5">
      <path clip-path="url(#p1feab143e2)" d="M 54.169375 44.240925 
L 503.449375 44.240925 
" style="fill:none;stroke:#cccccc;stroke-linecap:round;stroke-width:0.8;"/>
     </g>
     <g id="text_8">
      <!-- $\mathdefault{10^{5}}$ -->
      <g style="fill:#262626;" transform="translate(24.749375 48.799988)">
       <text>
        <tspan style="font-family:DejaVu Sans;font-size:12px;font-style:book;font-weight:book;" x="0 7.634766" y="-0.28125">10</tspan>
        <tspan style="font-family:DejaVu Sans;font-size:8.4px;font-style:book;font-weight:book;" x="15.384375" y="-4.875">5</tspan>
       </text>
      </g>
     </g>
    </g>
    <g id="ytick_6"/>
    <g id="ytick_7"/>
    <g id="ytick_8"/>
    <g id="ytick_9"/>
    <g id="ytick_10"/>
    <g id="ytick_11"/>
    <g id="ytick_12"/>
    <g id="ytick_13"/>
    <g id="ytick_14"/>
    <g id="ytick_15"/>
    <g id="ytick_16"/>
    <g id="ytick_17"/>
    <g id="ytick_18"/>
    <g id="ytick_19"/>
    <g id="ytick_20"/>
    <g id="ytick_21"/>
    <g id="ytick_22"/>
    <g id="ytick_23"/>
    <g id="ytick_24"/>
    <g id="ytick_25"/>
    <g id="ytick_26"/>
    <g id="ytick_27"/>
    <g id="ytick_28"/>
    <g id="ytick_29"/>
    <g id="ytick_30"/>
    <g id="ytick_31"/>
    <g id="ytick_32"/>
    <g id="ytick_33"/>
    <g id="ytick_34"/>
    <g id="ytick_35"/>
    <g id="ytick_36"/>
    <g id="ytick_37"/>
    <g id="ytick_38"/>
    <g id="ytick_39"/>
    <g id="ytick_40"/>
    <g id="ytick_41"/>
    <g id="ytick_42"/>
    <g id="ytick_43"/>
    <g id="ytick_44"/>
    <g id="ytick_45"/>
    <g id="ytick_46"/>
    <g id="text_9">
     <text style="fill:#262626;font-family:DejaVu Sans;font-size:14px;font-stretch:normal;font-style:normal;font-weight:normal;text-anchor:middle;" transform="rotate(-90, 17.837813, 189.5175)" x="17.837813" y="189.5175">UMI Counts</text>
    </g>
   </g>
   <g id="PolyCollection_1">
    <path clip-path="url(#p1feab143e2)" d="M 172.966755 63033.68389 
L 157.742904 63033.68389 
L 149.95983 63033.68389 
L 137.809828 63033.68389 
L 121.660684 63033.68389 
L 103.712034 63033.68389 
L 87.655197 63033.68389 
L 77.252927 168.575429 
L 74.591193 147.271876 
L 79.178544 135.469266 
L 88.478434 127.263579 
L 99.361397 120.967085 
L 109.402548 115.85695 
L 117.343438 111.556214 
L 122.824877 107.843189 
L 125.913472 104.576393 
L 126.806273 101.659984 
L 125.758241 99.026028 
L 123.09274 96.624613 
L 119.18349 94.417989 
L 114.399146 92.376912 
L 109.057446 90.478266 
L 103.423103 88.703464 
L 97.74187 87.037334 
L 92.275285 85.467332 
L 87.304941 83.982968 
L 83.10128 82.575382 
L 79.876053 81.237019 
L 77.744773 79.961389 
L 76.718558 78.742873 
L 76.73154 77.576576 
L 77.692703 76.458205 
L 79.533916 75.383977 
L 82.222692 74.350538 
L 85.728868 73.354904 
L 89.967006 72.394406 
L 94.7541 71.466649 
L 99.812078 70.569474 
L 104.81886 69.700929 
L 109.488278 68.859243 
L 113.644851 68.042805 
L 117.2578 67.250144 
L 120.416888 66.479914 
L 123.265851 65.730881 
L 125.932603 65.001908 
L 128.488939 64.29195 
L 130.946636 63.60004 
L 133.278025 62.925282 
L 135.447135 62.266847 
L 137.440729 61.623964 
L 139.287152 60.995915 
L 141.050537 60.382031 
L 142.799021 59.781687 
L 144.566056 59.194298 
L 146.335218 58.619318 
L 148.063056 58.056232 
L 149.719748 57.504559 
L 151.308234 56.963846 
L 152.843313 56.433664 
L 154.313407 55.913612 
L 155.664968 55.40331 
L 156.825986 54.9024 
L 157.748316 54.41054 
L 158.435663 53.927411 
L 158.940937 53.452708 
L 159.340848 52.986142 
L 159.706158 52.527439 
L 160.081795 52.076337 
L 160.482001 51.63259 
L 160.898635 51.195961 
L 161.316015 50.766225 
L 161.7236 50.343169 
L 162.119923 49.926587 
L 162.507488 49.516285 
L 162.884771 49.112076 
L 163.242906 48.713781 
L 163.569487 48.321231 
L 163.855192 47.934261 
L 164.097094 47.552716 
L 164.297086 47.176445 
L 164.458997 46.805304 
L 164.587986 46.439156 
L 164.691499 46.077868 
L 164.778482 45.721313 
L 164.855929 45.369367 
L 164.925894 45.021915 
L 164.986253 44.678841 
L 165.034496 44.340038 
L 165.07059 44.0054 
L 165.096562 43.674826 
L 165.114524 43.348219 
L 165.126288 43.025484 
L 165.134929 42.706531 
L 165.145688 42.391272 
L 165.164136 42.079623 
L 165.19275 41.771501 
L 165.229017 41.466829 
L 165.266796 41.165529 
L 165.299737 40.867527 
L 165.324137 40.572753 
L 165.339651 40.281136 
L 165.370008 40.281136 
L 165.370008 40.281136 
L 165.385522 40.572753 
L 165.409922 40.867527 
L 165.442863 41.165529 
L 165.480642 41.466829 
L 165.516909 41.771501 
L 165.545523 42.079623 
L 165.563971 42.391272 
L 165.574731 42.706531 
L 165.583371 43.025484 
L 165.595135 43.348219 
L 165.613098 43.674826 
L 165.639069 44.0054 
L 165.675164 44.340038 
L 165.723406 44.678841 
L 165.783765 45.021915 
L 165.85373 45.369367 
L 165.931177 45.721313 
L 166.01816 46.077868 
L 166.121673 46.439156 
L 166.250662 46.805304 
L 166.412573 47.176445 
L 166.612565 47.552716 
L 166.854467 47.934261 
L 167.140172 48.321231 
L 167.466753 48.713781 
L 167.824888 49.112076 
L 168.202171 49.516285 
L 168.589736 49.926587 
L 168.98606 50.343169 
L 169.393644 50.766225 
L 169.811024 51.195961 
L 170.227658 51.63259 
L 170.627865 52.076337 
L 171.003501 52.527439 
L 171.368811 52.986142 
L 171.768722 53.452708 
L 172.273996 53.927411 
L 172.961343 54.41054 
L 173.883673 54.9024 
L 175.044691 55.40331 
L 176.396252 55.913612 
L 177.866346 56.433664 
L 179.401425 56.963846 
L 180.989911 57.504559 
L 182.646603 58.056232 
L 184.374441 58.619318 
L 186.143603 59.194298 
L 187.910638 59.781687 
L 189.659122 60.382031 
L 191.422508 60.995915 
L 193.26893 61.623964 
L 195.262524 62.266847 
L 197.431634 62.925282 
L 199.763023 63.60004 
L 202.220721 64.29195 
L 204.777056 65.001908 
L 207.443808 65.730881 
L 210.292771 66.479914 
L 213.451859 67.250144 
L 217.064808 68.042805 
L 221.221381 68.859243 
L 225.890799 69.700929 
L 230.897581 70.569474 
L 235.955559 71.466649 
L 240.742653 72.394406 
L 244.980792 73.354904 
L 248.486967 74.350538 
L 251.175743 75.383977 
L 253.016956 76.458205 
L 253.978119 77.576576 
L 253.991101 78.742873 
L 252.964886 79.961389 
L 250.833606 81.237019 
L 247.608379 82.575382 
L 243.404718 83.982968 
L 238.434374 85.467332 
L 232.967789 87.037334 
L 227.286556 88.703464 
L 221.652214 90.478266 
L 216.310513 92.376912 
L 211.52617 94.417989 
L 207.616919 96.624613 
L 204.951418 99.026028 
L 203.903386 101.659984 
L 204.796187 104.576393 
L 207.884783 107.843189 
L 213.366221 111.556214 
L 221.307111 115.85695 
L 231.348262 120.967085 
L 242.231226 127.263579 
L 251.531115 135.469266 
L 256.118466 147.271876 
L 253.456732 168.575429 
L 243.054463 63033.68389 
L 226.997626 63033.68389 
L 209.048976 63033.68389 
L 192.899831 63033.68389 
L 180.749829 63033.68389 
L 172.966755 63033.68389 
z
" style="fill:#3274a1;stroke:#3f3f3f;stroke-width:1.2;"/>
   </g>
   <g id="PolyCollection_2">
    <path clip-path="url(#p1feab143e2)" d="M 392.304703 63033.68389 
L 392.223138 63033.68389 
L 392.018544 63033.68389 
L 391.138858 63033.68389 
L 388.324817 63033.68389 
L 381.570398 215.398045 
L 369.180744 192.529469 
L 351.449376 180.279853 
L 331.446173 171.862414 
L 314.021025 165.44239 
L 303.502135 160.251318 
L 301.500284 155.893447 
L 306.33588 152.137937 
L 314.411336 148.83831 
L 322.352544 145.895771 
L 328.572466 143.240523 
L 333.386575 140.821425 
L 337.684676 138.59988 
L 341.732976 136.546044 
L 345.294844 134.636364 
L 348.379343 132.851925 
L 351.49967 131.177304 
L 355.05826 129.599766 
L 358.804934 128.108667 
L 362.302236 126.695026 
L 365.458934 125.351191 
L 368.305595 124.070591 
L 370.748689 122.847541 
L 372.728805 121.677091 
L 374.341756 120.554901 
L 375.756754 119.47715 
L 377.149938 118.440452 
L 378.663855 117.441793 
L 380.279753 116.47848 
L 381.778791 115.548097 
L 382.933834 114.648467 
L 383.700933 113.777621 
L 384.252303 112.933774 
L 384.858098 112.115303 
L 385.659547 111.320726 
L 386.562986 110.548687 
L 387.387044 109.797943 
L 388.047628 109.06735 
L 388.57396 108.355855 
L 389.031059 107.662485 
L 389.45834 106.986339 
L 389.827462 106.326583 
L 390.071219 105.68244 
L 390.176473 105.053189 
L 390.214659 104.438156 
L 390.27747 103.836714 
L 390.390461 103.248274 
L 390.497399 102.672286 
L 390.555126 102.108234 
L 390.607795 101.555634 
L 390.728802 101.014029 
L 390.92865 100.482991 
L 391.153561 99.962115 
L 391.351076 99.45102 
L 391.497718 98.949345 
L 391.581048 98.456748 
L 391.607825 97.972908 
L 391.625503 97.497519 
L 391.689484 97.030289 
L 391.798832 96.570945 
L 391.899733 96.119223 
L 391.9642 95.674876 
L 392.017125 95.237667 
L 392.073948 94.807368 
L 392.110587 94.383767 
L 392.101373 93.966656 
L 392.047049 93.555841 
L 391.976368 93.151135 
L 391.931539 92.752357 
L 391.931701 92.359337 
L 391.958216 91.971912 
L 391.988567 91.589923 
L 392.020006 91.213221 
L 392.049778 90.841661 
L 392.067085 90.475104 
L 392.078618 90.113419 
L 392.107366 89.756476 
L 392.155221 89.404154 
L 392.196192 89.056333 
L 392.211153 88.712901 
L 392.205092 88.373749 
L 392.190695 88.03877 
L 392.177914 87.707863 
L 392.1762 87.380931 
L 392.187229 87.057879 
L 392.203558 86.738616 
L 392.220962 86.423055 
L 392.238275 86.11111 
L 392.250389 85.802699 
L 392.251943 85.497744 
L 392.243135 85.196167 
L 392.231604 84.897895 
L 392.228485 84.602856 
L 392.237247 84.310981 
L 392.250173 84.022202 
L 392.25907 83.736455 
L 392.268771 83.736455 
L 392.268771 83.736455 
L 392.277668 84.022202 
L 392.290594 84.310981 
L 392.299356 84.602856 
L 392.296237 84.897895 
L 392.284706 85.196167 
L 392.275898 85.497744 
L 392.277451 85.802699 
L 392.289566 86.11111 
L 392.306879 86.423055 
L 392.324283 86.738616 
L 392.340612 87.057879 
L 392.351641 87.380931 
L 392.349927 87.707863 
L 392.337146 88.03877 
L 392.322749 88.373749 
L 392.316688 88.712901 
L 392.331649 89.056333 
L 392.37262 89.404154 
L 392.420475 89.756476 
L 392.449222 90.113419 
L 392.460756 90.475104 
L 392.478063 90.841661 
L 392.507834 91.213221 
L 392.539274 91.589923 
L 392.569625 91.971912 
L 392.59614 92.359337 
L 392.596302 92.752357 
L 392.551473 93.151135 
L 392.480791 93.555841 
L 392.426468 93.966656 
L 392.417254 94.383767 
L 392.453893 94.807368 
L 392.510716 95.237667 
L 392.563641 95.674876 
L 392.628108 96.119223 
L 392.729009 96.570945 
L 392.838357 97.030289 
L 392.902338 97.497519 
L 392.920016 97.972908 
L 392.946793 98.456748 
L 393.030123 98.949345 
L 393.176765 99.45102 
L 393.37428 99.962115 
L 393.599191 100.482991 
L 393.799039 101.014029 
L 393.920046 101.555634 
L 393.972715 102.108234 
L 394.030442 102.672286 
L 394.13738 103.248274 
L 394.250371 103.836714 
L 394.313182 104.438156 
L 394.351368 105.053189 
L 394.456622 105.68244 
L 394.700379 106.326583 
L 395.069501 106.986339 
L 395.496782 107.662485 
L 395.953881 108.355855 
L 396.480213 109.06735 
L 397.140797 109.797943 
L 397.964855 110.548687 
L 398.868294 111.320726 
L 399.669743 112.115303 
L 400.275538 112.933774 
L 400.826908 113.777621 
L 401.594007 114.648467 
L 402.74905 115.548097 
L 404.248088 116.47848 
L 405.863986 117.441793 
L 407.377903 118.440452 
L 408.771087 119.47715 
L 410.186085 120.554901 
L 411.799036 121.677091 
L 413.779152 122.847541 
L 416.222246 124.070591 
L 419.068907 125.351191 
L 422.225605 126.695026 
L 425.722907 128.108667 
L 429.469581 129.599766 
L 433.028171 131.177304 
L 436.148498 132.851925 
L 439.232997 134.636364 
L 442.794865 136.546044 
L 446.843165 138.59988 
L 451.141266 140.821425 
L 455.955375 143.240523 
L 462.175297 145.895771 
L 470.116505 148.83831 
L 478.191961 152.137937 
L 483.027557 155.893447 
L 481.025706 160.251318 
L 470.506816 165.44239 
L 453.081668 171.862414 
L 433.078465 180.279853 
L 415.347097 192.529469 
L 402.957443 215.398045 
L 396.203024 63033.68389 
L 393.388982 63033.68389 
L 392.509297 63033.68389 
L 392.304703 63033.68389 
z
" style="fill:#e1812c;stroke:#3f3f3f;stroke-width:1.2;"/>
   </g>
   <g id="line2d_6">
    <path clip-path="url(#p1feab143e2)" d="M 165.35483 188.460425 
L 165.35483 50.028861 
" style="fill:none;stroke:#3f3f3f;stroke-linecap:round;stroke-width:1.2;"/>
   </g>
   <g id="line2d_7">
    <path clip-path="url(#p1feab143e2)" d="M 165.35483 108.31605 
L 165.35483 70.543358 
" style="fill:none;stroke:#3f3f3f;stroke-linecap:round;stroke-width:3.6;"/>
   </g>
   <g id="line2d_8">
    <path clip-path="url(#p1feab143e2)" d="M 392.26392 338.753864 
L 392.26392 111.11431 
" style="fill:none;stroke:#3f3f3f;stroke-linecap:round;stroke-width:1.2;"/>
   </g>
   <g id="line2d_9">
    <path clip-path="url(#p1feab143e2)" d="M 392.26392 156.748624 
L 392.26392 129.319704 
" style="fill:none;stroke:#3f3f3f;stroke-linecap:round;stroke-width:3.6;"/>
   </g>
   <g id="patch_3">
    <path d="M 54.169375 353.6775 
L 54.169375 25.3575 
" style="fill:none;stroke:#cccccc;stroke-linecap:square;stroke-linejoin:miter;"/>
   </g>
   <g id="patch_4">
    <path d="M 503.449375 353.6775 
L 503.449375 25.3575 
" style="fill:none;stroke:#cccccc;stroke-linecap:square;stroke-linejoin:miter;"/>
   </g>
   <g id="patch_5">
    <path d="M 54.169375 353.6775 
L 503.449375 353.6775 
" style="fill:none;stroke:#cccccc;stroke-linecap:square;stroke-linejoin:miter;"/>
   </g>
   <g id="patch_6">
    <path d="M 54.169375 25.3575 
L 503.449375 25.3575 
" style="fill:none;stroke:#cccccc;stroke-linecap:square;stroke-linejoin:miter;"/>
   </g>
   <g id="PathCollection_1">
    <defs>
     <path d="M 0 1.2 
C 0.318244 1.2 0.623496 1.07356 0.848528 0.848528 
C 1.07356 0.623496 1.2 0.318244 1.2 0 
C 1.2 -0.318244 1.07356 -0.623496 0.848528 -0.848528 
C 0.623496 -1.07356 0.318244 -1.2 0 -1.2 
C -0.318244 -1.2 -0.623496 -1.07356 -0.848528 -0.848528 
C -1.07356 -0.623496 -1.2 -0.318244 -1.2 0 
C -1.2 0.318244 -1.07356 0.623496 -0.848528 0.848528 
C -0.623496 1.07356 -0.318244 1.2 0 1.2 
z
" id="m60aed6d142" style="stroke:#3f3f3f;stroke-width:0.8;"/>
    </defs>
    <g clip-path="url(#p1feab143e2)">
     <use style="fill:#ffffff;stroke:#3f3f3f;stroke-width:0.8;" x="165.35483" xlink:href="#m60aed6d142" y="80.168635"/>
    </g>
   </g>
   <g id="PathCollection_2">
    <g clip-path="url(#p1feab143e2)">
     <use style="fill:#ffffff;stroke:#3f3f3f;stroke-width:0.8;" x="392.26392" xlink:href="#m60aed6d142" y="142.62753"/>
    </g>
   </g>
   <g id="patch_7">
    <path d="M 165.35483 68.894088 
Q 165.35483 72.291816 165.35483 74.795116 
" style="fill:none;stroke:#808080;stroke-linecap:round;stroke-width:0.8;"/>
    <path d="M 167.35483 70.795116 
L 165.35483 74.795116 
L 163.35483 70.795116 
" style="fill:none;stroke:#808080;stroke-linecap:round;stroke-width:0.8;"/>
   </g>
   <g id="text_10">
    <g id="patch_8">
     <path d="M 127.988423 66.492324 
L 202.721236 66.492324 
Q 205.721236 66.492324 205.721236 63.492324 
L 205.721236 42.616387 
Q 205.721236 39.616387 202.721236 39.616387 
L 127.988423 39.616387 
Q 124.988423 39.616387 124.988423 42.616387 
L 124.988423 63.492324 
Q 124.988423 66.492324 127.988423 66.492324 
z
" style="fill:#ffffff;opacity:0.8;stroke:#ffffff;stroke-linejoin:miter;stroke-width:0.8;"/>
    </g>
    <text style="fill:#262626;font-family:DejaVu Sans;font-size:10px;font-stretch:normal;font-style:normal;font-weight:normal;" transform="translate(132.551705 50.214824)">Mean: 26607</text>
    <text style="fill:#262626;font-family:DejaVu Sans;font-size:10px;font-stretch:normal;font-style:normal;font-weight:normal;" transform="translate(127.988423 61.412637)">Median: 26716</text>
   </g>
   <g id="patch_9">
    <path d="M 392.26392 125.08715 
Q 392.26392 128.484877 392.26392 130.988177 
" style="fill:none;stroke:#808080;stroke-linecap:round;stroke-width:0.8;"/>
    <path d="M 394.26392 126.988177 
L 392.26392 130.988177 
L 390.26392 126.988177 
" style="fill:none;stroke:#808080;stroke-linecap:round;stroke-width:0.8;"/>
   </g>
   <g id="text_11">
    <g id="patch_10">
     <path d="M 358.078764 122.685386 
L 426.449077 122.685386 
Q 429.449077 122.685386 429.449077 119.685386 
L 429.449077 98.809448 
Q 429.449077 95.809448 426.449077 95.809448 
L 358.078764 95.809448 
Q 355.078764 95.809448 355.078764 98.809448 
L 355.078764 119.685386 
Q 355.078764 122.685386 358.078764 122.685386 
z
" style="fill:#ffffff;opacity:0.8;stroke:#ffffff;stroke-linejoin:miter;stroke-width:0.8;"/>
    </g>
    <text style="fill:#262626;font-family:DejaVu Sans;font-size:10px;font-stretch:normal;font-style:normal;font-weight:normal;" transform="translate(362.642045 106.407886)">Mean: 3376</text>
    <text style="fill:#262626;font-family:DejaVu Sans;font-size:10px;font-stretch:normal;font-style:normal;font-weight:normal;" transform="translate(358.078764 117.605698)">Median: 2693</text>
   </g>
   <g id="text_12">
    <text style="fill:#262626;font-family:DejaVu Sans;font-size:16px;font-stretch:normal;font-style:normal;font-weight:normal;text-anchor:middle;" transform="rotate(-0, 278.809375, 19.3575)" x="278.809375" y="19.3575">Total UMIs per Cell</text>
   </g>
   <g id="PathCollection_3">
    <defs>
     <path d="M 0 5 
C 1.326016 5 2.597899 4.473168 3.535534 3.535534 
C 4.473168 2.597899 5 1.326016 5 0 
C 5 -1.326016 4.473168 -2.597899 3.535534 -3.535534 
C 2.597899 -4.473168 1.326016 -5 0 -5 
C -1.326016 -5 -2.597899 -4.473168 -3.535534 -3.535534 
C -4.473168 -2.597899 -5 -1.326016 -5 0 
C -5 1.326016 -4.473168 2.597899 -3.535534 3.535534 
C -2.597899 4.473168 -1.326016 5 0 5 
z
" id="m30aa42894d" style="stroke:#000000;stroke-width:0.8;"/>
    </defs>
    <g clip-path="url(#p1feab143e2)">
     <use style="fill:#ff0000;stroke:#000000;stroke-width:0.8;" x="165.35483" xlink:href="#m30aa42894d" y="80.280012"/>
    </g>
   </g>
   <g id="PathCollection_4">
    <g clip-path="url(#p1feab143e2)">
     <use style="fill:#ff0000;stroke:#000000;stroke-width:0.8;" x="392.26392" xlink:href="#m30aa42894d" y="136.473073"/>
    </g>
   </g>
  </g>
 </g>
 <defs>
  <clipPath id="p1feab143e2">
   <rect height="328.32" width="449.28" x="54.169375" y="25.3575"/>
  </clipPath>
 </defs>
</svg>
