<?xml version="1.0" encoding="utf-8" standalone="no"?>
<!DOCTYPE svg PUBLIC "-//W3C//DTD SVG 1.1//EN"
  "http://www.w3.org/Graphics/SVG/1.1/DTD/svg11.dtd">
<svg height="398.340625pt" version="1.1" viewBox="0 0 510.649375 398.340625" width="510.649375pt" xmlns="http://www.w3.org/2000/svg" xmlns:xlink="http://www.w3.org/1999/xlink">
 <metadata>
  <rdf:RDF xmlns:cc="http://creativecommons.org/ns#" xmlns:dc="http://purl.org/dc/elements/1.1/" xmlns:rdf="http://www.w3.org/1999/02/22-rdf-syntax-ns#">
   <cc:Work>
    <dc:type rdf:resource="http://purl.org/dc/dcmitype/StillImage"/>
    <dc:date>2025-10-09T17:48:38.029732</dc:date>
    <dc:format>image/svg+xml</dc:format>
    <dc:creator>
     <cc:Agent>
      <dc:title>Matplotlib v3.4.3, https://matplotlib.org/</dc:title>
     </cc:Agent>
    </dc:creator>
   </cc:Work>
  </rdf:RDF>
 </metadata>
 <defs>
  <style type="text/css">*{stroke-linecap:butt;stroke-linejoin:round;}</style>
 </defs>
 <g id="figure_1">
  <g id="patch_1">
   <path d="M 0 398.340625 
L 510.649375 398.340625 
L 510.649375 0 
L 0 0 
z
" style="fill:#ffffff;"/>
  </g>
  <g id="axes_1">
   <g id="patch_2">
    <path d="M 54.169375 353.6775 
L 503.449375 353.6775 
L 503.449375 25.3575 
L 54.169375 25.3575 
z
" style="fill:#ffffff;"/>
   </g>
   <g id="matplotlib.axis_1">
    <g id="xtick_1">
     <g id="text_1">
      <text style="fill:#262626;font-family:DejaVu Sans;font-size:12px;font-stretch:normal;font-style:normal;font-weight:normal;text-anchor:middle;" transform="rotate(-0, 165.35483, 371.095625)" x="165.35483" y="371.095625">10X Genomics</text>
     </g>
    </g>
    <g id="xtick_2">
     <g id="text_2">
      <text style="fill:#262626;font-family:DejaVu Sans;font-size:12px;font-stretch:normal;font-style:normal;font-weight:normal;text-anchor:middle;" transform="rotate(-0, 392.26392, 371.095625)" x="392.26392" y="371.095625">ChronoSeq</text>
     </g>
    </g>
    <g id="text_3">
     <text style="fill:#262626;font-family:DejaVu Sans;font-size:14px;font-stretch:normal;font-style:normal;font-weight:normal;text-anchor:middle;" transform="rotate(-0, 278.809375, 388.229062)" x="278.809375" y="388.229062">technology</text>
    </g>
   </g>
   <g id="matplotlib.axis_2">
    <g id="ytick_1">
     <g id="line2d_1">
      <path clip-path="url(#p4bded34ca4)" d="M 54.169375 282.300449 
L 503.449375 282.300449 
" style="fill:none;stroke:#cccccc;stroke-linecap:round;stroke-width:0.8;"/>
     </g>
     <g id="text_4">
      <!-- $\mathdefault{10^{1}}$ -->
      <g style="fill:#262626;" transform="translate(24.749375 286.859511)">
       <text>
        <tspan style="font-family:DejaVu Sans;font-size:12px;font-style:book;font-weight:book;" x="0 7.634766" y="-0.28125">10</tspan>
        <tspan style="font-family:DejaVu Sans;font-size:8.4px;font-style:book;font-weight:book;" x="15.384375" y="-4.875">1</tspan>
       </text>
      </g>
     </g>
    </g>
    <g id="ytick_2">
     <g id="line2d_2">
      <path clip-path="url(#p4bded34ca4)" d="M 54.169375 201.533871 
L 503.449375 201.533871 
" style="fill:none;stroke:#cccccc;stroke-linecap:round;stroke-width:0.8;"/>
     </g>
     <g id="text_5">
      <!-- $\mathdefault{10^{2}}$ -->
      <g style="fill:#262626;" transform="translate(24.749375 206.092934)">
       <text>
        <tspan style="font-family:DejaVu Sans;font-size:12px;font-style:book;font-weight:book;" x="0 7.634766" y="-0.171875">10</tspan>
        <tspan style="font-family:DejaVu Sans;font-size:8.4px;font-style:book;font-weight:book;" x="15.384375" y="-4.765625">2</tspan>
       </text>
      </g>
     </g>
    </g>
    <g id="ytick_3">
     <g id="line2d_3">
      <path clip-path="url(#p4bded34ca4)" d="M 54.169375 120.767294 
L 503.449375 120.767294 
" style="fill:none;stroke:#cccccc;stroke-linecap:round;stroke-width:0.8;"/>
     </g>
     <g id="text_6">
      <!-- $\mathdefault{10^{3}}$ -->
      <g style="fill:#262626;" transform="translate(24.749375 125.326356)">
       <text>
        <tspan style="font-family:DejaVu Sans;font-size:12px;font-style:book;font-weight:book;" x="0 7.634766" y="-0.171875">10</tspan>
        <tspan style="font-family:DejaVu Sans;font-size:8.4px;font-style:book;font-weight:book;" x="15.384375" y="-4.765625">3</tspan>
       </text>
      </g>
     </g>
    </g>
    <g id="ytick_4">
     <g id="line2d_4">
      <path clip-path="url(#p4bded34ca4)" d="M 54.169375 40.000716 
L 503.449375 40.000716 
" style="fill:none;stroke:#cccccc;stroke-linecap:round;stroke-width:0.8;"/>
     </g>
     <g id="text_7">
      <!-- $\mathdefault{10^{4}}$ -->
      <g style="fill:#262626;" transform="translate(24.749375 44.559779)">
       <text>
        <tspan style="font-family:DejaVu Sans;font-size:12px;font-style:book;font-weight:book;" x="0 7.634766" y="-0.28125">10</tspan>
        <tspan style="font-family:DejaVu Sans;font-size:8.4px;font-style:book;font-weight:book;" x="15.384375" y="-4.875">4</tspan>
       </text>
      </g>
     </g>
    </g>
    <g id="ytick_5"/>
    <g id="ytick_6"/>
    <g id="ytick_7"/>
    <g id="ytick_8"/>
    <g id="ytick_9"/>
    <g id="ytick_10"/>
    <g id="ytick_11"/>
    <g id="ytick_12"/>
    <g id="ytick_13"/>
    <g id="ytick_14"/>
    <g id="ytick_15"/>
    <g id="ytick_16"/>
    <g id="ytick_17"/>
    <g id="ytick_18"/>
    <g id="ytick_19"/>
    <g id="ytick_20"/>
    <g id="ytick_21"/>
    <g id="ytick_22"/>
    <g id="ytick_23"/>
    <g id="ytick_24"/>
    <g id="ytick_25"/>
    <g id="ytick_26"/>
    <g id="ytick_27"/>
    <g id="ytick_28"/>
    <g id="ytick_29"/>
    <g id="ytick_30"/>
    <g id="ytick_31"/>
    <g id="ytick_32"/>
    <g id="ytick_33"/>
    <g id="ytick_34"/>
    <g id="ytick_35"/>
    <g id="ytick_36"/>
    <g id="text_8">
     <text style="fill:#262626;font-family:DejaVu Sans;font-size:14px;font-stretch:normal;font-style:normal;font-weight:normal;text-anchor:middle;" transform="rotate(-90, 17.837813, 189.5175)" x="17.837813" y="189.5175">Number of Genes</text>
    </g>
   </g>
   <g id="PolyCollection_1">
    <path clip-path="url(#p4bded34ca4)" d="M 167.477058 81129.644553 
L 163.232601 81129.644553 
L 161.66828 81129.644553 
L 159.310284 81129.644553 
L 155.996162 81129.644553 
L 151.664978 81129.644553 
L 146.422992 81129.644553 
L 140.584298 81129.644553 
L 134.660802 265.368376 
L 129.288754 194.028501 
L 125.102238 172.088403 
L 122.588068 158.694206 
L 121.969117 149.024826 
L 123.156286 141.453085 
L 125.784637 135.229158 
L 129.318047 129.944946 
L 133.183533 125.353556 
L 136.891072 121.294194 
L 140.107359 117.656266 
L 142.674012 114.36044 
L 144.581037 111.347869 
L 145.917092 108.573695 
L 146.817654 106.002938 
L 147.424659 103.607795 
L 147.861981 101.365799 
L 148.224542 99.258537 
L 148.576343 97.270728 
L 148.953199 95.389554 
L 149.36778 93.604154 
L 149.815924 91.905246 
L 150.283642 90.284837 
L 150.753867 88.735991 
L 151.211603 87.252654 
L 151.646247 85.829508 
L 152.050669 84.461859 
L 152.417859 83.14554 
L 152.73678 81.876837 
L 152.989216 80.652425 
L 153.148588 79.469316 
L 153.18065 78.324814 
L 153.045146 77.216479 
L 152.697508 76.142094 
L 152.090367 75.099642 
L 151.175424 74.087279 
L 149.906436 73.103316 
L 148.243501 72.146204 
L 146.157751 71.214516 
L 143.634892 70.306937 
L 140.676278 69.422249 
L 137.297359 68.559327 
L 133.52469 67.717124 
L 129.393252 66.894671 
L 124.945289 66.09106 
L 120.230589 65.305449 
L 115.307162 64.537049 
L 110.241399 63.785121 
L 105.107935 63.048975 
L 99.990597 62.327961 
L 94.98574 61.621469 
L 90.207515 60.928927 
L 85.792107 60.249794 
L 81.896472 59.583561 
L 78.688094 58.929746 
L 76.325792 58.287896 
L 74.935929 57.65758 
L 74.591193 57.038391 
L 75.298864 56.429943 
L 77.002218 55.831869 
L 79.594113 55.243822 
L 82.93789 54.665472 
L 86.888951 54.096503 
L 91.311214 53.536615 
L 96.085367 52.985525 
L 101.109248 52.442959 
L 106.293368 51.908658 
L 111.555504 51.382373 
L 116.817403 50.863868 
L 122.004486 50.352917 
L 127.047523 49.849301 
L 131.884466 49.352814 
L 136.461241 48.863257 
L 140.731553 48.380438 
L 144.656727 47.904175 
L 148.206536 47.434292 
L 151.361109 46.970621 
L 154.113086 46.512999 
L 156.468757 46.06127 
L 158.447353 45.615285 
L 160.078495 45.1749 
L 161.398571 44.739975 
L 162.447071 44.310377 
L 163.263649 43.885976 
L 163.886199 43.46665 
L 164.349794 43.052277 
L 164.686132 42.642742 
L 164.923226 42.237933 
L 165.085189 41.837743 
L 165.192134 41.442068 
L 165.260224 41.050806 
L 165.301928 40.66386 
L 165.326442 40.281136 
L 165.383217 40.281136 
L 165.383217 40.281136 
L 165.407731 40.66386 
L 165.449435 41.050806 
L 165.517525 41.442068 
L 165.62447 41.837743 
L 165.786434 42.237933 
L 166.023527 42.642742 
L 166.359865 43.052277 
L 166.82346 43.46665 
L 167.44601 43.885976 
L 168.262588 44.310377 
L 169.311088 44.739975 
L 170.631164 45.1749 
L 172.262306 45.615285 
L 174.240902 46.06127 
L 176.596573 46.512999 
L 179.348551 46.970621 
L 182.503124 47.434292 
L 186.052932 47.904175 
L 189.978107 48.380438 
L 194.248418 48.863257 
L 198.825193 49.352814 
L 203.662136 49.849301 
L 208.705173 50.352917 
L 213.892256 50.863868 
L 219.154155 51.382373 
L 224.416291 51.908658 
L 229.600411 52.442959 
L 234.624292 52.985525 
L 239.398445 53.536615 
L 243.820708 54.096503 
L 247.771769 54.665472 
L 251.115546 55.243822 
L 253.707441 55.831869 
L 255.410795 56.429943 
L 256.118466 57.038391 
L 255.77373 57.65758 
L 254.383867 58.287896 
L 252.021565 58.929746 
L 248.813188 59.583561 
L 244.917552 60.249794 
L 240.502144 60.928927 
L 235.723919 61.621469 
L 230.719062 62.327961 
L 225.601725 63.048975 
L 220.46826 63.785121 
L 215.402497 64.537049 
L 210.47907 65.305449 
L 205.76437 66.09106 
L 201.316407 66.894671 
L 197.184969 67.717124 
L 193.4123 68.559327 
L 190.033381 69.422249 
L 187.074767 70.306937 
L 184.551908 71.214516 
L 182.466159 72.146204 
L 180.803224 73.103316 
L 179.534235 74.087279 
L 178.619292 75.099642 
L 178.012152 76.142094 
L 177.664513 77.216479 
L 177.529009 78.324814 
L 177.561071 79.469316 
L 177.720443 80.652425 
L 177.972879 81.876837 
L 178.2918 83.14554 
L 178.65899 84.461859 
L 179.063412 85.829508 
L 179.498056 87.252654 
L 179.955792 88.735991 
L 180.426017 90.284837 
L 180.893735 91.905246 
L 181.341879 93.604154 
L 181.75646 95.389554 
L 182.133316 97.270728 
L 182.485117 99.258537 
L 182.847678 101.365799 
L 183.285 103.607795 
L 183.892006 106.002938 
L 184.792567 108.573695 
L 186.128622 111.347869 
L 188.035648 114.36044 
L 190.6023 117.656266 
L 193.818587 121.294194 
L 197.526126 125.353556 
L 201.391612 129.944946 
L 204.925022 135.229158 
L 207.553373 141.453085 
L 208.740542 149.024826 
L 208.121591 158.694206 
L 205.607421 172.088403 
L 201.420906 194.028501 
L 196.048857 265.368376 
L 190.125361 81129.644553 
L 184.286667 81129.644553 
L 179.044681 81129.644553 
L 174.713497 81129.644553 
L 171.399375 81129.644553 
L 169.041379 81129.644553 
L 167.477058 81129.644553 
z
" style="fill:#3274a1;stroke:#3f3f3f;stroke-width:1.2;"/>
   </g>
   <g id="PolyCollection_2">
    <path clip-path="url(#p4bded34ca4)" d="M 392.270973 81129.644553 
L 392.256868 81129.644553 
L 392.247153 81129.644553 
L 392.229807 81129.644553 
L 392.199567 81129.644553 
L 392.136807 81129.644553 
L 391.981802 230.029084 
L 391.598819 200.191932 
L 390.749858 184.306065 
L 389.113166 173.412082 
L 386.369284 165.111807 
L 382.312627 158.404662 
L 376.889459 152.776466 
L 370.128801 147.927715 
L 362.082291 143.668549 
L 352.8989 139.871005 
L 342.964258 136.444733 
L 332.902846 133.323558 
L 323.399799 130.457559 
L 315.039097 127.808148 
L 308.313763 125.344876 
L 303.688279 123.043297 
L 301.500284 120.883483 
L 301.737554 118.84898 
L 303.951213 116.926041 
L 307.426734 115.103063 
L 311.441911 113.370166 
L 315.400515 111.718865 
L 318.843081 110.14182 
L 321.485615 108.632638 
L 323.335375 107.185721 
L 324.72818 105.796132 
L 326.133721 104.459501 
L 327.829297 103.171941 
L 329.725067 101.929974 
L 331.501125 100.730483 
L 332.933107 99.570657 
L 334.121388 98.447957 
L 335.43719 97.36008 
L 337.259721 96.304931 
L 339.740125 95.280597 
L 342.74453 94.28533 
L 345.951282 93.317525 
L 349.013567 92.375708 
L 351.723687 91.458519 
L 354.102979 90.564703 
L 356.333244 89.693099 
L 358.563221 88.842628 
L 360.776163 88.012291 
L 362.856746 87.201157 
L 364.757515 86.408356 
L 366.551009 85.633079 
L 368.325298 84.874568 
L 370.080434 84.132112 
L 371.742837 83.405047 
L 373.254632 82.692747 
L 374.639302 81.994624 
L 375.987164 81.310125 
L 377.373028 80.638728 
L 378.789984 79.979942 
L 380.173972 79.3333 
L 381.480012 78.698364 
L 382.707534 78.074718 
L 383.854557 77.461966 
L 384.878152 76.859735 
L 385.71728 76.267669 
L 386.349948 75.685432 
L 386.82302 75.112701 
L 387.223785 74.549172 
L 387.616966 73.994553 
L 388.007934 73.448568 
L 388.368856 72.910951 
L 388.694423 72.38145 
L 389.021918 71.859823 
L 389.394855 71.34584 
L 389.814098 70.839279 
L 390.232565 70.339931 
L 390.596397 69.847591 
L 390.881492 69.362066 
L 391.08982 68.883171 
L 391.228178 68.410725 
L 391.306814 67.944559 
L 391.352806 67.484507 
L 391.405073 67.03041 
L 391.487225 66.582118 
L 391.592641 66.139482 
L 391.700634 65.702362 
L 391.798731 65.270623 
L 391.884246 64.844134 
L 391.954409 64.422768 
L 392.005669 64.006403 
L 392.040031 63.594923 
L 392.06461 63.188214 
L 392.084744 62.786167 
L 392.102065 62.388676 
L 392.119415 61.995639 
L 392.142335 61.606957 
L 392.173044 61.222535 
L 392.20627 60.842281 
L 392.233702 60.466104 
L 392.251012 60.093919 
L 392.276828 60.093919 
L 392.276828 60.093919 
L 392.294139 60.466104 
L 392.321571 60.842281 
L 392.354797 61.222535 
L 392.385506 61.606957 
L 392.408425 61.995639 
L 392.425776 62.388676 
L 392.443097 62.786167 
L 392.463231 63.188214 
L 392.48781 63.594923 
L 392.522172 64.006403 
L 392.573432 64.422768 
L 392.643595 64.844134 
L 392.72911 65.270623 
L 392.827207 65.702362 
L 392.9352 66.139482 
L 393.040616 66.582118 
L 393.122768 67.03041 
L 393.175035 67.484507 
L 393.221027 67.944559 
L 393.299663 68.410725 
L 393.438021 68.883171 
L 393.646349 69.362066 
L 393.931444 69.847591 
L 394.295276 70.339931 
L 394.713743 70.839279 
L 395.132986 71.34584 
L 395.505923 71.859823 
L 395.833418 72.38145 
L 396.158985 72.910951 
L 396.519907 73.448568 
L 396.910875 73.994553 
L 397.304056 74.549172 
L 397.704821 75.112701 
L 398.177893 75.685432 
L 398.810561 76.267669 
L 399.649689 76.859735 
L 400.673284 77.461966 
L 401.820307 78.074718 
L 403.047829 78.698364 
L 404.353869 79.3333 
L 405.737857 79.979942 
L 407.154813 80.638728 
L 408.540676 81.310125 
L 409.888539 81.994624 
L 411.273209 82.692747 
L 412.785004 83.405047 
L 414.447407 84.132112 
L 416.202542 84.874568 
L 417.976831 85.633079 
L 419.770326 86.408356 
L 421.671095 87.201157 
L 423.751678 88.012291 
L 425.96462 88.842628 
L 428.194596 89.693099 
L 430.424862 90.564703 
L 432.804154 91.458519 
L 435.514274 92.375708 
L 438.576559 93.317525 
L 441.783311 94.28533 
L 444.787716 95.280597 
L 447.26812 96.304931 
L 449.09065 97.36008 
L 450.406453 98.447957 
L 451.594734 99.570657 
L 453.026716 100.730483 
L 454.802773 101.929974 
L 456.698544 103.171941 
L 458.39412 104.459501 
L 459.799661 105.796132 
L 461.192466 107.185721 
L 463.042226 108.632638 
L 465.68476 110.14182 
L 469.127325 111.718865 
L 473.08593 113.370166 
L 477.101107 115.103063 
L 480.576628 116.926041 
L 482.790287 118.84898 
L 483.027557 120.883483 
L 480.839562 123.043297 
L 476.214078 125.344876 
L 469.488744 127.808148 
L 461.128042 130.457559 
L 451.624995 133.323558 
L 441.563583 136.444733 
L 431.628941 139.871005 
L 422.44555 143.668549 
L 414.39904 147.927715 
L 407.638382 152.776466 
L 402.215214 158.404662 
L 398.158557 165.111807 
L 395.414675 173.412082 
L 393.777983 184.306065 
L 392.929022 200.191932 
L 392.546039 230.029084 
L 392.391034 81129.644553 
L 392.328274 81129.644553 
L 392.298033 81129.644553 
L 392.280688 81129.644553 
L 392.270973 81129.644553 
z
" style="fill:#e1812c;stroke:#3f3f3f;stroke-width:1.2;"/>
   </g>
   <g id="line2d_5">
    <path clip-path="url(#p4bded34ca4)" d="M 165.35483 192.601919 
L 165.35483 43.486562 
" style="fill:none;stroke:#3f3f3f;stroke-linecap:round;stroke-width:1.2;"/>
   </g>
   <g id="line2d_6">
    <path clip-path="url(#p4bded34ca4)" d="M 165.35483 81.502864 
L 165.35483 55.07331 
" style="fill:none;stroke:#3f3f3f;stroke-linecap:round;stroke-width:3.6;"/>
   </g>
   <g id="line2d_7">
    <path clip-path="url(#p4bded34ca4)" d="M 392.26392 338.753864 
L 392.26392 74.31134 
" style="fill:none;stroke:#3f3f3f;stroke-linecap:round;stroke-width:1.2;"/>
   </g>
   <g id="line2d_8">
    <path clip-path="url(#p4bded34ca4)" d="M 392.26392 120.107093 
L 392.26392 94.476507 
" style="fill:none;stroke:#3f3f3f;stroke-linecap:round;stroke-width:3.6;"/>
   </g>
   <g id="patch_3">
    <path d="M 54.169375 353.6775 
L 54.169375 25.3575 
" style="fill:none;stroke:#cccccc;stroke-linecap:square;stroke-linejoin:miter;"/>
   </g>
   <g id="patch_4">
    <path d="M 503.449375 353.6775 
L 503.449375 25.3575 
" style="fill:none;stroke:#cccccc;stroke-linecap:square;stroke-linejoin:miter;"/>
   </g>
   <g id="patch_5">
    <path d="M 54.169375 353.6775 
L 503.449375 353.6775 
" style="fill:none;stroke:#cccccc;stroke-linecap:square;stroke-linejoin:miter;"/>
   </g>
   <g id="patch_6">
    <path d="M 54.169375 25.3575 
L 503.449375 25.3575 
" style="fill:none;stroke:#cccccc;stroke-linecap:square;stroke-linejoin:miter;"/>
   </g>
   <g id="PathCollection_1">
    <defs>
     <path d="M 0 1.2 
C 0.318244 1.2 0.623496 1.07356 0.848528 0.848528 
C 1.07356 0.623496 1.2 0.318244 1.2 0 
C 1.2 -0.318244 1.07356 -0.623496 0.848528 -0.848528 
C 0.623496 -1.07356 0.318244 -1.2 0 -1.2 
C -0.318244 -1.2 -0.623496 -1.07356 -0.848528 -0.848528 
C -1.07356 -0.623496 -1.2 -0.318244 -1.2 0 
C -1.2 0.318244 -1.07356 0.623496 -0.848528 0.848528 
C -0.623496 1.07356 -0.318244 1.2 0 1.2 
z
" id="me3948093ce" style="stroke:#3f3f3f;stroke-width:0.8;"/>
    </defs>
    <g clip-path="url(#p4bded34ca4)">
     <use style="fill:#ffffff;stroke:#3f3f3f;stroke-width:0.8;" x="165.35483" xlink:href="#me3948093ce" y="60.020707"/>
    </g>
   </g>
   <g id="PathCollection_2">
    <g clip-path="url(#p4bded34ca4)">
     <use style="fill:#ffffff;stroke:#3f3f3f;stroke-width:0.8;" x="392.26392" xlink:href="#me3948093ce" y="106.662122"/>
    </g>
   </g>
   <g id="patch_7">
    <path d="M 165.35483 48.997525 
Q 165.35483 54.74316 165.35483 59.594367 
" style="fill:none;stroke:#808080;stroke-linecap:round;stroke-width:0.8;"/>
    <path d="M 167.35483 55.594367 
L 165.35483 59.594367 
L 163.35483 55.594367 
" style="fill:none;stroke:#808080;stroke-linecap:round;stroke-width:0.8;"/>
   </g>
   <g id="text_9">
    <g id="patch_8">
     <path d="M 131.169673 46.597663 
L 199.539986 46.597663 
Q 202.539986 46.597663 202.539986 43.597663 
L 202.539986 22.721725 
Q 202.539986 19.721725 199.539986 19.721725 
L 131.169673 19.721725 
Q 128.169673 19.721725 128.169673 22.721725 
L 128.169673 43.597663 
Q 128.169673 46.597663 131.169673 46.597663 
z
" style="fill:#ffffff;opacity:0.8;stroke:#ffffff;stroke-linejoin:miter;stroke-width:0.8;"/>
    </g>
    <text style="fill:#262626;font-family:DejaVu Sans;font-size:10px;font-stretch:normal;font-style:normal;font-weight:normal;" transform="translate(135.732955 30.320163)">Mean: 4788</text>
    <text style="fill:#262626;font-family:DejaVu Sans;font-size:10px;font-stretch:normal;font-style:normal;font-weight:normal;" transform="translate(131.169673 41.517975)">Median: 5651</text>
   </g>
   <g id="patch_9">
    <path d="M 392.26392 86.552959 
Q 392.26392 92.298594 392.26392 97.149801 
" style="fill:none;stroke:#808080;stroke-linecap:round;stroke-width:0.8;"/>
    <path d="M 394.26392 93.149801 
L 392.26392 97.149801 
L 390.26392 93.149801 
" style="fill:none;stroke:#808080;stroke-linecap:round;stroke-width:0.8;"/>
   </g>
   <g id="text_10">
    <g id="patch_10">
     <path d="M 358.078764 84.153097 
L 426.449077 84.153097 
Q 429.449077 84.153097 429.449077 81.153097 
L 429.449077 60.277159 
Q 429.449077 57.277159 426.449077 57.277159 
L 358.078764 57.277159 
Q 355.078764 57.277159 355.078764 60.277159 
L 355.078764 81.153097 
Q 355.078764 84.153097 358.078764 84.153097 
z
" style="fill:#ffffff;opacity:0.8;stroke:#ffffff;stroke-linejoin:miter;stroke-width:0.8;"/>
    </g>
    <text style="fill:#262626;font-family:DejaVu Sans;font-size:10px;font-stretch:normal;font-style:normal;font-weight:normal;" transform="translate(362.642045 67.875597)">Mean: 1641</text>
    <text style="fill:#262626;font-family:DejaVu Sans;font-size:10px;font-stretch:normal;font-style:normal;font-weight:normal;" transform="translate(358.078764 79.073409)">Median: 1495</text>
   </g>
   <g id="text_11">
    <text style="fill:#262626;font-family:DejaVu Sans;font-size:16px;font-stretch:normal;font-style:normal;font-weight:normal;text-anchor:middle;" transform="rotate(-0, 278.809375, 19.3575)" x="278.809375" y="19.3575">Genes Detected per Cell</text>
   </g>
   <g id="PathCollection_3">
    <defs>
     <path d="M 0 5 
C 1.326016 5 2.597899 4.473168 3.535534 3.535534 
C 4.473168 2.597899 5 1.326016 5 0 
C 5 -1.326016 4.473168 -2.597899 3.535534 -3.535534 
C 2.597899 -4.473168 1.326016 -5 0 -5 
C -1.326016 -5 -2.597899 -4.473168 -3.535534 -3.535534 
C -4.473168 -2.597899 -5 -1.326016 -5 0 
C -5 1.326016 -4.473168 2.597899 -3.535534 3.535534 
C -2.597899 4.473168 -1.326016 5 0 5 
z
" id="md88b6c47da" style="stroke:#000000;stroke-width:0.8;"/>
    </defs>
    <g clip-path="url(#p4bded34ca4)">
     <use style="fill:#ff0000;stroke:#000000;stroke-width:0.8;" x="165.35483" xlink:href="#md88b6c47da" y="65.831138"/>
    </g>
   </g>
   <g id="PathCollection_4">
    <g clip-path="url(#p4bded34ca4)">
     <use style="fill:#ff0000;stroke:#000000;stroke-width:0.8;" x="392.26392" xlink:href="#md88b6c47da" y="103.386572"/>
    </g>
   </g>
  </g>
 </g>
 <defs>
  <clipPath id="p4bded34ca4">
   <rect height="328.32" width="449.28" x="54.169375" y="25.3575"/>
  </clipPath>
 </defs>
</svg>
