<?xml version="1.0" encoding="utf-8" standalone="no"?>
<!DOCTYPE svg PUBLIC "-//W3C//DTD SVG 1.1//EN"
  "http://www.w3.org/Graphics/SVG/1.1/DTD/svg11.dtd">
<svg height="563.250125pt" version="1.1" viewBox="0 0 852.920666 563.250125" width="852.920666pt" xmlns="http://www.w3.org/2000/svg" xmlns:xlink="http://www.w3.org/1999/xlink">
 <metadata>
  <rdf:RDF xmlns:cc="http://creativecommons.org/ns#" xmlns:dc="http://purl.org/dc/elements/1.1/" xmlns:rdf="http://www.w3.org/1999/02/22-rdf-syntax-ns#">
   <cc:Work>
    <dc:type rdf:resource="http://purl.org/dc/dcmitype/StillImage"/>
    <dc:date>2025-10-09T18:33:44.258630</dc:date>
    <dc:format>image/svg+xml</dc:format>
    <dc:creator>
     <cc:Agent>
      <dc:title>Matplotlib v3.4.3, https://matplotlib.org/</dc:title>
     </cc:Agent>
    </dc:creator>
   </cc:Work>
  </rdf:RDF>
 </metadata>
 <defs>
  <style type="text/css">*{stroke-linecap:butt;stroke-linejoin:round;}</style>
 </defs>
 <g id="figure_1">
  <g id="patch_1">
   <path d="M 0 563.250125 
L 852.920666 563.250125 
L 852.920666 0 
L 0 0 
z
" style="fill:none;"/>
  </g>
  <g id="axes_1">
   <g id="patch_2">
    <path d="M 51.4425 519.387 
L 746.6305 519.387 
L 746.6305 67.399 
L 51.4425 67.399 
z
" style="fill:#ffffff;"/>
   </g>
   <g id="matplotlib.axis_1">
    <g id="xtick_1">
     <g id="line2d_1">
      <path clip-path="url(#p0eb36c8dc1)" d="M 80.408667 519.387 
L 80.408667 67.399 
" style="fill:none;stroke:#b0b0b0;stroke-linecap:square;stroke-opacity:0.3;stroke-width:0.5;"/>
     </g>
     <g id="line2d_2">
      <defs>
       <path d="M 0 0 
L 0 4 
" id="m582614f345" style="stroke:#000000;stroke-width:0.8;"/>
      </defs>
      <g>
       <use style="stroke:#000000;stroke-width:0.8;" x="80.408667" xlink:href="#m582614f345" y="519.387"/>
      </g>
     </g>
     <g id="text_1">
      <!-- 0 -->
      <g transform="translate(76.591167 536.005125)scale(0.12 -0.12)">
       <defs>
        <path d="M 2034 4250 
Q 1547 4250 1301 3770 
Q 1056 3291 1056 2328 
Q 1056 1369 1301 889 
Q 1547 409 2034 409 
Q 2525 409 2770 889 
Q 3016 1369 3016 2328 
Q 3016 3291 2770 3770 
Q 2525 4250 2034 4250 
z
M 2034 4750 
Q 2819 4750 3233 4129 
Q 3647 3509 3647 2328 
Q 3647 1150 3233 529 
Q 2819 -91 2034 -91 
Q 1250 -91 836 529 
Q 422 1150 422 2328 
Q 422 3509 836 4129 
Q 1250 4750 2034 4750 
z
" id="DejaVuSans-30" transform="scale(0.015625)"/>
       </defs>
       <use xlink:href="#DejaVuSans-30"/>
      </g>
     </g>
    </g>
    <g id="xtick_2">
     <g id="line2d_3">
      <path clip-path="url(#p0eb36c8dc1)" d="M 254.205667 519.387 
L 254.205667 67.399 
" style="fill:none;stroke:#b0b0b0;stroke-linecap:square;stroke-opacity:0.3;stroke-width:0.5;"/>
     </g>
     <g id="line2d_4">
      <g>
       <use style="stroke:#000000;stroke-width:0.8;" x="254.205667" xlink:href="#m582614f345" y="519.387"/>
      </g>
     </g>
     <g id="text_2">
      <!-- 30 -->
      <g transform="translate(246.570667 536.005125)scale(0.12 -0.12)">
       <defs>
        <path d="M 2597 2516 
Q 3050 2419 3304 2112 
Q 3559 1806 3559 1356 
Q 3559 666 3084 287 
Q 2609 -91 1734 -91 
Q 1441 -91 1130 -33 
Q 819 25 488 141 
L 488 750 
Q 750 597 1062 519 
Q 1375 441 1716 441 
Q 2309 441 2620 675 
Q 2931 909 2931 1356 
Q 2931 1769 2642 2001 
Q 2353 2234 1838 2234 
L 1294 2234 
L 1294 2753 
L 1863 2753 
Q 2328 2753 2575 2939 
Q 2822 3125 2822 3475 
Q 2822 3834 2567 4026 
Q 2313 4219 1838 4219 
Q 1578 4219 1281 4162 
Q 984 4106 628 3988 
L 628 4550 
Q 988 4650 1302 4700 
Q 1616 4750 1894 4750 
Q 2613 4750 3031 4423 
Q 3450 4097 3450 3541 
Q 3450 3153 3228 2886 
Q 3006 2619 2597 2516 
z
" id="DejaVuSans-33" transform="scale(0.015625)"/>
       </defs>
       <use xlink:href="#DejaVuSans-33"/>
       <use x="63.623047" xlink:href="#DejaVuSans-30"/>
      </g>
     </g>
    </g>
    <g id="xtick_3">
     <g id="line2d_5">
      <path clip-path="url(#p0eb36c8dc1)" d="M 428.002667 519.387 
L 428.002667 67.399 
" style="fill:none;stroke:#b0b0b0;stroke-linecap:square;stroke-opacity:0.3;stroke-width:0.5;"/>
     </g>
     <g id="line2d_6">
      <g>
       <use style="stroke:#000000;stroke-width:0.8;" x="428.002667" xlink:href="#m582614f345" y="519.387"/>
      </g>
     </g>
     <g id="text_3">
      <!-- 60 -->
      <g transform="translate(420.367667 536.005125)scale(0.12 -0.12)">
       <defs>
        <path d="M 2113 2584 
Q 1688 2584 1439 2293 
Q 1191 2003 1191 1497 
Q 1191 994 1439 701 
Q 1688 409 2113 409 
Q 2538 409 2786 701 
Q 3034 994 3034 1497 
Q 3034 2003 2786 2293 
Q 2538 2584 2113 2584 
z
M 3366 4563 
L 3366 3988 
Q 3128 4100 2886 4159 
Q 2644 4219 2406 4219 
Q 1781 4219 1451 3797 
Q 1122 3375 1075 2522 
Q 1259 2794 1537 2939 
Q 1816 3084 2150 3084 
Q 2853 3084 3261 2657 
Q 3669 2231 3669 1497 
Q 3669 778 3244 343 
Q 2819 -91 2113 -91 
Q 1303 -91 875 529 
Q 447 1150 447 2328 
Q 447 3434 972 4092 
Q 1497 4750 2381 4750 
Q 2619 4750 2861 4703 
Q 3103 4656 3366 4563 
z
" id="DejaVuSans-36" transform="scale(0.015625)"/>
       </defs>
       <use xlink:href="#DejaVuSans-36"/>
       <use x="63.623047" xlink:href="#DejaVuSans-30"/>
      </g>
     </g>
    </g>
    <g id="xtick_4">
     <g id="line2d_7">
      <path clip-path="url(#p0eb36c8dc1)" d="M 601.799667 519.387 
L 601.799667 67.399 
" style="fill:none;stroke:#b0b0b0;stroke-linecap:square;stroke-opacity:0.3;stroke-width:0.5;"/>
     </g>
     <g id="line2d_8">
      <g>
       <use style="stroke:#000000;stroke-width:0.8;" x="601.799667" xlink:href="#m582614f345" y="519.387"/>
      </g>
     </g>
     <g id="text_4">
      <!-- 90 -->
      <g transform="translate(594.164667 536.005125)scale(0.12 -0.12)">
       <defs>
        <path d="M 703 97 
L 703 672 
Q 941 559 1184 500 
Q 1428 441 1663 441 
Q 2288 441 2617 861 
Q 2947 1281 2994 2138 
Q 2813 1869 2534 1725 
Q 2256 1581 1919 1581 
Q 1219 1581 811 2004 
Q 403 2428 403 3163 
Q 403 3881 828 4315 
Q 1253 4750 1959 4750 
Q 2769 4750 3195 4129 
Q 3622 3509 3622 2328 
Q 3622 1225 3098 567 
Q 2575 -91 1691 -91 
Q 1453 -91 1209 -44 
Q 966 3 703 97 
z
M 1959 2075 
Q 2384 2075 2632 2365 
Q 2881 2656 2881 3163 
Q 2881 3666 2632 3958 
Q 2384 4250 1959 4250 
Q 1534 4250 1286 3958 
Q 1038 3666 1038 3163 
Q 1038 2656 1286 2365 
Q 1534 2075 1959 2075 
z
" id="DejaVuSans-39" transform="scale(0.015625)"/>
       </defs>
       <use xlink:href="#DejaVuSans-39"/>
       <use x="63.623047" xlink:href="#DejaVuSans-30"/>
      </g>
     </g>
    </g>
    <g id="xtick_5">
     <g id="line2d_9">
      <path clip-path="url(#p0eb36c8dc1)" d="M 717.664333 519.387 
L 717.664333 67.399 
" style="fill:none;stroke:#b0b0b0;stroke-linecap:square;stroke-opacity:0.3;stroke-width:0.5;"/>
     </g>
     <g id="line2d_10">
      <g>
       <use style="stroke:#000000;stroke-width:0.8;" x="717.664333" xlink:href="#m582614f345" y="519.387"/>
      </g>
     </g>
     <g id="text_5">
      <!-- 110 -->
      <g transform="translate(706.211833 536.005125)scale(0.12 -0.12)">
       <defs>
        <path d="M 794 531 
L 1825 531 
L 1825 4091 
L 703 3866 
L 703 4441 
L 1819 4666 
L 2450 4666 
L 2450 531 
L 3481 531 
L 3481 0 
L 794 0 
L 794 531 
z
" id="DejaVuSans-31" transform="scale(0.015625)"/>
       </defs>
       <use xlink:href="#DejaVuSans-31"/>
       <use x="63.623047" xlink:href="#DejaVuSans-31"/>
       <use x="127.246094" xlink:href="#DejaVuSans-30"/>
      </g>
     </g>
    </g>
    <g id="text_6">
     <!-- Time (minutes) -->
     <g transform="translate(339.064 553.138562)scale(0.14 -0.14)">
      <defs>
       <path d="M 31 4666 
L 4331 4666 
L 4331 3756 
L 2784 3756 
L 2784 0 
L 1581 0 
L 1581 3756 
L 31 3756 
L 31 4666 
z
" id="DejaVuSans-Bold-54" transform="scale(0.015625)"/>
       <path d="M 538 3500 
L 1656 3500 
L 1656 0 
L 538 0 
L 538 3500 
z
M 538 4863 
L 1656 4863 
L 1656 3950 
L 538 3950 
L 538 4863 
z
" id="DejaVuSans-Bold-69" transform="scale(0.015625)"/>
       <path d="M 3781 2919 
Q 3994 3244 4286 3414 
Q 4578 3584 4928 3584 
Q 5531 3584 5847 3212 
Q 6163 2841 6163 2131 
L 6163 0 
L 5038 0 
L 5038 1825 
Q 5041 1866 5042 1909 
Q 5044 1953 5044 2034 
Q 5044 2406 4934 2573 
Q 4825 2741 4581 2741 
Q 4263 2741 4089 2478 
Q 3916 2216 3909 1719 
L 3909 0 
L 2784 0 
L 2784 1825 
Q 2784 2406 2684 2573 
Q 2584 2741 2328 2741 
Q 2006 2741 1831 2477 
Q 1656 2213 1656 1722 
L 1656 0 
L 531 0 
L 531 3500 
L 1656 3500 
L 1656 2988 
Q 1863 3284 2130 3434 
Q 2397 3584 2719 3584 
Q 3081 3584 3359 3409 
Q 3638 3234 3781 2919 
z
" id="DejaVuSans-Bold-6d" transform="scale(0.015625)"/>
       <path d="M 4031 1759 
L 4031 1441 
L 1416 1441 
Q 1456 1047 1700 850 
Q 1944 653 2381 653 
Q 2734 653 3104 758 
Q 3475 863 3866 1075 
L 3866 213 
Q 3469 63 3072 -14 
Q 2675 -91 2278 -91 
Q 1328 -91 801 392 
Q 275 875 275 1747 
Q 275 2603 792 3093 
Q 1309 3584 2216 3584 
Q 3041 3584 3536 3087 
Q 4031 2591 4031 1759 
z
M 2881 2131 
Q 2881 2450 2695 2645 
Q 2509 2841 2209 2841 
Q 1884 2841 1681 2658 
Q 1478 2475 1428 2131 
L 2881 2131 
z
" id="DejaVuSans-Bold-65" transform="scale(0.015625)"/>
       <path id="DejaVuSans-Bold-20" transform="scale(0.015625)"/>
       <path d="M 2413 -844 
L 1484 -844 
Q 1006 -72 778 623 
Q 550 1319 550 2003 
Q 550 2688 779 3389 
Q 1009 4091 1484 4856 
L 2413 4856 
Q 2013 4116 1813 3408 
Q 1613 2700 1613 2009 
Q 1613 1319 1811 609 
Q 2009 -100 2413 -844 
z
" id="DejaVuSans-Bold-28" transform="scale(0.015625)"/>
       <path d="M 4056 2131 
L 4056 0 
L 2931 0 
L 2931 347 
L 2931 1631 
Q 2931 2084 2911 2256 
Q 2891 2428 2841 2509 
Q 2775 2619 2662 2680 
Q 2550 2741 2406 2741 
Q 2056 2741 1856 2470 
Q 1656 2200 1656 1722 
L 1656 0 
L 538 0 
L 538 3500 
L 1656 3500 
L 1656 2988 
Q 1909 3294 2193 3439 
Q 2478 3584 2822 3584 
Q 3428 3584 3742 3212 
Q 4056 2841 4056 2131 
z
" id="DejaVuSans-Bold-6e" transform="scale(0.015625)"/>
       <path d="M 500 1363 
L 500 3500 
L 1625 3500 
L 1625 3150 
Q 1625 2866 1622 2436 
Q 1619 2006 1619 1863 
Q 1619 1441 1641 1255 
Q 1663 1069 1716 984 
Q 1784 875 1895 815 
Q 2006 756 2150 756 
Q 2500 756 2700 1025 
Q 2900 1294 2900 1772 
L 2900 3500 
L 4019 3500 
L 4019 0 
L 2900 0 
L 2900 506 
Q 2647 200 2364 54 
Q 2081 -91 1741 -91 
Q 1134 -91 817 281 
Q 500 653 500 1363 
z
" id="DejaVuSans-Bold-75" transform="scale(0.015625)"/>
       <path d="M 1759 4494 
L 1759 3500 
L 2913 3500 
L 2913 2700 
L 1759 2700 
L 1759 1216 
Q 1759 972 1856 886 
Q 1953 800 2241 800 
L 2816 800 
L 2816 0 
L 1856 0 
Q 1194 0 917 276 
Q 641 553 641 1216 
L 641 2700 
L 84 2700 
L 84 3500 
L 641 3500 
L 641 4494 
L 1759 4494 
z
" id="DejaVuSans-Bold-74" transform="scale(0.015625)"/>
       <path d="M 3272 3391 
L 3272 2541 
Q 2913 2691 2578 2766 
Q 2244 2841 1947 2841 
Q 1628 2841 1473 2761 
Q 1319 2681 1319 2516 
Q 1319 2381 1436 2309 
Q 1553 2238 1856 2203 
L 2053 2175 
Q 2913 2066 3209 1816 
Q 3506 1566 3506 1031 
Q 3506 472 3093 190 
Q 2681 -91 1863 -91 
Q 1516 -91 1145 -36 
Q 775 19 384 128 
L 384 978 
Q 719 816 1070 734 
Q 1422 653 1784 653 
Q 2113 653 2278 743 
Q 2444 834 2444 1013 
Q 2444 1163 2330 1236 
Q 2216 1309 1875 1350 
L 1678 1375 
Q 931 1469 631 1722 
Q 331 1975 331 2491 
Q 331 3047 712 3315 
Q 1094 3584 1881 3584 
Q 2191 3584 2531 3537 
Q 2872 3491 3272 3391 
z
" id="DejaVuSans-Bold-73" transform="scale(0.015625)"/>
       <path d="M 513 -844 
Q 913 -100 1113 609 
Q 1313 1319 1313 2009 
Q 1313 2700 1113 3408 
Q 913 4116 513 4856 
L 1441 4856 
Q 1916 4091 2145 3389 
Q 2375 2688 2375 2003 
Q 2375 1319 2147 623 
Q 1919 -72 1441 -844 
L 513 -844 
z
" id="DejaVuSans-Bold-29" transform="scale(0.015625)"/>
      </defs>
      <use xlink:href="#DejaVuSans-Bold-54"/>
      <use x="68.212891" xlink:href="#DejaVuSans-Bold-69"/>
      <use x="102.490234" xlink:href="#DejaVuSans-Bold-6d"/>
      <use x="206.689453" xlink:href="#DejaVuSans-Bold-65"/>
      <use x="274.511719" xlink:href="#DejaVuSans-Bold-20"/>
      <use x="309.326172" xlink:href="#DejaVuSans-Bold-28"/>
      <use x="355.029297" xlink:href="#DejaVuSans-Bold-6d"/>
      <use x="459.228516" xlink:href="#DejaVuSans-Bold-69"/>
      <use x="493.505859" xlink:href="#DejaVuSans-Bold-6e"/>
      <use x="564.697266" xlink:href="#DejaVuSans-Bold-75"/>
      <use x="635.888672" xlink:href="#DejaVuSans-Bold-74"/>
      <use x="683.691406" xlink:href="#DejaVuSans-Bold-65"/>
      <use x="751.513672" xlink:href="#DejaVuSans-Bold-73"/>
      <use x="811.035156" xlink:href="#DejaVuSans-Bold-29"/>
     </g>
    </g>
   </g>
   <g id="matplotlib.axis_2">
    <g id="ytick_1">
     <g id="line2d_11">
      <path clip-path="url(#p0eb36c8dc1)" d="M 51.4425 474.991259 
L 746.6305 474.991259 
" style="fill:none;stroke:#b0b0b0;stroke-linecap:square;stroke-opacity:0.3;stroke-width:0.5;"/>
     </g>
     <g id="line2d_12">
      <defs>
       <path d="M 0 0 
L -4 0 
" id="m098865de68" style="stroke:#000000;stroke-width:0.8;"/>
      </defs>
      <g>
       <use style="stroke:#000000;stroke-width:0.8;" x="51.4425" xlink:href="#m098865de68" y="474.991259"/>
      </g>
     </g>
     <g id="text_7">
      <!-- 0.5 -->
      <g transform="translate(24.85875 479.550322)scale(0.12 -0.12)">
       <defs>
        <path d="M 684 794 
L 1344 794 
L 1344 0 
L 684 0 
L 684 794 
z
" id="DejaVuSans-2e" transform="scale(0.015625)"/>
        <path d="M 691 4666 
L 3169 4666 
L 3169 4134 
L 1269 4134 
L 1269 2991 
Q 1406 3038 1543 3061 
Q 1681 3084 1819 3084 
Q 2600 3084 3056 2656 
Q 3513 2228 3513 1497 
Q 3513 744 3044 326 
Q 2575 -91 1722 -91 
Q 1428 -91 1123 -41 
Q 819 9 494 109 
L 494 744 
Q 775 591 1075 516 
Q 1375 441 1709 441 
Q 2250 441 2565 725 
Q 2881 1009 2881 1497 
Q 2881 1984 2565 2268 
Q 2250 2553 1709 2553 
Q 1456 2553 1204 2497 
Q 953 2441 691 2322 
L 691 4666 
z
" id="DejaVuSans-35" transform="scale(0.015625)"/>
       </defs>
       <use xlink:href="#DejaVuSans-30"/>
       <use x="63.623047" xlink:href="#DejaVuSans-2e"/>
       <use x="95.410156" xlink:href="#DejaVuSans-35"/>
      </g>
     </g>
    </g>
    <g id="ytick_2">
     <g id="line2d_13">
      <path clip-path="url(#p0eb36c8dc1)" d="M 51.4425 401.066109 
L 746.6305 401.066109 
" style="fill:none;stroke:#b0b0b0;stroke-linecap:square;stroke-opacity:0.3;stroke-width:0.5;"/>
     </g>
     <g id="line2d_14">
      <g>
       <use style="stroke:#000000;stroke-width:0.8;" x="51.4425" xlink:href="#m098865de68" y="401.066109"/>
      </g>
     </g>
     <g id="text_8">
      <!-- 1.0 -->
      <g transform="translate(24.85875 405.625172)scale(0.12 -0.12)">
       <use xlink:href="#DejaVuSans-31"/>
       <use x="63.623047" xlink:href="#DejaVuSans-2e"/>
       <use x="95.410156" xlink:href="#DejaVuSans-30"/>
      </g>
     </g>
    </g>
    <g id="ytick_3">
     <g id="line2d_15">
      <path clip-path="url(#p0eb36c8dc1)" d="M 51.4425 327.140959 
L 746.6305 327.140959 
" style="fill:none;stroke:#b0b0b0;stroke-linecap:square;stroke-opacity:0.3;stroke-width:0.5;"/>
     </g>
     <g id="line2d_16">
      <g>
       <use style="stroke:#000000;stroke-width:0.8;" x="51.4425" xlink:href="#m098865de68" y="327.140959"/>
      </g>
     </g>
     <g id="text_9">
      <!-- 1.5 -->
      <g transform="translate(24.85875 331.700022)scale(0.12 -0.12)">
       <use xlink:href="#DejaVuSans-31"/>
       <use x="63.623047" xlink:href="#DejaVuSans-2e"/>
       <use x="95.410156" xlink:href="#DejaVuSans-35"/>
      </g>
     </g>
    </g>
    <g id="ytick_4">
     <g id="line2d_17">
      <path clip-path="url(#p0eb36c8dc1)" d="M 51.4425 253.215809 
L 746.6305 253.215809 
" style="fill:none;stroke:#b0b0b0;stroke-linecap:square;stroke-opacity:0.3;stroke-width:0.5;"/>
     </g>
     <g id="line2d_18">
      <g>
       <use style="stroke:#000000;stroke-width:0.8;" x="51.4425" xlink:href="#m098865de68" y="253.215809"/>
      </g>
     </g>
     <g id="text_10">
      <!-- 2.0 -->
      <g transform="translate(24.85875 257.774872)scale(0.12 -0.12)">
       <defs>
        <path d="M 1228 531 
L 3431 531 
L 3431 0 
L 469 0 
L 469 531 
Q 828 903 1448 1529 
Q 2069 2156 2228 2338 
Q 2531 2678 2651 2914 
Q 2772 3150 2772 3378 
Q 2772 3750 2511 3984 
Q 2250 4219 1831 4219 
Q 1534 4219 1204 4116 
Q 875 4013 500 3803 
L 500 4441 
Q 881 4594 1212 4672 
Q 1544 4750 1819 4750 
Q 2544 4750 2975 4387 
Q 3406 4025 3406 3419 
Q 3406 3131 3298 2873 
Q 3191 2616 2906 2266 
Q 2828 2175 2409 1742 
Q 1991 1309 1228 531 
z
" id="DejaVuSans-32" transform="scale(0.015625)"/>
       </defs>
       <use xlink:href="#DejaVuSans-32"/>
       <use x="63.623047" xlink:href="#DejaVuSans-2e"/>
       <use x="95.410156" xlink:href="#DejaVuSans-30"/>
      </g>
     </g>
    </g>
    <g id="ytick_5">
     <g id="line2d_19">
      <path clip-path="url(#p0eb36c8dc1)" d="M 51.4425 179.290659 
L 746.6305 179.290659 
" style="fill:none;stroke:#b0b0b0;stroke-linecap:square;stroke-opacity:0.3;stroke-width:0.5;"/>
     </g>
     <g id="line2d_20">
      <g>
       <use style="stroke:#000000;stroke-width:0.8;" x="51.4425" xlink:href="#m098865de68" y="179.290659"/>
      </g>
     </g>
     <g id="text_11">
      <!-- 2.5 -->
      <g transform="translate(24.85875 183.849722)scale(0.12 -0.12)">
       <use xlink:href="#DejaVuSans-32"/>
       <use x="63.623047" xlink:href="#DejaVuSans-2e"/>
       <use x="95.410156" xlink:href="#DejaVuSans-35"/>
      </g>
     </g>
    </g>
    <g id="ytick_6">
     <g id="line2d_21">
      <path clip-path="url(#p0eb36c8dc1)" d="M 51.4425 105.365509 
L 746.6305 105.365509 
" style="fill:none;stroke:#b0b0b0;stroke-linecap:square;stroke-opacity:0.3;stroke-width:0.5;"/>
     </g>
     <g id="line2d_22">
      <g>
       <use style="stroke:#000000;stroke-width:0.8;" x="51.4425" xlink:href="#m098865de68" y="105.365509"/>
      </g>
     </g>
     <g id="text_12">
      <!-- 3.0 -->
      <g transform="translate(24.85875 109.924572)scale(0.12 -0.12)">
       <use xlink:href="#DejaVuSans-33"/>
       <use x="63.623047" xlink:href="#DejaVuSans-2e"/>
       <use x="95.410156" xlink:href="#DejaVuSans-30"/>
      </g>
     </g>
    </g>
    <g id="text_13">
     <!-- Pseudobulk Expression (log2 CPM) -->
     <g transform="translate(17.837813 430.230969)rotate(-90)scale(0.14 -0.14)">
      <defs>
       <path d="M 588 4666 
L 2584 4666 
Q 3475 4666 3951 4270 
Q 4428 3875 4428 3144 
Q 4428 2409 3951 2014 
Q 3475 1619 2584 1619 
L 1791 1619 
L 1791 0 
L 588 0 
L 588 4666 
z
M 1791 3794 
L 1791 2491 
L 2456 2491 
Q 2806 2491 2997 2661 
Q 3188 2831 3188 3144 
Q 3188 3456 2997 3625 
Q 2806 3794 2456 3794 
L 1791 3794 
z
" id="DejaVuSans-Bold-50" transform="scale(0.015625)"/>
       <path d="M 2919 2988 
L 2919 4863 
L 4044 4863 
L 4044 0 
L 2919 0 
L 2919 506 
Q 2688 197 2409 53 
Q 2131 -91 1766 -91 
Q 1119 -91 703 423 
Q 288 938 288 1747 
Q 288 2556 703 3070 
Q 1119 3584 1766 3584 
Q 2128 3584 2408 3439 
Q 2688 3294 2919 2988 
z
M 2181 722 
Q 2541 722 2730 984 
Q 2919 1247 2919 1747 
Q 2919 2247 2730 2509 
Q 2541 2772 2181 2772 
Q 1825 2772 1636 2509 
Q 1447 2247 1447 1747 
Q 1447 1247 1636 984 
Q 1825 722 2181 722 
z
" id="DejaVuSans-Bold-64" transform="scale(0.015625)"/>
       <path d="M 2203 2784 
Q 1831 2784 1636 2517 
Q 1441 2250 1441 1747 
Q 1441 1244 1636 976 
Q 1831 709 2203 709 
Q 2569 709 2762 976 
Q 2956 1244 2956 1747 
Q 2956 2250 2762 2517 
Q 2569 2784 2203 2784 
z
M 2203 3584 
Q 3106 3584 3614 3096 
Q 4122 2609 4122 1747 
Q 4122 884 3614 396 
Q 3106 -91 2203 -91 
Q 1297 -91 786 396 
Q 275 884 275 1747 
Q 275 2609 786 3096 
Q 1297 3584 2203 3584 
z
" id="DejaVuSans-Bold-6f" transform="scale(0.015625)"/>
       <path d="M 2400 722 
Q 2759 722 2948 984 
Q 3138 1247 3138 1747 
Q 3138 2247 2948 2509 
Q 2759 2772 2400 2772 
Q 2041 2772 1848 2508 
Q 1656 2244 1656 1747 
Q 1656 1250 1848 986 
Q 2041 722 2400 722 
z
M 1656 2988 
Q 1888 3294 2169 3439 
Q 2450 3584 2816 3584 
Q 3463 3584 3878 3070 
Q 4294 2556 4294 1747 
Q 4294 938 3878 423 
Q 3463 -91 2816 -91 
Q 2450 -91 2169 54 
Q 1888 200 1656 506 
L 1656 0 
L 538 0 
L 538 4863 
L 1656 4863 
L 1656 2988 
z
" id="DejaVuSans-Bold-62" transform="scale(0.015625)"/>
       <path d="M 538 4863 
L 1656 4863 
L 1656 0 
L 538 0 
L 538 4863 
z
" id="DejaVuSans-Bold-6c" transform="scale(0.015625)"/>
       <path d="M 538 4863 
L 1656 4863 
L 1656 2216 
L 2944 3500 
L 4244 3500 
L 2534 1894 
L 4378 0 
L 3022 0 
L 1656 1459 
L 1656 0 
L 538 0 
L 538 4863 
z
" id="DejaVuSans-Bold-6b" transform="scale(0.015625)"/>
       <path d="M 588 4666 
L 3834 4666 
L 3834 3756 
L 1791 3756 
L 1791 2888 
L 3713 2888 
L 3713 1978 
L 1791 1978 
L 1791 909 
L 3903 909 
L 3903 0 
L 588 0 
L 588 4666 
z
" id="DejaVuSans-Bold-45" transform="scale(0.015625)"/>
       <path d="M 1422 1791 
L 159 3500 
L 1344 3500 
L 2059 2463 
L 2784 3500 
L 3969 3500 
L 2706 1797 
L 4031 0 
L 2847 0 
L 2059 1106 
L 1281 0 
L 97 0 
L 1422 1791 
z
" id="DejaVuSans-Bold-78" transform="scale(0.015625)"/>
       <path d="M 1656 506 
L 1656 -1331 
L 538 -1331 
L 538 3500 
L 1656 3500 
L 1656 2988 
Q 1888 3294 2169 3439 
Q 2450 3584 2816 3584 
Q 3463 3584 3878 3070 
Q 4294 2556 4294 1747 
Q 4294 938 3878 423 
Q 3463 -91 2816 -91 
Q 2450 -91 2169 54 
Q 1888 200 1656 506 
z
M 2400 2772 
Q 2041 2772 1848 2508 
Q 1656 2244 1656 1747 
Q 1656 1250 1848 986 
Q 2041 722 2400 722 
Q 2759 722 2948 984 
Q 3138 1247 3138 1747 
Q 3138 2247 2948 2509 
Q 2759 2772 2400 2772 
z
" id="DejaVuSans-Bold-70" transform="scale(0.015625)"/>
       <path d="M 3138 2547 
Q 2991 2616 2845 2648 
Q 2700 2681 2553 2681 
Q 2122 2681 1889 2404 
Q 1656 2128 1656 1613 
L 1656 0 
L 538 0 
L 538 3500 
L 1656 3500 
L 1656 2925 
Q 1872 3269 2151 3426 
Q 2431 3584 2822 3584 
Q 2878 3584 2943 3579 
Q 3009 3575 3134 3559 
L 3138 2547 
z
" id="DejaVuSans-Bold-72" transform="scale(0.015625)"/>
       <path d="M 2919 594 
Q 2688 288 2409 144 
Q 2131 0 1766 0 
Q 1125 0 706 504 
Q 288 1009 288 1791 
Q 288 2575 706 3076 
Q 1125 3578 1766 3578 
Q 2131 3578 2409 3434 
Q 2688 3291 2919 2981 
L 2919 3500 
L 4044 3500 
L 4044 353 
Q 4044 -491 3511 -936 
Q 2978 -1381 1966 -1381 
Q 1638 -1381 1331 -1331 
Q 1025 -1281 716 -1178 
L 716 -306 
Q 1009 -475 1290 -558 
Q 1572 -641 1856 -641 
Q 2406 -641 2662 -400 
Q 2919 -159 2919 353 
L 2919 594 
z
M 2181 2772 
Q 1834 2772 1640 2515 
Q 1447 2259 1447 1791 
Q 1447 1309 1634 1061 
Q 1822 813 2181 813 
Q 2531 813 2725 1069 
Q 2919 1325 2919 1791 
Q 2919 2259 2725 2515 
Q 2531 2772 2181 2772 
z
" id="DejaVuSans-Bold-67" transform="scale(0.015625)"/>
       <path d="M 1844 884 
L 3897 884 
L 3897 0 
L 506 0 
L 506 884 
L 2209 2388 
Q 2438 2594 2547 2791 
Q 2656 2988 2656 3200 
Q 2656 3528 2436 3728 
Q 2216 3928 1850 3928 
Q 1569 3928 1234 3808 
Q 900 3688 519 3450 
L 519 4475 
Q 925 4609 1322 4679 
Q 1719 4750 2100 4750 
Q 2938 4750 3402 4381 
Q 3866 4013 3866 3353 
Q 3866 2972 3669 2642 
Q 3472 2313 2841 1759 
L 1844 884 
z
" id="DejaVuSans-Bold-32" transform="scale(0.015625)"/>
       <path d="M 4288 256 
Q 3956 84 3597 -3 
Q 3238 -91 2847 -91 
Q 1681 -91 1000 561 
Q 319 1213 319 2328 
Q 319 3447 1000 4098 
Q 1681 4750 2847 4750 
Q 3238 4750 3597 4662 
Q 3956 4575 4288 4403 
L 4288 3438 
Q 3953 3666 3628 3772 
Q 3303 3878 2944 3878 
Q 2300 3878 1931 3465 
Q 1563 3053 1563 2328 
Q 1563 1606 1931 1193 
Q 2300 781 2944 781 
Q 3303 781 3628 887 
Q 3953 994 4288 1222 
L 4288 256 
z
" id="DejaVuSans-Bold-43" transform="scale(0.015625)"/>
       <path d="M 588 4666 
L 2119 4666 
L 3181 2169 
L 4250 4666 
L 5778 4666 
L 5778 0 
L 4641 0 
L 4641 3413 
L 3566 897 
L 2803 897 
L 1728 3413 
L 1728 0 
L 588 0 
L 588 4666 
z
" id="DejaVuSans-Bold-4d" transform="scale(0.015625)"/>
      </defs>
      <use xlink:href="#DejaVuSans-Bold-50"/>
      <use x="71.541016" xlink:href="#DejaVuSans-Bold-73"/>
      <use x="131.0625" xlink:href="#DejaVuSans-Bold-65"/>
      <use x="198.884766" xlink:href="#DejaVuSans-Bold-75"/>
      <use x="270.076172" xlink:href="#DejaVuSans-Bold-64"/>
      <use x="341.658203" xlink:href="#DejaVuSans-Bold-6f"/>
      <use x="410.359375" xlink:href="#DejaVuSans-Bold-62"/>
      <use x="481.941406" xlink:href="#DejaVuSans-Bold-75"/>
      <use x="553.132812" xlink:href="#DejaVuSans-Bold-6c"/>
      <use x="587.410156" xlink:href="#DejaVuSans-Bold-6b"/>
      <use x="653.914062" xlink:href="#DejaVuSans-Bold-20"/>
      <use x="688.728516" xlink:href="#DejaVuSans-Bold-45"/>
      <use x="757.039062" xlink:href="#DejaVuSans-Bold-78"/>
      <use x="821.541016" xlink:href="#DejaVuSans-Bold-70"/>
      <use x="893.123047" xlink:href="#DejaVuSans-Bold-72"/>
      <use x="942.439453" xlink:href="#DejaVuSans-Bold-65"/>
      <use x="1010.261719" xlink:href="#DejaVuSans-Bold-73"/>
      <use x="1069.783203" xlink:href="#DejaVuSans-Bold-73"/>
      <use x="1129.304688" xlink:href="#DejaVuSans-Bold-69"/>
      <use x="1163.582031" xlink:href="#DejaVuSans-Bold-6f"/>
      <use x="1232.283203" xlink:href="#DejaVuSans-Bold-6e"/>
      <use x="1303.474609" xlink:href="#DejaVuSans-Bold-20"/>
      <use x="1338.289062" xlink:href="#DejaVuSans-Bold-28"/>
      <use x="1383.992188" xlink:href="#DejaVuSans-Bold-6c"/>
      <use x="1418.269531" xlink:href="#DejaVuSans-Bold-6f"/>
      <use x="1486.970703" xlink:href="#DejaVuSans-Bold-67"/>
      <use x="1558.552734" xlink:href="#DejaVuSans-Bold-32"/>
      <use x="1628.132812" xlink:href="#DejaVuSans-Bold-20"/>
      <use x="1662.947266" xlink:href="#DejaVuSans-Bold-43"/>
      <use x="1736.335938" xlink:href="#DejaVuSans-Bold-50"/>
      <use x="1809.626953" xlink:href="#DejaVuSans-Bold-4d"/>
      <use x="1909.138672" xlink:href="#DejaVuSans-Bold-29"/>
     </g>
    </g>
   </g>
   <g id="line2d_23">
    <path clip-path="url(#p0eb36c8dc1)" d="M 80.408667 105.67184 
L 138.341 120.781195 
L 196.273333 122.133921 
L 254.205667 99.252624 
L 312.138 113.403938 
L 370.070333 118.813056 
L 428.002667 105.381832 
L 485.935 96.040339 
L 543.867333 101.35918 
L 601.799667 117.722453 
L 659.732 115.257256 
L 717.664333 87.943909 
" style="fill:none;stroke:#1f77b4;stroke-linecap:square;stroke-opacity:0.8;stroke-width:2.5;"/>
    <defs>
     <path d="M 0 4 
C 1.060812 4 2.078319 3.578535 2.828427 2.828427 
C 3.578535 2.078319 4 1.060812 4 0 
C 4 -1.060812 3.578535 -2.078319 2.828427 -2.828427 
C 2.078319 -3.578535 1.060812 -4 0 -4 
C -1.060812 -4 -2.078319 -3.578535 -2.828427 -2.828427 
C -3.578535 -2.078319 -4 -1.060812 -4 0 
C -4 1.060812 -3.578535 2.078319 -2.828427 2.828427 
C -2.078319 3.578535 -1.060812 4 0 4 
z
" id="m3e5b0085bb" style="stroke:#000000;stroke-opacity:0.8;stroke-width:0.5;"/>
    </defs>
    <g clip-path="url(#p0eb36c8dc1)">
     <use style="fill:#1f77b4;fill-opacity:0.8;stroke:#000000;stroke-opacity:0.8;stroke-width:0.5;" x="80.408667" xlink:href="#m3e5b0085bb" y="105.67184"/>
     <use style="fill:#1f77b4;fill-opacity:0.8;stroke:#000000;stroke-opacity:0.8;stroke-width:0.5;" x="138.341" xlink:href="#m3e5b0085bb" y="120.781195"/>
     <use style="fill:#1f77b4;fill-opacity:0.8;stroke:#000000;stroke-opacity:0.8;stroke-width:0.5;" x="196.273333" xlink:href="#m3e5b0085bb" y="122.133921"/>
     <use style="fill:#1f77b4;fill-opacity:0.8;stroke:#000000;stroke-opacity:0.8;stroke-width:0.5;" x="254.205667" xlink:href="#m3e5b0085bb" y="99.252624"/>
     <use style="fill:#1f77b4;fill-opacity:0.8;stroke:#000000;stroke-opacity:0.8;stroke-width:0.5;" x="312.138" xlink:href="#m3e5b0085bb" y="113.403938"/>
     <use style="fill:#1f77b4;fill-opacity:0.8;stroke:#000000;stroke-opacity:0.8;stroke-width:0.5;" x="370.070333" xlink:href="#m3e5b0085bb" y="118.813056"/>
     <use style="fill:#1f77b4;fill-opacity:0.8;stroke:#000000;stroke-opacity:0.8;stroke-width:0.5;" x="428.002667" xlink:href="#m3e5b0085bb" y="105.381832"/>
     <use style="fill:#1f77b4;fill-opacity:0.8;stroke:#000000;stroke-opacity:0.8;stroke-width:0.5;" x="485.935" xlink:href="#m3e5b0085bb" y="96.040339"/>
     <use style="fill:#1f77b4;fill-opacity:0.8;stroke:#000000;stroke-opacity:0.8;stroke-width:0.5;" x="543.867333" xlink:href="#m3e5b0085bb" y="101.35918"/>
     <use style="fill:#1f77b4;fill-opacity:0.8;stroke:#000000;stroke-opacity:0.8;stroke-width:0.5;" x="601.799667" xlink:href="#m3e5b0085bb" y="117.722453"/>
     <use style="fill:#1f77b4;fill-opacity:0.8;stroke:#000000;stroke-opacity:0.8;stroke-width:0.5;" x="659.732" xlink:href="#m3e5b0085bb" y="115.257256"/>
     <use style="fill:#1f77b4;fill-opacity:0.8;stroke:#000000;stroke-opacity:0.8;stroke-width:0.5;" x="717.664333" xlink:href="#m3e5b0085bb" y="87.943909"/>
    </g>
   </g>
   <g id="line2d_24">
    <path clip-path="url(#p0eb36c8dc1)" d="M 80.408667 491.015026 
L 138.341 492.366134 
L 196.273333 487.731815 
L 254.205667 497.744199 
L 312.138 496.670852 
L 370.070333 482.389644 
L 428.002667 487.809447 
L 485.935 477.513491 
L 543.867333 492.252087 
L 601.799667 487.289633 
L 659.732 487.433477 
L 717.664333 498.842091 
" style="fill:none;stroke:#9467bd;stroke-linecap:square;stroke-opacity:0.8;stroke-width:2.5;"/>
    <defs>
     <path d="M 0 -4 
L -0.898056 -1.236068 
L -3.804226 -1.236068 
L -1.453085 0.472136 
L -2.351141 3.236068 
L -0 1.527864 
L 2.351141 3.236068 
L 1.453085 0.472136 
L 3.804226 -1.236068 
L 0.898056 -1.236068 
z
" id="mdde99c2a78" style="stroke:#000000;stroke-linejoin:bevel;stroke-opacity:0.8;stroke-width:0.5;"/>
    </defs>
    <g clip-path="url(#p0eb36c8dc1)">
     <use style="fill:#9467bd;fill-opacity:0.8;stroke:#000000;stroke-linejoin:bevel;stroke-opacity:0.8;stroke-width:0.5;" x="80.408667" xlink:href="#mdde99c2a78" y="491.015026"/>
     <use style="fill:#9467bd;fill-opacity:0.8;stroke:#000000;stroke-linejoin:bevel;stroke-opacity:0.8;stroke-width:0.5;" x="138.341" xlink:href="#mdde99c2a78" y="492.366134"/>
     <use style="fill:#9467bd;fill-opacity:0.8;stroke:#000000;stroke-linejoin:bevel;stroke-opacity:0.8;stroke-width:0.5;" x="196.273333" xlink:href="#mdde99c2a78" y="487.731815"/>
     <use style="fill:#9467bd;fill-opacity:0.8;stroke:#000000;stroke-linejoin:bevel;stroke-opacity:0.8;stroke-width:0.5;" x="254.205667" xlink:href="#mdde99c2a78" y="497.744199"/>
     <use style="fill:#9467bd;fill-opacity:0.8;stroke:#000000;stroke-linejoin:bevel;stroke-opacity:0.8;stroke-width:0.5;" x="312.138" xlink:href="#mdde99c2a78" y="496.670852"/>
     <use style="fill:#9467bd;fill-opacity:0.8;stroke:#000000;stroke-linejoin:bevel;stroke-opacity:0.8;stroke-width:0.5;" x="370.070333" xlink:href="#mdde99c2a78" y="482.389644"/>
     <use style="fill:#9467bd;fill-opacity:0.8;stroke:#000000;stroke-linejoin:bevel;stroke-opacity:0.8;stroke-width:0.5;" x="428.002667" xlink:href="#mdde99c2a78" y="487.809447"/>
     <use style="fill:#9467bd;fill-opacity:0.8;stroke:#000000;stroke-linejoin:bevel;stroke-opacity:0.8;stroke-width:0.5;" x="485.935" xlink:href="#mdde99c2a78" y="477.513491"/>
     <use style="fill:#9467bd;fill-opacity:0.8;stroke:#000000;stroke-linejoin:bevel;stroke-opacity:0.8;stroke-width:0.5;" x="543.867333" xlink:href="#mdde99c2a78" y="492.252087"/>
     <use style="fill:#9467bd;fill-opacity:0.8;stroke:#000000;stroke-linejoin:bevel;stroke-opacity:0.8;stroke-width:0.5;" x="601.799667" xlink:href="#mdde99c2a78" y="487.289633"/>
     <use style="fill:#9467bd;fill-opacity:0.8;stroke:#000000;stroke-linejoin:bevel;stroke-opacity:0.8;stroke-width:0.5;" x="659.732" xlink:href="#mdde99c2a78" y="487.433477"/>
     <use style="fill:#9467bd;fill-opacity:0.8;stroke:#000000;stroke-linejoin:bevel;stroke-opacity:0.8;stroke-width:0.5;" x="717.664333" xlink:href="#mdde99c2a78" y="498.842091"/>
    </g>
   </g>
   <g id="patch_3">
    <path d="M 51.4425 519.387 
L 51.4425 67.399 
" style="fill:none;stroke:#000000;stroke-linecap:square;stroke-linejoin:miter;stroke-width:1.2;"/>
   </g>
   <g id="patch_4">
    <path d="M 51.4425 519.387 
L 746.6305 519.387 
" style="fill:none;stroke:#000000;stroke-linecap:square;stroke-linejoin:miter;stroke-width:1.2;"/>
   </g>
   <g id="text_14">
    <!-- K562 Negative Control (Unstimulated) -->
    <g transform="translate(226.28025 19.3575)scale(0.16 -0.16)">
     <defs>
      <path d="M 588 4666 
L 1791 4666 
L 1791 2963 
L 3525 4666 
L 4922 4666 
L 2675 2456 
L 5153 0 
L 3647 0 
L 1791 1838 
L 1791 0 
L 588 0 
L 588 4666 
z
" id="DejaVuSans-Bold-4b" transform="scale(0.015625)"/>
      <path d="M 678 4666 
L 3669 4666 
L 3669 3781 
L 1638 3781 
L 1638 3059 
Q 1775 3097 1914 3117 
Q 2053 3138 2203 3138 
Q 3056 3138 3531 2711 
Q 4006 2284 4006 1522 
Q 4006 766 3489 337 
Q 2972 -91 2053 -91 
Q 1656 -91 1267 -14 
Q 878 63 494 219 
L 494 1166 
Q 875 947 1217 837 
Q 1559 728 1863 728 
Q 2300 728 2551 942 
Q 2803 1156 2803 1522 
Q 2803 1891 2551 2103 
Q 2300 2316 1863 2316 
Q 1603 2316 1309 2248 
Q 1016 2181 678 2041 
L 678 4666 
z
" id="DejaVuSans-Bold-35" transform="scale(0.015625)"/>
      <path d="M 2316 2303 
Q 2000 2303 1842 2098 
Q 1684 1894 1684 1484 
Q 1684 1075 1842 870 
Q 2000 666 2316 666 
Q 2634 666 2792 870 
Q 2950 1075 2950 1484 
Q 2950 1894 2792 2098 
Q 2634 2303 2316 2303 
z
M 3803 4544 
L 3803 3681 
Q 3506 3822 3243 3889 
Q 2981 3956 2731 3956 
Q 2194 3956 1894 3657 
Q 1594 3359 1544 2772 
Q 1750 2925 1990 3001 
Q 2231 3078 2516 3078 
Q 3231 3078 3670 2659 
Q 4109 2241 4109 1563 
Q 4109 813 3618 361 
Q 3128 -91 2303 -91 
Q 1394 -91 895 523 
Q 397 1138 397 2266 
Q 397 3422 980 4083 
Q 1563 4744 2578 4744 
Q 2900 4744 3203 4694 
Q 3506 4644 3803 4544 
z
" id="DejaVuSans-Bold-36" transform="scale(0.015625)"/>
      <path d="M 588 4666 
L 1931 4666 
L 3628 1466 
L 3628 4666 
L 4769 4666 
L 4769 0 
L 3425 0 
L 1728 3200 
L 1728 0 
L 588 0 
L 588 4666 
z
" id="DejaVuSans-Bold-4e" transform="scale(0.015625)"/>
      <path d="M 2106 1575 
Q 1756 1575 1579 1456 
Q 1403 1338 1403 1106 
Q 1403 894 1545 773 
Q 1688 653 1941 653 
Q 2256 653 2472 879 
Q 2688 1106 2688 1447 
L 2688 1575 
L 2106 1575 
z
M 3816 1997 
L 3816 0 
L 2688 0 
L 2688 519 
Q 2463 200 2181 54 
Q 1900 -91 1497 -91 
Q 953 -91 614 226 
Q 275 544 275 1050 
Q 275 1666 698 1953 
Q 1122 2241 2028 2241 
L 2688 2241 
L 2688 2328 
Q 2688 2594 2478 2717 
Q 2269 2841 1825 2841 
Q 1466 2841 1156 2769 
Q 847 2697 581 2553 
L 581 3406 
Q 941 3494 1303 3539 
Q 1666 3584 2028 3584 
Q 2975 3584 3395 3211 
Q 3816 2838 3816 1997 
z
" id="DejaVuSans-Bold-61" transform="scale(0.015625)"/>
      <path d="M 97 3500 
L 1216 3500 
L 2088 1081 
L 2956 3500 
L 4078 3500 
L 2700 0 
L 1472 0 
L 97 3500 
z
" id="DejaVuSans-Bold-76" transform="scale(0.015625)"/>
      <path d="M 588 4666 
L 1791 4666 
L 1791 1869 
Q 1791 1291 1980 1042 
Q 2169 794 2597 794 
Q 3028 794 3217 1042 
Q 3406 1291 3406 1869 
L 3406 4666 
L 4609 4666 
L 4609 1869 
Q 4609 878 4112 393 
Q 3616 -91 2597 -91 
Q 1581 -91 1084 393 
Q 588 878 588 1869 
L 588 4666 
z
" id="DejaVuSans-Bold-55" transform="scale(0.015625)"/>
     </defs>
     <use xlink:href="#DejaVuSans-Bold-4b"/>
     <use x="77.490234" xlink:href="#DejaVuSans-Bold-35"/>
     <use x="147.070312" xlink:href="#DejaVuSans-Bold-36"/>
     <use x="216.650391" xlink:href="#DejaVuSans-Bold-32"/>
     <use x="286.230469" xlink:href="#DejaVuSans-Bold-20"/>
     <use x="321.044922" xlink:href="#DejaVuSans-Bold-4e"/>
     <use x="404.736328" xlink:href="#DejaVuSans-Bold-65"/>
     <use x="472.558594" xlink:href="#DejaVuSans-Bold-67"/>
     <use x="544.140625" xlink:href="#DejaVuSans-Bold-61"/>
     <use x="611.621094" xlink:href="#DejaVuSans-Bold-74"/>
     <use x="659.423828" xlink:href="#DejaVuSans-Bold-69"/>
     <use x="693.701172" xlink:href="#DejaVuSans-Bold-76"/>
     <use x="758.886719" xlink:href="#DejaVuSans-Bold-65"/>
     <use x="826.708984" xlink:href="#DejaVuSans-Bold-20"/>
     <use x="861.523438" xlink:href="#DejaVuSans-Bold-43"/>
     <use x="934.912109" xlink:href="#DejaVuSans-Bold-6f"/>
     <use x="1003.613281" xlink:href="#DejaVuSans-Bold-6e"/>
     <use x="1074.804688" xlink:href="#DejaVuSans-Bold-74"/>
     <use x="1122.607422" xlink:href="#DejaVuSans-Bold-72"/>
     <use x="1171.923828" xlink:href="#DejaVuSans-Bold-6f"/>
     <use x="1240.625" xlink:href="#DejaVuSans-Bold-6c"/>
     <use x="1274.902344" xlink:href="#DejaVuSans-Bold-20"/>
     <use x="1309.716797" xlink:href="#DejaVuSans-Bold-28"/>
     <use x="1355.419922" xlink:href="#DejaVuSans-Bold-55"/>
     <use x="1436.621094" xlink:href="#DejaVuSans-Bold-6e"/>
     <use x="1507.8125" xlink:href="#DejaVuSans-Bold-73"/>
     <use x="1567.333984" xlink:href="#DejaVuSans-Bold-74"/>
     <use x="1615.136719" xlink:href="#DejaVuSans-Bold-69"/>
     <use x="1649.414062" xlink:href="#DejaVuSans-Bold-6d"/>
     <use x="1753.613281" xlink:href="#DejaVuSans-Bold-75"/>
     <use x="1824.804688" xlink:href="#DejaVuSans-Bold-6c"/>
     <use x="1859.082031" xlink:href="#DejaVuSans-Bold-61"/>
     <use x="1926.5625" xlink:href="#DejaVuSans-Bold-74"/>
     <use x="1974.365234" xlink:href="#DejaVuSans-Bold-65"/>
     <use x="2042.1875" xlink:href="#DejaVuSans-Bold-64"/>
     <use x="2113.769531" xlink:href="#DejaVuSans-Bold-29"/>
    </g>
    <!-- Pseudobulk Normalized log2 CPM Profiles -->
    <g transform="translate(210.734 37.399)scale(0.16 -0.16)">
     <defs>
      <path d="M 366 3500 
L 3419 3500 
L 3419 2719 
L 1575 800 
L 3419 800 
L 3419 0 
L 288 0 
L 288 781 
L 2131 2700 
L 366 2700 
L 366 3500 
z
" id="DejaVuSans-Bold-7a" transform="scale(0.015625)"/>
      <path d="M 2841 4863 
L 2841 4128 
L 2222 4128 
Q 1984 4128 1890 4042 
Q 1797 3956 1797 3744 
L 1797 3500 
L 2753 3500 
L 2753 2700 
L 1797 2700 
L 1797 0 
L 678 0 
L 678 2700 
L 122 2700 
L 122 3500 
L 678 3500 
L 678 3744 
Q 678 4316 997 4589 
Q 1316 4863 1984 4863 
L 2841 4863 
z
" id="DejaVuSans-Bold-66" transform="scale(0.015625)"/>
     </defs>
     <use xlink:href="#DejaVuSans-Bold-50"/>
     <use x="71.541016" xlink:href="#DejaVuSans-Bold-73"/>
     <use x="131.0625" xlink:href="#DejaVuSans-Bold-65"/>
     <use x="198.884766" xlink:href="#DejaVuSans-Bold-75"/>
     <use x="270.076172" xlink:href="#DejaVuSans-Bold-64"/>
     <use x="341.658203" xlink:href="#DejaVuSans-Bold-6f"/>
     <use x="410.359375" xlink:href="#DejaVuSans-Bold-62"/>
     <use x="481.941406" xlink:href="#DejaVuSans-Bold-75"/>
     <use x="553.132812" xlink:href="#DejaVuSans-Bold-6c"/>
     <use x="587.410156" xlink:href="#DejaVuSans-Bold-6b"/>
     <use x="653.914062" xlink:href="#DejaVuSans-Bold-20"/>
     <use x="688.728516" xlink:href="#DejaVuSans-Bold-4e"/>
     <use x="772.419922" xlink:href="#DejaVuSans-Bold-6f"/>
     <use x="841.121094" xlink:href="#DejaVuSans-Bold-72"/>
     <use x="890.4375" xlink:href="#DejaVuSans-Bold-6d"/>
     <use x="994.636719" xlink:href="#DejaVuSans-Bold-61"/>
     <use x="1062.117188" xlink:href="#DejaVuSans-Bold-6c"/>
     <use x="1096.394531" xlink:href="#DejaVuSans-Bold-69"/>
     <use x="1130.671875" xlink:href="#DejaVuSans-Bold-7a"/>
     <use x="1188.875" xlink:href="#DejaVuSans-Bold-65"/>
     <use x="1256.697266" xlink:href="#DejaVuSans-Bold-64"/>
     <use x="1328.279297" xlink:href="#DejaVuSans-Bold-20"/>
     <use x="1363.09375" xlink:href="#DejaVuSans-Bold-6c"/>
     <use x="1397.371094" xlink:href="#DejaVuSans-Bold-6f"/>
     <use x="1466.072266" xlink:href="#DejaVuSans-Bold-67"/>
     <use x="1537.654297" xlink:href="#DejaVuSans-Bold-32"/>
     <use x="1607.234375" xlink:href="#DejaVuSans-Bold-20"/>
     <use x="1642.048828" xlink:href="#DejaVuSans-Bold-43"/>
     <use x="1715.4375" xlink:href="#DejaVuSans-Bold-50"/>
     <use x="1788.728516" xlink:href="#DejaVuSans-Bold-4d"/>
     <use x="1888.240234" xlink:href="#DejaVuSans-Bold-20"/>
     <use x="1923.054688" xlink:href="#DejaVuSans-Bold-50"/>
     <use x="1996.345703" xlink:href="#DejaVuSans-Bold-72"/>
     <use x="2045.662109" xlink:href="#DejaVuSans-Bold-6f"/>
     <use x="2114.363281" xlink:href="#DejaVuSans-Bold-66"/>
     <use x="2157.869141" xlink:href="#DejaVuSans-Bold-69"/>
     <use x="2192.146484" xlink:href="#DejaVuSans-Bold-6c"/>
     <use x="2226.423828" xlink:href="#DejaVuSans-Bold-65"/>
     <use x="2294.246094" xlink:href="#DejaVuSans-Bold-73"/>
    </g>
   </g>
   <g id="legend_1">
    <g id="line2d_25">
     <path d="M 770.43426 81.807281 
L 792.43426 81.807281 
" style="fill:none;stroke:#1f77b4;stroke-linecap:square;stroke-opacity:0.8;stroke-width:2.5;"/>
    </g>
    <g id="line2d_26">
     <g>
      <use style="fill:#1f77b4;fill-opacity:0.8;stroke:#000000;stroke-opacity:0.8;stroke-width:0.5;" x="781.43426" xlink:href="#m3e5b0085bb" y="81.807281"/>
     </g>
    </g>
    <g id="text_15">
     <!-- ACTB -->
     <g transform="translate(801.23426 85.657281)scale(0.11 -0.11)">
      <defs>
       <path d="M 2188 4044 
L 1331 1722 
L 3047 1722 
L 2188 4044 
z
M 1831 4666 
L 2547 4666 
L 4325 0 
L 3669 0 
L 3244 1197 
L 1141 1197 
L 716 0 
L 50 0 
L 1831 4666 
z
" id="DejaVuSans-41" transform="scale(0.015625)"/>
       <path d="M 4122 4306 
L 4122 3641 
Q 3803 3938 3442 4084 
Q 3081 4231 2675 4231 
Q 1875 4231 1450 3742 
Q 1025 3253 1025 2328 
Q 1025 1406 1450 917 
Q 1875 428 2675 428 
Q 3081 428 3442 575 
Q 3803 722 4122 1019 
L 4122 359 
Q 3791 134 3420 21 
Q 3050 -91 2638 -91 
Q 1578 -91 968 557 
Q 359 1206 359 2328 
Q 359 3453 968 4101 
Q 1578 4750 2638 4750 
Q 3056 4750 3426 4639 
Q 3797 4528 4122 4306 
z
" id="DejaVuSans-43" transform="scale(0.015625)"/>
       <path d="M -19 4666 
L 3928 4666 
L 3928 4134 
L 2272 4134 
L 2272 0 
L 1638 0 
L 1638 4134 
L -19 4134 
L -19 4666 
z
" id="DejaVuSans-54" transform="scale(0.015625)"/>
       <path d="M 1259 2228 
L 1259 519 
L 2272 519 
Q 2781 519 3026 730 
Q 3272 941 3272 1375 
Q 3272 1813 3026 2020 
Q 2781 2228 2272 2228 
L 1259 2228 
z
M 1259 4147 
L 1259 2741 
L 2194 2741 
Q 2656 2741 2882 2914 
Q 3109 3088 3109 3444 
Q 3109 3797 2882 3972 
Q 2656 4147 2194 4147 
L 1259 4147 
z
M 628 4666 
L 2241 4666 
Q 2963 4666 3353 4366 
Q 3744 4066 3744 3513 
Q 3744 3084 3544 2831 
Q 3344 2578 2956 2516 
Q 3422 2416 3680 2098 
Q 3938 1781 3938 1306 
Q 3938 681 3513 340 
Q 3088 0 2303 0 
L 628 0 
L 628 4666 
z
" id="DejaVuSans-42" transform="scale(0.015625)"/>
      </defs>
      <use xlink:href="#DejaVuSans-41"/>
      <use x="66.658203" xlink:href="#DejaVuSans-43"/>
      <use x="136.482422" xlink:href="#DejaVuSans-54"/>
      <use x="197.566406" xlink:href="#DejaVuSans-42"/>
     </g>
    </g>
    <g id="line2d_27">
     <path d="M 770.43426 97.953219 
L 792.43426 97.953219 
" style="fill:none;stroke:#9467bd;stroke-linecap:square;stroke-opacity:0.8;stroke-width:2.5;"/>
    </g>
    <g id="line2d_28">
     <g>
      <use style="fill:#9467bd;fill-opacity:0.8;stroke:#000000;stroke-linejoin:bevel;stroke-opacity:0.8;stroke-width:0.5;" x="781.43426" xlink:href="#mdde99c2a78" y="97.953219"/>
     </g>
    </g>
    <g id="text_16">
     <!-- NFKBIA -->
     <g transform="translate(801.23426 101.803219)scale(0.11 -0.11)">
      <defs>
       <path d="M 628 4666 
L 1478 4666 
L 3547 763 
L 3547 4666 
L 4159 4666 
L 4159 0 
L 3309 0 
L 1241 3903 
L 1241 0 
L 628 0 
L 628 4666 
z
" id="DejaVuSans-4e" transform="scale(0.015625)"/>
       <path d="M 628 4666 
L 3309 4666 
L 3309 4134 
L 1259 4134 
L 1259 2759 
L 3109 2759 
L 3109 2228 
L 1259 2228 
L 1259 0 
L 628 0 
L 628 4666 
z
" id="DejaVuSans-46" transform="scale(0.015625)"/>
       <path d="M 628 4666 
L 1259 4666 
L 1259 2694 
L 3353 4666 
L 4166 4666 
L 1850 2491 
L 4331 0 
L 3500 0 
L 1259 2247 
L 1259 0 
L 628 0 
L 628 4666 
z
" id="DejaVuSans-4b" transform="scale(0.015625)"/>
       <path d="M 628 4666 
L 1259 4666 
L 1259 0 
L 628 0 
L 628 4666 
z
" id="DejaVuSans-49" transform="scale(0.015625)"/>
      </defs>
      <use xlink:href="#DejaVuSans-4e"/>
      <use x="74.804688" xlink:href="#DejaVuSans-46"/>
      <use x="132.324219" xlink:href="#DejaVuSans-4b"/>
      <use x="197.900391" xlink:href="#DejaVuSans-42"/>
      <use x="266.503906" xlink:href="#DejaVuSans-49"/>
      <use x="295.996094" xlink:href="#DejaVuSans-41"/>
     </g>
    </g>
   </g>
  </g>
 </g>
 <defs>
  <clipPath id="p0eb36c8dc1">
   <rect height="451.988" width="695.188" x="51.4425" y="67.399"/>
  </clipPath>
 </defs>
</svg>
