<?xml version="1.0" encoding="utf-8" standalone="no"?>
<!DOCTYPE svg PUBLIC "-//W3C//DTD SVG 1.1//EN"
  "http://www.w3.org/Graphics/SVG/1.1/DTD/svg11.dtd">
<svg height="279.797031pt" version="1.1" viewBox="0 0 262.513895 279.797031" width="262.513895pt" xmlns="http://www.w3.org/2000/svg" xmlns:xlink="http://www.w3.org/1999/xlink">
 <metadata>
  <rdf:RDF xmlns:cc="http://creativecommons.org/ns#" xmlns:dc="http://purl.org/dc/elements/1.1/" xmlns:rdf="http://www.w3.org/1999/02/22-rdf-syntax-ns#">
   <cc:Work>
    <dc:type rdf:resource="http://purl.org/dc/dcmitype/StillImage"/>
    <dc:date>2025-10-09T19:42:37.552692</dc:date>
    <dc:format>image/svg+xml</dc:format>
    <dc:creator>
     <cc:Agent>
      <dc:title>Matplotlib v3.4.3, https://matplotlib.org/</dc:title>
     </cc:Agent>
    </dc:creator>
   </cc:Work>
  </rdf:RDF>
 </metadata>
 <defs>
  <style type="text/css">*{stroke-linecap:butt;stroke-linejoin:round;}</style>
 </defs>
 <g id="figure_1">
  <g id="patch_1">
   <path d="M 0 279.797031 
L 262.513895 279.797031 
L 262.513895 0 
L 0 0 
z
" style="fill:none;"/>
  </g>
  <g id="axes_1">
   <g id="patch_2">
    <path d="M 76.936364 266.718125 
L 181.888636 266.718125 
L 181.888636 22.318125 
L 76.936364 22.318125 
z
" style="fill:#ffffff;"/>
   </g>
   <g id="PolyCollection_1">
    <defs>
     <path d="M 146.954276 -126.41266 
L 111.870724 -126.41266 
L 111.176123 -127.476973 
L 110.488553 -128.541286 
L 109.809424 -129.605599 
L 109.139932 -130.669912 
L 108.481033 -131.734225 
L 107.833425 -132.798538 
L 107.197532 -133.862851 
L 106.57349 -134.927164 
L 105.961142 -135.991477 
L 105.360032 -137.05579 
L 104.769414 -138.120103 
L 104.188259 -139.184416 
L 103.615271 -140.248729 
L 103.04891 -141.313042 
L 102.487417 -142.377354 
L 101.928857 -143.441667 
L 101.371149 -144.50598 
L 100.812121 -145.570293 
L 100.249554 -146.634606 
L 99.68124 -147.698919 
L 99.105039 -148.763232 
L 98.518938 -149.827545 
L 97.921113 -150.891858 
L 97.309988 -151.956171 
L 96.684293 -153.020484 
L 96.043118 -154.084797 
L 95.385969 -155.14911 
L 94.712806 -156.213423 
L 94.024087 -157.277736 
L 93.320791 -158.342049 
L 92.604443 -159.406362 
L 91.877122 -160.470675 
L 91.141459 -161.534988 
L 90.400626 -162.599301 
L 89.658311 -163.663613 
L 88.918682 -164.727926 
L 88.186344 -165.792239 
L 87.46628 -166.856552 
L 86.763787 -167.920865 
L 86.084401 -168.985178 
L 85.433819 -170.049491 
L 84.817813 -171.113804 
L 84.242143 -172.178117 
L 83.712467 -173.24243 
L 83.234249 -174.306743 
L 82.812679 -175.371056 
L 82.452586 -176.435369 
L 82.158363 -177.499682 
L 81.933898 -178.563995 
L 81.782515 -179.628308 
L 81.706921 -180.692621 
L 81.709173 -181.756934 
L 81.790642 -182.821247 
L 81.952002 -183.88556 
L 82.193223 -184.949872 
L 82.51358 -186.014185 
L 82.911667 -187.078498 
L 83.385426 -188.142811 
L 83.932186 -189.207124 
L 84.548703 -190.271437 
L 85.231216 -191.33575 
L 85.975504 -192.400063 
L 86.776943 -193.464376 
L 87.630579 -194.528689 
L 88.531187 -195.593002 
L 89.473344 -196.657315 
L 90.451493 -197.721628 
L 91.46001 -198.785941 
L 92.493267 -199.850254 
L 93.545692 -200.914567 
L 94.611827 -201.97888 
L 95.68638 -203.043193 
L 96.764274 -204.107506 
L 97.840688 -205.171819 
L 98.911097 -206.236131 
L 99.971306 -207.300444 
L 101.017477 -208.364757 
L 102.046148 -209.42907 
L 103.054258 -210.493383 
L 104.039147 -211.557696 
L 104.998575 -212.622009 
L 105.930712 -213.686322 
L 106.834139 -214.750635 
L 107.707841 -215.814948 
L 108.551186 -216.879261 
L 109.363914 -217.943574 
L 110.146106 -219.007887 
L 110.898164 -220.0722 
L 111.62078 -221.136513 
L 112.314895 -222.200826 
L 112.981673 -223.265139 
L 113.622457 -224.329452 
L 114.238731 -225.393765 
L 114.832083 -226.458078 
L 115.404162 -227.522391 
L 115.956642 -228.586703 
L 116.491187 -229.651016 
L 117.009411 -230.715329 
L 117.512852 -231.779642 
L 141.312148 -231.779642 
L 141.312148 -231.779642 
L 141.815589 -230.715329 
L 142.333813 -229.651016 
L 142.868358 -228.586703 
L 143.420838 -227.522391 
L 143.992917 -226.458078 
L 144.586269 -225.393765 
L 145.202543 -224.329452 
L 145.843327 -223.265139 
L 146.510105 -222.200826 
L 147.20422 -221.136513 
L 147.926836 -220.0722 
L 148.678894 -219.007887 
L 149.461086 -217.943574 
L 150.273814 -216.879261 
L 151.117159 -215.814948 
L 151.990861 -214.750635 
L 152.894288 -213.686322 
L 153.826425 -212.622009 
L 154.785853 -211.557696 
L 155.770742 -210.493383 
L 156.778852 -209.42907 
L 157.807523 -208.364757 
L 158.853694 -207.300444 
L 159.913903 -206.236131 
L 160.984312 -205.171819 
L 162.060726 -204.107506 
L 163.13862 -203.043193 
L 164.213173 -201.97888 
L 165.279308 -200.914567 
L 166.331733 -199.850254 
L 167.36499 -198.785941 
L 168.373507 -197.721628 
L 169.351656 -196.657315 
L 170.293813 -195.593002 
L 171.194421 -194.528689 
L 172.048057 -193.464376 
L 172.849496 -192.400063 
L 173.593784 -191.33575 
L 174.276297 -190.271437 
L 174.892814 -189.207124 
L 175.439574 -188.142811 
L 175.913333 -187.078498 
L 176.31142 -186.014185 
L 176.631777 -184.949872 
L 176.872998 -183.88556 
L 177.034358 -182.821247 
L 177.115827 -181.756934 
L 177.118079 -180.692621 
L 177.042485 -179.628308 
L 176.891102 -178.563995 
L 176.666637 -177.499682 
L 176.372414 -176.435369 
L 176.012321 -175.371056 
L 175.590751 -174.306743 
L 175.112533 -173.24243 
L 174.582857 -172.178117 
L 174.007187 -171.113804 
L 173.391181 -170.049491 
L 172.740599 -168.985178 
L 172.061213 -167.920865 
L 171.35872 -166.856552 
L 170.638656 -165.792239 
L 169.906318 -164.727926 
L 169.166689 -163.663613 
L 168.424374 -162.599301 
L 167.683541 -161.534988 
L 166.947878 -160.470675 
L 166.220557 -159.406362 
L 165.504209 -158.342049 
L 164.800913 -157.277736 
L 164.112194 -156.213423 
L 163.439031 -155.14911 
L 162.781882 -154.084797 
L 162.140707 -153.020484 
L 161.515012 -151.956171 
L 160.903887 -150.891858 
L 160.306062 -149.827545 
L 159.719961 -148.763232 
L 159.14376 -147.698919 
L 158.575446 -146.634606 
L 158.012879 -145.570293 
L 157.453851 -144.50598 
L 156.896143 -143.441667 
L 156.337583 -142.377354 
L 155.77609 -141.313042 
L 155.209729 -140.248729 
L 154.636741 -139.184416 
L 154.055586 -138.120103 
L 153.464968 -137.05579 
L 152.863858 -135.991477 
L 152.25151 -134.927164 
L 151.627468 -133.862851 
L 150.991575 -132.798538 
L 150.343967 -131.734225 
L 149.685068 -130.669912 
L 149.015576 -129.605599 
L 148.336447 -128.541286 
L 147.648877 -127.476973 
L 146.954276 -126.41266 
z
" id="m3193b52532" style="stroke:#6f6f6f;stroke-width:1.5;"/>
    </defs>
    <g clip-path="url(#p59c9faf2f9)">
     <use style="fill:#94c9de;stroke:#6f6f6f;stroke-width:1.5;" x="0" xlink:href="#m3193b52532" y="279.797031"/>
    </g>
   </g>
   <g id="matplotlib.axis_1">
    <g id="xtick_1">
     <g id="line2d_1">
      <defs>
       <path d="M 0 0 
L 0 3.5 
" id="mfde68c5c89" style="stroke:#000000;stroke-width:0.8;"/>
      </defs>
      <g>
       <use style="stroke:#000000;stroke-width:0.8;" x="129.4125" xlink:href="#mfde68c5c89" y="266.718125"/>
      </g>
     </g>
    </g>
   </g>
   <g id="matplotlib.axis_2">
    <g id="ytick_1">
     <g id="line2d_2">
      <defs>
       <path d="M 0 0 
L -3.5 0 
" id="m03dd54e0f7" style="stroke:#000000;stroke-width:0.8;"/>
      </defs>
      <g>
       <use style="stroke:#000000;stroke-width:0.8;" x="76.936364" xlink:href="#m03dd54e0f7" y="266.718125"/>
      </g>
     </g>
     <g id="text_1">
      <!-- 0 -->
      <g transform="translate(63.573864 270.517344)scale(0.1 -0.1)">
       <defs>
        <path d="M 2034 4250 
Q 1547 4250 1301 3770 
Q 1056 3291 1056 2328 
Q 1056 1369 1301 889 
Q 1547 409 2034 409 
Q 2525 409 2770 889 
Q 3016 1369 3016 2328 
Q 3016 3291 2770 3770 
Q 2525 4250 2034 4250 
z
M 2034 4750 
Q 2819 4750 3233 4129 
Q 3647 3509 3647 2328 
Q 3647 1150 3233 529 
Q 2819 -91 2034 -91 
Q 1250 -91 836 529 
Q 422 1150 422 2328 
Q 422 3509 836 4129 
Q 1250 4750 2034 4750 
z
" id="DejaVuSans-30" transform="scale(0.015625)"/>
       </defs>
       <use xlink:href="#DejaVuSans-30"/>
      </g>
     </g>
    </g>
    <g id="ytick_2">
     <g id="line2d_3">
      <g>
       <use style="stroke:#000000;stroke-width:0.8;" x="76.936364" xlink:href="#m03dd54e0f7" y="215.319597"/>
      </g>
     </g>
     <g id="text_2">
      <!-- 200 -->
      <g transform="translate(50.848864 219.118816)scale(0.1 -0.1)">
       <defs>
        <path d="M 1228 531 
L 3431 531 
L 3431 0 
L 469 0 
L 469 531 
Q 828 903 1448 1529 
Q 2069 2156 2228 2338 
Q 2531 2678 2651 2914 
Q 2772 3150 2772 3378 
Q 2772 3750 2511 3984 
Q 2250 4219 1831 4219 
Q 1534 4219 1204 4116 
Q 875 4013 500 3803 
L 500 4441 
Q 881 4594 1212 4672 
Q 1544 4750 1819 4750 
Q 2544 4750 2975 4387 
Q 3406 4025 3406 3419 
Q 3406 3131 3298 2873 
Q 3191 2616 2906 2266 
Q 2828 2175 2409 1742 
Q 1991 1309 1228 531 
z
" id="DejaVuSans-32" transform="scale(0.015625)"/>
       </defs>
       <use xlink:href="#DejaVuSans-32"/>
       <use x="63.623047" xlink:href="#DejaVuSans-30"/>
       <use x="127.246094" xlink:href="#DejaVuSans-30"/>
      </g>
     </g>
    </g>
    <g id="ytick_3">
     <g id="line2d_4">
      <g>
       <use style="stroke:#000000;stroke-width:0.8;" x="76.936364" xlink:href="#m03dd54e0f7" y="163.921069"/>
      </g>
     </g>
     <g id="text_3">
      <!-- 400 -->
      <g transform="translate(50.848864 167.720288)scale(0.1 -0.1)">
       <defs>
        <path d="M 2419 4116 
L 825 1625 
L 2419 1625 
L 2419 4116 
z
M 2253 4666 
L 3047 4666 
L 3047 1625 
L 3713 1625 
L 3713 1100 
L 3047 1100 
L 3047 0 
L 2419 0 
L 2419 1100 
L 313 1100 
L 313 1709 
L 2253 4666 
z
" id="DejaVuSans-34" transform="scale(0.015625)"/>
       </defs>
       <use xlink:href="#DejaVuSans-34"/>
       <use x="63.623047" xlink:href="#DejaVuSans-30"/>
       <use x="127.246094" xlink:href="#DejaVuSans-30"/>
      </g>
     </g>
    </g>
    <g id="ytick_4">
     <g id="line2d_5">
      <g>
       <use style="stroke:#000000;stroke-width:0.8;" x="76.936364" xlink:href="#m03dd54e0f7" y="112.522541"/>
      </g>
     </g>
     <g id="text_4">
      <!-- 600 -->
      <g transform="translate(50.848864 116.32176)scale(0.1 -0.1)">
       <defs>
        <path d="M 2113 2584 
Q 1688 2584 1439 2293 
Q 1191 2003 1191 1497 
Q 1191 994 1439 701 
Q 1688 409 2113 409 
Q 2538 409 2786 701 
Q 3034 994 3034 1497 
Q 3034 2003 2786 2293 
Q 2538 2584 2113 2584 
z
M 3366 4563 
L 3366 3988 
Q 3128 4100 2886 4159 
Q 2644 4219 2406 4219 
Q 1781 4219 1451 3797 
Q 1122 3375 1075 2522 
Q 1259 2794 1537 2939 
Q 1816 3084 2150 3084 
Q 2853 3084 3261 2657 
Q 3669 2231 3669 1497 
Q 3669 778 3244 343 
Q 2819 -91 2113 -91 
Q 1303 -91 875 529 
Q 447 1150 447 2328 
Q 447 3434 972 4092 
Q 1497 4750 2381 4750 
Q 2619 4750 2861 4703 
Q 3103 4656 3366 4563 
z
" id="DejaVuSans-36" transform="scale(0.015625)"/>
       </defs>
       <use xlink:href="#DejaVuSans-36"/>
       <use x="63.623047" xlink:href="#DejaVuSans-30"/>
       <use x="127.246094" xlink:href="#DejaVuSans-30"/>
      </g>
     </g>
    </g>
    <g id="ytick_5">
     <g id="line2d_6">
      <g>
       <use style="stroke:#000000;stroke-width:0.8;" x="76.936364" xlink:href="#m03dd54e0f7" y="61.124014"/>
      </g>
     </g>
     <g id="text_5">
      <!-- 800 -->
      <g transform="translate(50.848864 64.923232)scale(0.1 -0.1)">
       <defs>
        <path d="M 2034 2216 
Q 1584 2216 1326 1975 
Q 1069 1734 1069 1313 
Q 1069 891 1326 650 
Q 1584 409 2034 409 
Q 2484 409 2743 651 
Q 3003 894 3003 1313 
Q 3003 1734 2745 1975 
Q 2488 2216 2034 2216 
z
M 1403 2484 
Q 997 2584 770 2862 
Q 544 3141 544 3541 
Q 544 4100 942 4425 
Q 1341 4750 2034 4750 
Q 2731 4750 3128 4425 
Q 3525 4100 3525 3541 
Q 3525 3141 3298 2862 
Q 3072 2584 2669 2484 
Q 3125 2378 3379 2068 
Q 3634 1759 3634 1313 
Q 3634 634 3220 271 
Q 2806 -91 2034 -91 
Q 1263 -91 848 271 
Q 434 634 434 1313 
Q 434 1759 690 2068 
Q 947 2378 1403 2484 
z
M 1172 3481 
Q 1172 3119 1398 2916 
Q 1625 2713 2034 2713 
Q 2441 2713 2670 2916 
Q 2900 3119 2900 3481 
Q 2900 3844 2670 4047 
Q 2441 4250 2034 4250 
Q 1625 4250 1398 4047 
Q 1172 3844 1172 3481 
z
" id="DejaVuSans-38" transform="scale(0.015625)"/>
       </defs>
       <use xlink:href="#DejaVuSans-38"/>
       <use x="63.623047" xlink:href="#DejaVuSans-30"/>
       <use x="127.246094" xlink:href="#DejaVuSans-30"/>
      </g>
     </g>
    </g>
    <g id="text_6">
     <!-- Cells Detected -->
     <g transform="translate(44.769176 180.981406)rotate(-90)scale(0.1 -0.1)">
      <defs>
       <path d="M 4122 4306 
L 4122 3641 
Q 3803 3938 3442 4084 
Q 3081 4231 2675 4231 
Q 1875 4231 1450 3742 
Q 1025 3253 1025 2328 
Q 1025 1406 1450 917 
Q 1875 428 2675 428 
Q 3081 428 3442 575 
Q 3803 722 4122 1019 
L 4122 359 
Q 3791 134 3420 21 
Q 3050 -91 2638 -91 
Q 1578 -91 968 557 
Q 359 1206 359 2328 
Q 359 3453 968 4101 
Q 1578 4750 2638 4750 
Q 3056 4750 3426 4639 
Q 3797 4528 4122 4306 
z
" id="DejaVuSans-43" transform="scale(0.015625)"/>
       <path d="M 3597 1894 
L 3597 1613 
L 953 1613 
Q 991 1019 1311 708 
Q 1631 397 2203 397 
Q 2534 397 2845 478 
Q 3156 559 3463 722 
L 3463 178 
Q 3153 47 2828 -22 
Q 2503 -91 2169 -91 
Q 1331 -91 842 396 
Q 353 884 353 1716 
Q 353 2575 817 3079 
Q 1281 3584 2069 3584 
Q 2775 3584 3186 3129 
Q 3597 2675 3597 1894 
z
M 3022 2063 
Q 3016 2534 2758 2815 
Q 2500 3097 2075 3097 
Q 1594 3097 1305 2825 
Q 1016 2553 972 2059 
L 3022 2063 
z
" id="DejaVuSans-65" transform="scale(0.015625)"/>
       <path d="M 603 4863 
L 1178 4863 
L 1178 0 
L 603 0 
L 603 4863 
z
" id="DejaVuSans-6c" transform="scale(0.015625)"/>
       <path d="M 2834 3397 
L 2834 2853 
Q 2591 2978 2328 3040 
Q 2066 3103 1784 3103 
Q 1356 3103 1142 2972 
Q 928 2841 928 2578 
Q 928 2378 1081 2264 
Q 1234 2150 1697 2047 
L 1894 2003 
Q 2506 1872 2764 1633 
Q 3022 1394 3022 966 
Q 3022 478 2636 193 
Q 2250 -91 1575 -91 
Q 1294 -91 989 -36 
Q 684 19 347 128 
L 347 722 
Q 666 556 975 473 
Q 1284 391 1588 391 
Q 1994 391 2212 530 
Q 2431 669 2431 922 
Q 2431 1156 2273 1281 
Q 2116 1406 1581 1522 
L 1381 1569 
Q 847 1681 609 1914 
Q 372 2147 372 2553 
Q 372 3047 722 3315 
Q 1072 3584 1716 3584 
Q 2034 3584 2315 3537 
Q 2597 3491 2834 3397 
z
" id="DejaVuSans-73" transform="scale(0.015625)"/>
       <path id="DejaVuSans-20" transform="scale(0.015625)"/>
       <path d="M 1259 4147 
L 1259 519 
L 2022 519 
Q 2988 519 3436 956 
Q 3884 1394 3884 2338 
Q 3884 3275 3436 3711 
Q 2988 4147 2022 4147 
L 1259 4147 
z
M 628 4666 
L 1925 4666 
Q 3281 4666 3915 4102 
Q 4550 3538 4550 2338 
Q 4550 1131 3912 565 
Q 3275 0 1925 0 
L 628 0 
L 628 4666 
z
" id="DejaVuSans-44" transform="scale(0.015625)"/>
       <path d="M 1172 4494 
L 1172 3500 
L 2356 3500 
L 2356 3053 
L 1172 3053 
L 1172 1153 
Q 1172 725 1289 603 
Q 1406 481 1766 481 
L 2356 481 
L 2356 0 
L 1766 0 
Q 1100 0 847 248 
Q 594 497 594 1153 
L 594 3053 
L 172 3053 
L 172 3500 
L 594 3500 
L 594 4494 
L 1172 4494 
z
" id="DejaVuSans-74" transform="scale(0.015625)"/>
       <path d="M 3122 3366 
L 3122 2828 
Q 2878 2963 2633 3030 
Q 2388 3097 2138 3097 
Q 1578 3097 1268 2742 
Q 959 2388 959 1747 
Q 959 1106 1268 751 
Q 1578 397 2138 397 
Q 2388 397 2633 464 
Q 2878 531 3122 666 
L 3122 134 
Q 2881 22 2623 -34 
Q 2366 -91 2075 -91 
Q 1284 -91 818 406 
Q 353 903 353 1747 
Q 353 2603 823 3093 
Q 1294 3584 2113 3584 
Q 2378 3584 2631 3529 
Q 2884 3475 3122 3366 
z
" id="DejaVuSans-63" transform="scale(0.015625)"/>
       <path d="M 2906 2969 
L 2906 4863 
L 3481 4863 
L 3481 0 
L 2906 0 
L 2906 525 
Q 2725 213 2448 61 
Q 2172 -91 1784 -91 
Q 1150 -91 751 415 
Q 353 922 353 1747 
Q 353 2572 751 3078 
Q 1150 3584 1784 3584 
Q 2172 3584 2448 3432 
Q 2725 3281 2906 2969 
z
M 947 1747 
Q 947 1113 1208 752 
Q 1469 391 1925 391 
Q 2381 391 2643 752 
Q 2906 1113 2906 1747 
Q 2906 2381 2643 2742 
Q 2381 3103 1925 3103 
Q 1469 3103 1208 2742 
Q 947 2381 947 1747 
z
" id="DejaVuSans-64" transform="scale(0.015625)"/>
      </defs>
      <use xlink:href="#DejaVuSans-43"/>
      <use x="69.824219" xlink:href="#DejaVuSans-65"/>
      <use x="131.347656" xlink:href="#DejaVuSans-6c"/>
      <use x="159.130859" xlink:href="#DejaVuSans-6c"/>
      <use x="186.914062" xlink:href="#DejaVuSans-73"/>
      <use x="239.013672" xlink:href="#DejaVuSans-20"/>
      <use x="270.800781" xlink:href="#DejaVuSans-44"/>
      <use x="347.802734" xlink:href="#DejaVuSans-65"/>
      <use x="409.326172" xlink:href="#DejaVuSans-74"/>
      <use x="448.535156" xlink:href="#DejaVuSans-65"/>
      <use x="510.058594" xlink:href="#DejaVuSans-63"/>
      <use x="565.039062" xlink:href="#DejaVuSans-74"/>
      <use x="604.248047" xlink:href="#DejaVuSans-65"/>
      <use x="665.771484" xlink:href="#DejaVuSans-64"/>
     </g>
    </g>
   </g>
   <g id="line2d_7">
    <path clip-path="url(#p59c9faf2f9)" d="M 76.936364 103.313638 
L 181.888636 103.313638 
" style="fill:none;stroke:#ff0000;stroke-dasharray:5.55,2.4;stroke-dashoffset:0;stroke-width:1.5;"/>
   </g>
   <g id="patch_3">
    <path d="M 76.936364 266.718125 
L 76.936364 22.318125 
" style="fill:none;stroke:#000000;stroke-linecap:square;stroke-linejoin:miter;stroke-width:0.8;"/>
   </g>
   <g id="patch_4">
    <path d="M 181.888636 266.718125 
L 181.888636 22.318125 
" style="fill:none;stroke:#000000;stroke-linecap:square;stroke-linejoin:miter;stroke-width:0.8;"/>
   </g>
   <g id="patch_5">
    <path d="M 76.936364 266.718125 
L 181.888636 266.718125 
" style="fill:none;stroke:#000000;stroke-linecap:square;stroke-linejoin:miter;stroke-width:0.8;"/>
   </g>
   <g id="patch_6">
    <path d="M 76.936364 22.318125 
L 181.888636 22.318125 
" style="fill:none;stroke:#000000;stroke-linecap:square;stroke-linejoin:miter;stroke-width:0.8;"/>
   </g>
   <g id="PathCollection_1">
    <defs>
     <path d="M 0 1.5 
C 0.397805 1.5 0.77937 1.341951 1.06066 1.06066 
C 1.341951 0.77937 1.5 0.397805 1.5 -0 
C 1.5 -0.397805 1.341951 -0.77937 1.06066 -1.06066 
C 0.77937 -1.341951 0.397805 -1.5 0 -1.5 
C -0.397805 -1.5 -0.77937 -1.341951 -1.06066 -1.06066 
C -1.341951 -0.77937 -1.5 -0.397805 -1.5 0 
C -1.5 0.397805 -1.341951 0.77937 -1.06066 1.06066 
C -0.77937 1.341951 -0.397805 1.5 0 1.5 
z
" id="C0_0_6f9690b580"/>
    </defs>
    <g clip-path="url(#p59c9faf2f9)">
     <use style="fill-opacity:0.7;" x="139.677732" xlink:href="#C0_0_6f9690b580" y="79.113498"/>
    </g>
    <g clip-path="url(#p59c9faf2f9)">
     <use style="fill-opacity:0.7;" x="126.372089" xlink:href="#C0_0_6f9690b580" y="74.744623"/>
    </g>
    <g clip-path="url(#p59c9faf2f9)">
     <use style="fill-opacity:0.7;" x="117.760357" xlink:href="#C0_0_6f9690b580" y="132.310975"/>
    </g>
    <g clip-path="url(#p59c9faf2f9)">
     <use style="fill-opacity:0.7;" x="122.765699" xlink:href="#C0_0_6f9690b580" y="105.326748"/>
    </g>
    <g clip-path="url(#p59c9faf2f9)">
     <use style="fill-opacity:0.7;" x="132.092596" xlink:href="#C0_0_6f9690b580" y="139.249776"/>
    </g>
    <g clip-path="url(#p59c9faf2f9)">
     <use style="fill-opacity:0.7;" x="126.9292" xlink:href="#C0_0_6f9690b580" y="153.384371"/>
    </g>
    <g clip-path="url(#p59c9faf2f9)">
     <use style="fill-opacity:0.7;" x="122.824358" xlink:href="#C0_0_6f9690b580" y="48.017389"/>
    </g>
    <g clip-path="url(#p59c9faf2f9)">
     <use style="fill-opacity:0.7;" x="140.514859" xlink:href="#C0_0_6f9690b580" y="91.96313"/>
    </g>
    <g clip-path="url(#p59c9faf2f9)">
     <use style="fill-opacity:0.7;" x="130.272992" xlink:href="#C0_0_6f9690b580" y="118.433372"/>
    </g>
    <g clip-path="url(#p59c9faf2f9)">
     <use style="fill-opacity:0.7;" x="124.691986" xlink:href="#C0_0_6f9690b580" y="98.130954"/>
    </g>
    <g clip-path="url(#p59c9faf2f9)">
     <use style="fill-opacity:0.7;" x="126.031555" xlink:href="#C0_0_6f9690b580" y="100.186895"/>
    </g>
    <g clip-path="url(#p59c9faf2f9)">
     <use style="fill-opacity:0.7;" x="123.019568" xlink:href="#C0_0_6f9690b580" y="98.901932"/>
    </g>
   </g>
   <g id="text_7">
    <!-- Mean = 635.8 ± 114.5 -->
    <g style="fill:#ff0000;" transform="translate(141.338895 98.173786)scale(0.1 -0.1)">
     <defs>
      <path d="M 628 4666 
L 1569 4666 
L 2759 1491 
L 3956 4666 
L 4897 4666 
L 4897 0 
L 4281 0 
L 4281 4097 
L 3078 897 
L 2444 897 
L 1241 4097 
L 1241 0 
L 628 0 
L 628 4666 
z
" id="DejaVuSans-4d" transform="scale(0.015625)"/>
      <path d="M 2194 1759 
Q 1497 1759 1228 1600 
Q 959 1441 959 1056 
Q 959 750 1161 570 
Q 1363 391 1709 391 
Q 2188 391 2477 730 
Q 2766 1069 2766 1631 
L 2766 1759 
L 2194 1759 
z
M 3341 1997 
L 3341 0 
L 2766 0 
L 2766 531 
Q 2569 213 2275 61 
Q 1981 -91 1556 -91 
Q 1019 -91 701 211 
Q 384 513 384 1019 
Q 384 1609 779 1909 
Q 1175 2209 1959 2209 
L 2766 2209 
L 2766 2266 
Q 2766 2663 2505 2880 
Q 2244 3097 1772 3097 
Q 1472 3097 1187 3025 
Q 903 2953 641 2809 
L 641 3341 
Q 956 3463 1253 3523 
Q 1550 3584 1831 3584 
Q 2591 3584 2966 3190 
Q 3341 2797 3341 1997 
z
" id="DejaVuSans-61" transform="scale(0.015625)"/>
      <path d="M 3513 2113 
L 3513 0 
L 2938 0 
L 2938 2094 
Q 2938 2591 2744 2837 
Q 2550 3084 2163 3084 
Q 1697 3084 1428 2787 
Q 1159 2491 1159 1978 
L 1159 0 
L 581 0 
L 581 3500 
L 1159 3500 
L 1159 2956 
Q 1366 3272 1645 3428 
Q 1925 3584 2291 3584 
Q 2894 3584 3203 3211 
Q 3513 2838 3513 2113 
z
" id="DejaVuSans-6e" transform="scale(0.015625)"/>
      <path d="M 678 2906 
L 4684 2906 
L 4684 2381 
L 678 2381 
L 678 2906 
z
M 678 1631 
L 4684 1631 
L 4684 1100 
L 678 1100 
L 678 1631 
z
" id="DejaVuSans-3d" transform="scale(0.015625)"/>
      <path d="M 2597 2516 
Q 3050 2419 3304 2112 
Q 3559 1806 3559 1356 
Q 3559 666 3084 287 
Q 2609 -91 1734 -91 
Q 1441 -91 1130 -33 
Q 819 25 488 141 
L 488 750 
Q 750 597 1062 519 
Q 1375 441 1716 441 
Q 2309 441 2620 675 
Q 2931 909 2931 1356 
Q 2931 1769 2642 2001 
Q 2353 2234 1838 2234 
L 1294 2234 
L 1294 2753 
L 1863 2753 
Q 2328 2753 2575 2939 
Q 2822 3125 2822 3475 
Q 2822 3834 2567 4026 
Q 2313 4219 1838 4219 
Q 1578 4219 1281 4162 
Q 984 4106 628 3988 
L 628 4550 
Q 988 4650 1302 4700 
Q 1616 4750 1894 4750 
Q 2613 4750 3031 4423 
Q 3450 4097 3450 3541 
Q 3450 3153 3228 2886 
Q 3006 2619 2597 2516 
z
" id="DejaVuSans-33" transform="scale(0.015625)"/>
      <path d="M 691 4666 
L 3169 4666 
L 3169 4134 
L 1269 4134 
L 1269 2991 
Q 1406 3038 1543 3061 
Q 1681 3084 1819 3084 
Q 2600 3084 3056 2656 
Q 3513 2228 3513 1497 
Q 3513 744 3044 326 
Q 2575 -91 1722 -91 
Q 1428 -91 1123 -41 
Q 819 9 494 109 
L 494 744 
Q 775 591 1075 516 
Q 1375 441 1709 441 
Q 2250 441 2565 725 
Q 2881 1009 2881 1497 
Q 2881 1984 2565 2268 
Q 2250 2553 1709 2553 
Q 1456 2553 1204 2497 
Q 953 2441 691 2322 
L 691 4666 
z
" id="DejaVuSans-35" transform="scale(0.015625)"/>
      <path d="M 684 794 
L 1344 794 
L 1344 0 
L 684 0 
L 684 794 
z
" id="DejaVuSans-2e" transform="scale(0.015625)"/>
      <path d="M 2944 4013 
L 2944 2803 
L 4684 2803 
L 4684 2272 
L 2944 2272 
L 2944 1063 
L 2419 1063 
L 2419 2272 
L 678 2272 
L 678 2803 
L 2419 2803 
L 2419 4013 
L 2944 4013 
z
M 678 531 
L 4684 531 
L 4684 0 
L 678 0 
L 678 531 
z
" id="DejaVuSans-b1" transform="scale(0.015625)"/>
      <path d="M 794 531 
L 1825 531 
L 1825 4091 
L 703 3866 
L 703 4441 
L 1819 4666 
L 2450 4666 
L 2450 531 
L 3481 531 
L 3481 0 
L 794 0 
L 794 531 
z
" id="DejaVuSans-31" transform="scale(0.015625)"/>
     </defs>
     <use xlink:href="#DejaVuSans-4d"/>
     <use x="86.279297" xlink:href="#DejaVuSans-65"/>
     <use x="147.802734" xlink:href="#DejaVuSans-61"/>
     <use x="209.082031" xlink:href="#DejaVuSans-6e"/>
     <use x="272.460938" xlink:href="#DejaVuSans-20"/>
     <use x="304.248047" xlink:href="#DejaVuSans-3d"/>
     <use x="388.037109" xlink:href="#DejaVuSans-20"/>
     <use x="419.824219" xlink:href="#DejaVuSans-36"/>
     <use x="483.447266" xlink:href="#DejaVuSans-33"/>
     <use x="547.070312" xlink:href="#DejaVuSans-35"/>
     <use x="610.693359" xlink:href="#DejaVuSans-2e"/>
     <use x="642.480469" xlink:href="#DejaVuSans-38"/>
     <use x="706.103516" xlink:href="#DejaVuSans-20"/>
     <use x="737.890625" xlink:href="#DejaVuSans-b1"/>
     <use x="821.679688" xlink:href="#DejaVuSans-20"/>
     <use x="853.466797" xlink:href="#DejaVuSans-31"/>
     <use x="917.089844" xlink:href="#DejaVuSans-31"/>
     <use x="980.712891" xlink:href="#DejaVuSans-34"/>
     <use x="1044.335938" xlink:href="#DejaVuSans-2e"/>
     <use x="1076.123047" xlink:href="#DejaVuSans-35"/>
    </g>
   </g>
   <g id="text_8">
    <!-- Distribution of Cells per Time-Tag (Violin) -->
    <g transform="translate(7.2 16.318125)scale(0.12 -0.12)">
     <defs>
      <path d="M 603 3500 
L 1178 3500 
L 1178 0 
L 603 0 
L 603 3500 
z
M 603 4863 
L 1178 4863 
L 1178 4134 
L 603 4134 
L 603 4863 
z
" id="DejaVuSans-69" transform="scale(0.015625)"/>
      <path d="M 2631 2963 
Q 2534 3019 2420 3045 
Q 2306 3072 2169 3072 
Q 1681 3072 1420 2755 
Q 1159 2438 1159 1844 
L 1159 0 
L 581 0 
L 581 3500 
L 1159 3500 
L 1159 2956 
Q 1341 3275 1631 3429 
Q 1922 3584 2338 3584 
Q 2397 3584 2469 3576 
Q 2541 3569 2628 3553 
L 2631 2963 
z
" id="DejaVuSans-72" transform="scale(0.015625)"/>
      <path d="M 3116 1747 
Q 3116 2381 2855 2742 
Q 2594 3103 2138 3103 
Q 1681 3103 1420 2742 
Q 1159 2381 1159 1747 
Q 1159 1113 1420 752 
Q 1681 391 2138 391 
Q 2594 391 2855 752 
Q 3116 1113 3116 1747 
z
M 1159 2969 
Q 1341 3281 1617 3432 
Q 1894 3584 2278 3584 
Q 2916 3584 3314 3078 
Q 3713 2572 3713 1747 
Q 3713 922 3314 415 
Q 2916 -91 2278 -91 
Q 1894 -91 1617 61 
Q 1341 213 1159 525 
L 1159 0 
L 581 0 
L 581 4863 
L 1159 4863 
L 1159 2969 
z
" id="DejaVuSans-62" transform="scale(0.015625)"/>
      <path d="M 544 1381 
L 544 3500 
L 1119 3500 
L 1119 1403 
Q 1119 906 1312 657 
Q 1506 409 1894 409 
Q 2359 409 2629 706 
Q 2900 1003 2900 1516 
L 2900 3500 
L 3475 3500 
L 3475 0 
L 2900 0 
L 2900 538 
Q 2691 219 2414 64 
Q 2138 -91 1772 -91 
Q 1169 -91 856 284 
Q 544 659 544 1381 
z
M 1991 3584 
L 1991 3584 
z
" id="DejaVuSans-75" transform="scale(0.015625)"/>
      <path d="M 1959 3097 
Q 1497 3097 1228 2736 
Q 959 2375 959 1747 
Q 959 1119 1226 758 
Q 1494 397 1959 397 
Q 2419 397 2687 759 
Q 2956 1122 2956 1747 
Q 2956 2369 2687 2733 
Q 2419 3097 1959 3097 
z
M 1959 3584 
Q 2709 3584 3137 3096 
Q 3566 2609 3566 1747 
Q 3566 888 3137 398 
Q 2709 -91 1959 -91 
Q 1206 -91 779 398 
Q 353 888 353 1747 
Q 353 2609 779 3096 
Q 1206 3584 1959 3584 
z
" id="DejaVuSans-6f" transform="scale(0.015625)"/>
      <path d="M 2375 4863 
L 2375 4384 
L 1825 4384 
Q 1516 4384 1395 4259 
Q 1275 4134 1275 3809 
L 1275 3500 
L 2222 3500 
L 2222 3053 
L 1275 3053 
L 1275 0 
L 697 0 
L 697 3053 
L 147 3053 
L 147 3500 
L 697 3500 
L 697 3744 
Q 697 4328 969 4595 
Q 1241 4863 1831 4863 
L 2375 4863 
z
" id="DejaVuSans-66" transform="scale(0.015625)"/>
      <path d="M 1159 525 
L 1159 -1331 
L 581 -1331 
L 581 3500 
L 1159 3500 
L 1159 2969 
Q 1341 3281 1617 3432 
Q 1894 3584 2278 3584 
Q 2916 3584 3314 3078 
Q 3713 2572 3713 1747 
Q 3713 922 3314 415 
Q 2916 -91 2278 -91 
Q 1894 -91 1617 61 
Q 1341 213 1159 525 
z
M 3116 1747 
Q 3116 2381 2855 2742 
Q 2594 3103 2138 3103 
Q 1681 3103 1420 2742 
Q 1159 2381 1159 1747 
Q 1159 1113 1420 752 
Q 1681 391 2138 391 
Q 2594 391 2855 752 
Q 3116 1113 3116 1747 
z
" id="DejaVuSans-70" transform="scale(0.015625)"/>
      <path d="M -19 4666 
L 3928 4666 
L 3928 4134 
L 2272 4134 
L 2272 0 
L 1638 0 
L 1638 4134 
L -19 4134 
L -19 4666 
z
" id="DejaVuSans-54" transform="scale(0.015625)"/>
      <path d="M 3328 2828 
Q 3544 3216 3844 3400 
Q 4144 3584 4550 3584 
Q 5097 3584 5394 3201 
Q 5691 2819 5691 2113 
L 5691 0 
L 5113 0 
L 5113 2094 
Q 5113 2597 4934 2840 
Q 4756 3084 4391 3084 
Q 3944 3084 3684 2787 
Q 3425 2491 3425 1978 
L 3425 0 
L 2847 0 
L 2847 2094 
Q 2847 2600 2669 2842 
Q 2491 3084 2119 3084 
Q 1678 3084 1418 2786 
Q 1159 2488 1159 1978 
L 1159 0 
L 581 0 
L 581 3500 
L 1159 3500 
L 1159 2956 
Q 1356 3278 1631 3431 
Q 1906 3584 2284 3584 
Q 2666 3584 2933 3390 
Q 3200 3197 3328 2828 
z
" id="DejaVuSans-6d" transform="scale(0.015625)"/>
      <path d="M 313 2009 
L 1997 2009 
L 1997 1497 
L 313 1497 
L 313 2009 
z
" id="DejaVuSans-2d" transform="scale(0.015625)"/>
      <path d="M 2906 1791 
Q 2906 2416 2648 2759 
Q 2391 3103 1925 3103 
Q 1463 3103 1205 2759 
Q 947 2416 947 1791 
Q 947 1169 1205 825 
Q 1463 481 1925 481 
Q 2391 481 2648 825 
Q 2906 1169 2906 1791 
z
M 3481 434 
Q 3481 -459 3084 -895 
Q 2688 -1331 1869 -1331 
Q 1566 -1331 1297 -1286 
Q 1028 -1241 775 -1147 
L 775 -588 
Q 1028 -725 1275 -790 
Q 1522 -856 1778 -856 
Q 2344 -856 2625 -561 
Q 2906 -266 2906 331 
L 2906 616 
Q 2728 306 2450 153 
Q 2172 0 1784 0 
Q 1141 0 747 490 
Q 353 981 353 1791 
Q 353 2603 747 3093 
Q 1141 3584 1784 3584 
Q 2172 3584 2450 3431 
Q 2728 3278 2906 2969 
L 2906 3500 
L 3481 3500 
L 3481 434 
z
" id="DejaVuSans-67" transform="scale(0.015625)"/>
      <path d="M 1984 4856 
Q 1566 4138 1362 3434 
Q 1159 2731 1159 2009 
Q 1159 1288 1364 580 
Q 1569 -128 1984 -844 
L 1484 -844 
Q 1016 -109 783 600 
Q 550 1309 550 2009 
Q 550 2706 781 3412 
Q 1013 4119 1484 4856 
L 1984 4856 
z
" id="DejaVuSans-28" transform="scale(0.015625)"/>
      <path d="M 1831 0 
L 50 4666 
L 709 4666 
L 2188 738 
L 3669 4666 
L 4325 4666 
L 2547 0 
L 1831 0 
z
" id="DejaVuSans-56" transform="scale(0.015625)"/>
      <path d="M 513 4856 
L 1013 4856 
Q 1481 4119 1714 3412 
Q 1947 2706 1947 2009 
Q 1947 1309 1714 600 
Q 1481 -109 1013 -844 
L 513 -844 
Q 928 -128 1133 580 
Q 1338 1288 1338 2009 
Q 1338 2731 1133 3434 
Q 928 4138 513 4856 
z
" id="DejaVuSans-29" transform="scale(0.015625)"/>
     </defs>
     <use xlink:href="#DejaVuSans-44"/>
     <use x="77.001953" xlink:href="#DejaVuSans-69"/>
     <use x="104.785156" xlink:href="#DejaVuSans-73"/>
     <use x="156.884766" xlink:href="#DejaVuSans-74"/>
     <use x="196.09375" xlink:href="#DejaVuSans-72"/>
     <use x="237.207031" xlink:href="#DejaVuSans-69"/>
     <use x="264.990234" xlink:href="#DejaVuSans-62"/>
     <use x="328.466797" xlink:href="#DejaVuSans-75"/>
     <use x="391.845703" xlink:href="#DejaVuSans-74"/>
     <use x="431.054688" xlink:href="#DejaVuSans-69"/>
     <use x="458.837891" xlink:href="#DejaVuSans-6f"/>
     <use x="520.019531" xlink:href="#DejaVuSans-6e"/>
     <use x="583.398438" xlink:href="#DejaVuSans-20"/>
     <use x="615.185547" xlink:href="#DejaVuSans-6f"/>
     <use x="676.367188" xlink:href="#DejaVuSans-66"/>
     <use x="711.572266" xlink:href="#DejaVuSans-20"/>
     <use x="743.359375" xlink:href="#DejaVuSans-43"/>
     <use x="813.183594" xlink:href="#DejaVuSans-65"/>
     <use x="874.707031" xlink:href="#DejaVuSans-6c"/>
     <use x="902.490234" xlink:href="#DejaVuSans-6c"/>
     <use x="930.273438" xlink:href="#DejaVuSans-73"/>
     <use x="982.373047" xlink:href="#DejaVuSans-20"/>
     <use x="1014.160156" xlink:href="#DejaVuSans-70"/>
     <use x="1077.636719" xlink:href="#DejaVuSans-65"/>
     <use x="1139.160156" xlink:href="#DejaVuSans-72"/>
     <use x="1180.273438" xlink:href="#DejaVuSans-20"/>
     <use x="1212.060547" xlink:href="#DejaVuSans-54"/>
     <use x="1270.019531" xlink:href="#DejaVuSans-69"/>
     <use x="1297.802734" xlink:href="#DejaVuSans-6d"/>
     <use x="1395.214844" xlink:href="#DejaVuSans-65"/>
     <use x="1456.738281" xlink:href="#DejaVuSans-2d"/>
     <use x="1483.697266" xlink:href="#DejaVuSans-54"/>
     <use x="1528.28125" xlink:href="#DejaVuSans-61"/>
     <use x="1589.560547" xlink:href="#DejaVuSans-67"/>
     <use x="1653.037109" xlink:href="#DejaVuSans-20"/>
     <use x="1684.824219" xlink:href="#DejaVuSans-28"/>
     <use x="1723.837891" xlink:href="#DejaVuSans-56"/>
     <use x="1789.996094" xlink:href="#DejaVuSans-69"/>
     <use x="1817.779297" xlink:href="#DejaVuSans-6f"/>
     <use x="1878.960938" xlink:href="#DejaVuSans-6c"/>
     <use x="1906.744141" xlink:href="#DejaVuSans-69"/>
     <use x="1934.527344" xlink:href="#DejaVuSans-6e"/>
     <use x="1997.90625" xlink:href="#DejaVuSans-29"/>
    </g>
   </g>
   <g id="PathCollection_2">
    <defs>
     <path d="M 0 3.535534 
C 0.937635 3.535534 1.836992 3.163008 2.5 2.5 
C 3.163008 1.836992 3.535534 0.937635 3.535534 0 
C 3.535534 -0.937635 3.163008 -1.836992 2.5 -2.5 
C 1.836992 -3.163008 0.937635 -3.535534 0 -3.535534 
C -0.937635 -3.535534 -1.836992 -3.163008 -2.5 -2.5 
C -3.163008 -1.836992 -3.535534 -0.937635 -3.535534 0 
C -3.535534 0.937635 -3.163008 1.836992 -2.5 2.5 
C -1.836992 3.163008 -0.937635 3.535534 0 3.535534 
z
" id="m81e5f450f3" style="stroke:#ff0000;"/>
    </defs>
    <g clip-path="url(#p59c9faf2f9)">
     <use style="fill:#ff0000;stroke:#ff0000;" x="129.4125" xlink:href="#m81e5f450f3" y="103.313638"/>
    </g>
   </g>
  </g>
 </g>
 <defs>
  <clipPath id="p59c9faf2f9">
   <rect height="244.4" width="104.952273" x="76.936364" y="22.318125"/>
  </clipPath>
 </defs>
</svg>
