<?xml version="1.0" encoding="utf-8" standalone="no"?>
<!DOCTYPE svg PUBLIC "-//W3C//DTD SVG 1.1//EN"
  "http://www.w3.org/Graphics/SVG/1.1/DTD/svg11.dtd">
<svg height="576pt" version="1.1" viewBox="0 0 576 576" width="576pt" xmlns="http://www.w3.org/2000/svg" xmlns:xlink="http://www.w3.org/1999/xlink">
 <metadata>
  <rdf:RDF xmlns:cc="http://creativecommons.org/ns#" xmlns:dc="http://purl.org/dc/elements/1.1/" xmlns:rdf="http://www.w3.org/1999/02/22-rdf-syntax-ns#">
   <cc:Work>
    <dc:type rdf:resource="http://purl.org/dc/dcmitype/StillImage"/>
    <dc:date>2025-10-08T20:15:33.901614</dc:date>
    <dc:format>image/svg+xml</dc:format>
    <dc:creator>
     <cc:Agent>
      <dc:title>Matplotlib v3.4.3, https://matplotlib.org/</dc:title>
     </cc:Agent>
    </dc:creator>
   </cc:Work>
  </rdf:RDF>
 </metadata>
 <defs>
  <style type="text/css">*{stroke-linecap:butt;stroke-linejoin:round;}</style>
 </defs>
 <g id="figure_1">
  <g id="patch_1">
   <path d="M 0 576 
L 576 576 
L 576 0 
L 0 0 
z
" style="fill:none;"/>
  </g>
  <g id="axes_1">
   <g id="patch_2">
    <path d="M 72 504 
L 518.4 504 
L 518.4 69.12 
L 72 69.12 
z
" style="fill:#ffffff;"/>
   </g>
   <g id="PathCollection_1">
    <defs>
     <path d="M 0 2.738613 
C 0.726289 2.738613 1.422928 2.450055 1.936492 1.936492 
C 2.450055 1.422928 2.738613 0.726289 2.738613 -0 
C 2.738613 -0.726289 2.450055 -1.422928 1.936492 -1.936492 
C 1.422928 -2.450055 0.726289 -2.738613 0 -2.738613 
C -0.726289 -2.738613 -1.422928 -2.450055 -1.936492 -1.936492 
C -2.450055 -1.422928 -2.738613 -0.726289 -2.738613 0 
C -2.738613 0.726289 -2.450055 1.422928 -1.936492 1.936492 
C -1.422928 2.450055 -0.726289 2.738613 0 2.738613 
z
" id="C0_0_6fdab4bcc3"/>
    </defs>
    <g clip-path="url(#pabc58bf866)">
     <use style="fill:#21918c;fill-opacity:0.7;stroke:#ffffff;stroke-opacity:0.7;stroke-width:0.438178;" x="125.6796" xlink:href="#C0_0_6fdab4bcc3" y="502.07928"/>
    </g>
    <g clip-path="url(#pabc58bf866)">
     <use style="fill:#21918c;fill-opacity:0.7;stroke:#ffffff;stroke-opacity:0.7;stroke-width:0.438178;" x="147.9252" xlink:href="#C0_0_6fdab4bcc3" y="499.6512"/>
    </g>
    <g clip-path="url(#pabc58bf866)">
     <use style="fill:#21918c;fill-opacity:0.7;stroke:#ffffff;stroke-opacity:0.7;stroke-width:0.438178;" x="138.216" xlink:href="#C0_0_6fdab4bcc3" y="501.86184"/>
    </g>
    <g clip-path="url(#pabc58bf866)">
     <use style="fill:#21918c;fill-opacity:0.7;stroke:#ffffff;stroke-opacity:0.7;stroke-width:0.438178;" x="159.234" xlink:href="#C0_0_6fdab4bcc3" y="502.51416"/>
    </g>
    <g clip-path="url(#pabc58bf866)">
     <use style="fill:#21918c;fill-opacity:0.7;stroke:#ffffff;stroke-opacity:0.7;stroke-width:0.438178;" x="126.2748" xlink:href="#C0_0_6fdab4bcc3" y="501.60816"/>
    </g>
    <g clip-path="url(#pabc58bf866)">
     <use style="fill:#21918c;fill-opacity:0.7;stroke:#ffffff;stroke-opacity:0.7;stroke-width:0.438178;" x="661.3968" xlink:href="#C0_0_6fdab4bcc3" y="488.34432"/>
    </g>
    <g clip-path="url(#pabc58bf866)">
     <use style="fill:#21918c;fill-opacity:0.7;stroke:#ffffff;stroke-opacity:0.7;stroke-width:0.438178;" x="117.7188" xlink:href="#C0_0_6fdab4bcc3" y="502.26048"/>
    </g>
    <g clip-path="url(#pabc58bf866)">
     <use style="fill:#21918c;fill-opacity:0.7;stroke:#ffffff;stroke-opacity:0.7;stroke-width:0.438178;" x="241.8552" xlink:href="#C0_0_6fdab4bcc3" y="496.86072"/>
    </g>
    <g clip-path="url(#pabc58bf866)">
     <use style="fill:#21918c;fill-opacity:0.7;stroke:#ffffff;stroke-opacity:0.7;stroke-width:0.438178;" x="121.476" xlink:href="#C0_0_6fdab4bcc3" y="499.25256"/>
    </g>
    <g clip-path="url(#pabc58bf866)">
     <use style="fill:#21918c;fill-opacity:0.7;stroke:#ffffff;stroke-opacity:0.7;stroke-width:0.438178;" x="166.7484" xlink:href="#C0_0_6fdab4bcc3" y="499.07136"/>
    </g>
    <g clip-path="url(#pabc58bf866)">
     <use style="fill:#21918c;fill-opacity:0.7;stroke:#ffffff;stroke-opacity:0.7;stroke-width:0.438178;" x="136.9884" xlink:href="#C0_0_6fdab4bcc3" y="499.1076"/>
    </g>
    <g clip-path="url(#pabc58bf866)">
     <use style="fill:#21918c;fill-opacity:0.7;stroke:#ffffff;stroke-opacity:0.7;stroke-width:0.438178;" x="112.6968" xlink:href="#C0_0_6fdab4bcc3" y="502.0068"/>
    </g>
    <g clip-path="url(#pabc58bf866)">
     <use style="fill:#21918c;fill-opacity:0.7;stroke:#ffffff;stroke-opacity:0.7;stroke-width:0.438178;" x="118.6488" xlink:href="#C0_0_6fdab4bcc3" y="502.58664"/>
    </g>
    <g clip-path="url(#pabc58bf866)">
     <use style="fill:#21918c;fill-opacity:0.7;stroke:#ffffff;stroke-opacity:0.7;stroke-width:0.438178;" x="109.9068" xlink:href="#C0_0_6fdab4bcc3" y="503.16648"/>
    </g>
    <g clip-path="url(#pabc58bf866)">
     <use style="fill:#21918c;fill-opacity:0.7;stroke:#ffffff;stroke-opacity:0.7;stroke-width:0.438178;" x="140.8944" xlink:href="#C0_0_6fdab4bcc3" y="501.42696"/>
    </g>
    <g clip-path="url(#pabc58bf866)">
     <use style="fill:#21918c;fill-opacity:0.7;stroke:#ffffff;stroke-opacity:0.7;stroke-width:0.438178;" x="161.28" xlink:href="#C0_0_6fdab4bcc3" y="500.33976"/>
    </g>
    <g clip-path="url(#pabc58bf866)">
     <use style="fill:#21918c;fill-opacity:0.7;stroke:#ffffff;stroke-opacity:0.7;stroke-width:0.438178;" x="209.2308" xlink:href="#C0_0_6fdab4bcc3" y="498.3828"/>
    </g>
    <g clip-path="url(#pabc58bf866)">
     <use style="fill:#21918c;fill-opacity:0.7;stroke:#ffffff;stroke-opacity:0.7;stroke-width:0.438178;" x="151.794" xlink:href="#C0_0_6fdab4bcc3" y="499.68744"/>
    </g>
    <g clip-path="url(#pabc58bf866)">
     <use style="fill:#21918c;fill-opacity:0.7;stroke:#ffffff;stroke-opacity:0.7;stroke-width:0.438178;" x="163.2144" xlink:href="#C0_0_6fdab4bcc3" y="501.53568"/>
    </g>
    <g clip-path="url(#pabc58bf866)">
     <use style="fill:#21918c;fill-opacity:0.7;stroke:#ffffff;stroke-opacity:0.7;stroke-width:0.438178;" x="81.8952" xlink:href="#C0_0_6fdab4bcc3" y="500.7384"/>
    </g>
    <g clip-path="url(#pabc58bf866)">
     <use style="fill:#21918c;fill-opacity:0.7;stroke:#ffffff;stroke-opacity:0.7;stroke-width:0.438178;" x="175.788" xlink:href="#C0_0_6fdab4bcc3" y="495.80976"/>
    </g>
    <g clip-path="url(#pabc58bf866)">
     <use style="fill:#21918c;fill-opacity:0.7;stroke:#ffffff;stroke-opacity:0.7;stroke-width:0.438178;" x="160.0524" xlink:href="#C0_0_6fdab4bcc3" y="499.68744"/>
    </g>
    <g clip-path="url(#pabc58bf866)">
     <use style="fill:#21918c;fill-opacity:0.7;stroke:#ffffff;stroke-opacity:0.7;stroke-width:0.438178;" x="99.3048" xlink:href="#C0_0_6fdab4bcc3" y="500.44848"/>
    </g>
    <g clip-path="url(#pabc58bf866)">
     <use style="fill:#21918c;fill-opacity:0.7;stroke:#ffffff;stroke-opacity:0.7;stroke-width:0.438178;" x="231.3276" xlink:href="#C0_0_6fdab4bcc3" y="498.2016"/>
    </g>
    <g clip-path="url(#pabc58bf866)">
     <use style="fill:#21918c;fill-opacity:0.7;stroke:#ffffff;stroke-opacity:0.7;stroke-width:0.438178;" x="133.5288" xlink:href="#C0_0_6fdab4bcc3" y="501.97056"/>
    </g>
    <g clip-path="url(#pabc58bf866)">
     <use style="fill:#21918c;fill-opacity:0.7;stroke:#ffffff;stroke-opacity:0.7;stroke-width:0.438178;" x="92.0508" xlink:href="#C0_0_6fdab4bcc3" y="502.9128"/>
    </g>
    <g clip-path="url(#pabc58bf866)">
     <use style="fill:#21918c;fill-opacity:0.7;stroke:#ffffff;stroke-opacity:0.7;stroke-width:0.438178;" x="229.9512" xlink:href="#C0_0_6fdab4bcc3" y="499.18008"/>
    </g>
    <g clip-path="url(#pabc58bf866)">
     <use style="fill:#21918c;fill-opacity:0.7;stroke:#ffffff;stroke-opacity:0.7;stroke-width:0.438178;" x="83.8296" xlink:href="#C0_0_6fdab4bcc3" y="494.72256"/>
    </g>
    <g clip-path="url(#pabc58bf866)">
     <use style="fill:#21918c;fill-opacity:0.7;stroke:#ffffff;stroke-opacity:0.7;stroke-width:0.438178;" x="147.9252" xlink:href="#C0_0_6fdab4bcc3" y="501.42696"/>
    </g>
    <g clip-path="url(#pabc58bf866)">
     <use style="fill:#21918c;fill-opacity:0.7;stroke:#ffffff;stroke-opacity:0.7;stroke-width:0.438178;" x="180.2148" xlink:href="#C0_0_6fdab4bcc3" y="500.84712"/>
    </g>
    <g clip-path="url(#pabc58bf866)">
     <use style="fill:#21918c;fill-opacity:0.7;stroke:#ffffff;stroke-opacity:0.7;stroke-width:0.438178;" x="115.4496" xlink:href="#C0_0_6fdab4bcc3" y="500.9196"/>
    </g>
    <g clip-path="url(#pabc58bf866)">
     <use style="fill:#21918c;fill-opacity:0.7;stroke:#ffffff;stroke-opacity:0.7;stroke-width:0.438178;" x="79.44" xlink:href="#C0_0_6fdab4bcc3" y="499.68744"/>
    </g>
    <g clip-path="url(#pabc58bf866)">
     <use style="fill:#21918c;fill-opacity:0.7;stroke:#ffffff;stroke-opacity:0.7;stroke-width:0.438178;" x="164.4048" xlink:href="#C0_0_6fdab4bcc3" y="500.48472"/>
    </g>
    <g clip-path="url(#pabc58bf866)">
     <use style="fill:#21918c;fill-opacity:0.7;stroke:#ffffff;stroke-opacity:0.7;stroke-width:0.438178;" x="186.1668" xlink:href="#C0_0_6fdab4bcc3" y="498.12912"/>
    </g>
    <g clip-path="url(#pabc58bf866)">
     <use style="fill:#21918c;fill-opacity:0.7;stroke:#ffffff;stroke-opacity:0.7;stroke-width:0.438178;" x="122.4432" xlink:href="#C0_0_6fdab4bcc3" y="499.79616"/>
    </g>
    <g clip-path="url(#pabc58bf866)">
     <use style="fill:#21918c;fill-opacity:0.7;stroke:#ffffff;stroke-opacity:0.7;stroke-width:0.438178;" x="86.9172" xlink:href="#C0_0_6fdab4bcc3" y="503.31144"/>
    </g>
    <g clip-path="url(#pabc58bf866)">
     <use style="fill:#21918c;fill-opacity:0.7;stroke:#ffffff;stroke-opacity:0.7;stroke-width:0.438178;" x="118.9092" xlink:href="#C0_0_6fdab4bcc3" y="501.06456"/>
    </g>
    <g clip-path="url(#pabc58bf866)">
     <use style="fill:#21918c;fill-opacity:0.7;stroke:#ffffff;stroke-opacity:0.7;stroke-width:0.438178;" x="144.2424" xlink:href="#C0_0_6fdab4bcc3" y="500.88336"/>
    </g>
    <g clip-path="url(#pabc58bf866)">
     <use style="fill:#21918c;fill-opacity:0.7;stroke:#ffffff;stroke-opacity:0.7;stroke-width:0.438178;" x="164.256" xlink:href="#C0_0_6fdab4bcc3" y="500.77464"/>
    </g>
    <g clip-path="url(#pabc58bf866)">
     <use style="fill:#21918c;fill-opacity:0.7;stroke:#ffffff;stroke-opacity:0.7;stroke-width:0.438178;" x="104.5128" xlink:href="#C0_0_6fdab4bcc3" y="502.44168"/>
    </g>
    <g clip-path="url(#pabc58bf866)">
     <use style="fill:#21918c;fill-opacity:0.7;stroke:#ffffff;stroke-opacity:0.7;stroke-width:0.438178;" x="109.572" xlink:href="#C0_0_6fdab4bcc3" y="502.15176"/>
    </g>
    <g clip-path="url(#pabc58bf866)">
     <use style="fill:#21918c;fill-opacity:0.7;stroke:#ffffff;stroke-opacity:0.7;stroke-width:0.438178;" x="147.5532" xlink:href="#C0_0_6fdab4bcc3" y="501.282"/>
    </g>
    <g clip-path="url(#pabc58bf866)">
     <use style="fill:#21918c;fill-opacity:0.7;stroke:#ffffff;stroke-opacity:0.7;stroke-width:0.438178;" x="187.32" xlink:href="#C0_0_6fdab4bcc3" y="498.16536"/>
    </g>
    <g clip-path="url(#pabc58bf866)">
     <use style="fill:#21918c;fill-opacity:0.7;stroke:#ffffff;stroke-opacity:0.7;stroke-width:0.438178;" x="112.3248" xlink:href="#C0_0_6fdab4bcc3" y="501.71688"/>
    </g>
    <g clip-path="url(#pabc58bf866)">
     <use style="fill:#21918c;fill-opacity:0.7;stroke:#ffffff;stroke-opacity:0.7;stroke-width:0.438178;" x="137.9556" xlink:href="#C0_0_6fdab4bcc3" y="501.49944"/>
    </g>
    <g clip-path="url(#pabc58bf866)">
     <use style="fill:#21918c;fill-opacity:0.7;stroke:#ffffff;stroke-opacity:0.7;stroke-width:0.438178;" x="123.8568" xlink:href="#C0_0_6fdab4bcc3" y="501.20952"/>
    </g>
    <g clip-path="url(#pabc58bf866)">
     <use style="fill:#21918c;fill-opacity:0.7;stroke:#ffffff;stroke-opacity:0.7;stroke-width:0.438178;" x="99.8628" xlink:href="#C0_0_6fdab4bcc3" y="501.60816"/>
    </g>
    <g clip-path="url(#pabc58bf866)">
     <use style="fill:#21918c;fill-opacity:0.7;stroke:#ffffff;stroke-opacity:0.7;stroke-width:0.438178;" x="103.2852" xlink:href="#C0_0_6fdab4bcc3" y="503.02152"/>
    </g>
    <g clip-path="url(#pabc58bf866)">
     <use style="fill:#21918c;fill-opacity:0.7;stroke:#ffffff;stroke-opacity:0.7;stroke-width:0.438178;" x="90.8604" xlink:href="#C0_0_6fdab4bcc3" y="502.51416"/>
    </g>
    <g clip-path="url(#pabc58bf866)">
     <use style="fill:#21918c;fill-opacity:0.7;stroke:#ffffff;stroke-opacity:0.7;stroke-width:0.438178;" x="153.0216" xlink:href="#C0_0_6fdab4bcc3" y="502.26048"/>
    </g>
    <g clip-path="url(#pabc58bf866)">
     <use style="fill:#21918c;fill-opacity:0.7;stroke:#ffffff;stroke-opacity:0.7;stroke-width:0.438178;" x="146.4744" xlink:href="#C0_0_6fdab4bcc3" y="501.6444"/>
    </g>
    <g clip-path="url(#pabc58bf866)">
     <use style="fill:#21918c;fill-opacity:0.7;stroke:#ffffff;stroke-opacity:0.7;stroke-width:0.438178;" x="161.5032" xlink:href="#C0_0_6fdab4bcc3" y="500.62968"/>
    </g>
    <g clip-path="url(#pabc58bf866)">
     <use style="fill:#21918c;fill-opacity:0.7;stroke:#ffffff;stroke-opacity:0.7;stroke-width:0.438178;" x="108.456" xlink:href="#C0_0_6fdab4bcc3" y="502.58664"/>
    </g>
    <g clip-path="url(#pabc58bf866)">
     <use style="fill:#21918c;fill-opacity:0.7;stroke:#ffffff;stroke-opacity:0.7;stroke-width:0.438178;" x="125.8284" xlink:href="#C0_0_6fdab4bcc3" y="501.02832"/>
    </g>
    <g clip-path="url(#pabc58bf866)">
     <use style="fill:#21918c;fill-opacity:0.7;stroke:#ffffff;stroke-opacity:0.7;stroke-width:0.438178;" x="151.794" xlink:href="#C0_0_6fdab4bcc3" y="499.2888"/>
    </g>
    <g clip-path="url(#pabc58bf866)">
     <use style="fill:#21918c;fill-opacity:0.7;stroke:#ffffff;stroke-opacity:0.7;stroke-width:0.438178;" x="155.2164" xlink:href="#C0_0_6fdab4bcc3" y="499.07136"/>
    </g>
    <g clip-path="url(#pabc58bf866)">
     <use style="fill:#21918c;fill-opacity:0.7;stroke:#ffffff;stroke-opacity:0.7;stroke-width:0.438178;" x="114.4824" xlink:href="#C0_0_6fdab4bcc3" y="502.69536"/>
    </g>
    <g clip-path="url(#pabc58bf866)">
     <use style="fill:#21918c;fill-opacity:0.7;stroke:#ffffff;stroke-opacity:0.7;stroke-width:0.438178;" x="114.1848" xlink:href="#C0_0_6fdab4bcc3" y="500.33976"/>
    </g>
    <g clip-path="url(#pabc58bf866)">
     <use style="fill:#21918c;fill-opacity:0.7;stroke:#ffffff;stroke-opacity:0.7;stroke-width:0.438178;" x="101.8716" xlink:href="#C0_0_6fdab4bcc3" y="502.11552"/>
    </g>
    <g clip-path="url(#pabc58bf866)">
     <use style="fill:#21918c;fill-opacity:0.7;stroke:#ffffff;stroke-opacity:0.7;stroke-width:0.438178;" x="103.3224" xlink:href="#C0_0_6fdab4bcc3" y="502.80408"/>
    </g>
    <g clip-path="url(#pabc58bf866)">
     <use style="fill:#21918c;fill-opacity:0.7;stroke:#ffffff;stroke-opacity:0.7;stroke-width:0.438178;" x="84.2016" xlink:href="#C0_0_6fdab4bcc3" y="496.49832"/>
    </g>
    <g clip-path="url(#pabc58bf866)">
     <use style="fill:#21918c;fill-opacity:0.7;stroke:#ffffff;stroke-opacity:0.7;stroke-width:0.438178;" x="84.8712" xlink:href="#C0_0_6fdab4bcc3" y="490.69992"/>
    </g>
    <g clip-path="url(#pabc58bf866)">
     <use style="fill:#21918c;fill-opacity:0.7;stroke:#ffffff;stroke-opacity:0.7;stroke-width:0.438178;" x="96.9984" xlink:href="#C0_0_6fdab4bcc3" y="502.15176"/>
    </g>
    <g clip-path="url(#pabc58bf866)">
     <use style="fill:#21918c;fill-opacity:0.7;stroke:#ffffff;stroke-opacity:0.7;stroke-width:0.438178;" x="87.3636" xlink:href="#C0_0_6fdab4bcc3" y="503.13024"/>
    </g>
    <g clip-path="url(#pabc58bf866)">
     <use style="fill:#21918c;fill-opacity:0.7;stroke:#ffffff;stroke-opacity:0.7;stroke-width:0.438178;" x="94.6548" xlink:href="#C0_0_6fdab4bcc3" y="502.69536"/>
    </g>
    <g clip-path="url(#pabc58bf866)">
     <use style="fill:#21918c;fill-opacity:0.7;stroke:#ffffff;stroke-opacity:0.7;stroke-width:0.438178;" x="138.8112" xlink:href="#C0_0_6fdab4bcc3" y="502.33296"/>
    </g>
    <g clip-path="url(#pabc58bf866)">
     <use style="fill:#21918c;fill-opacity:0.7;stroke:#ffffff;stroke-opacity:0.7;stroke-width:0.438178;" x="101.0532" xlink:href="#C0_0_6fdab4bcc3" y="502.7316"/>
    </g>
    <g clip-path="url(#pabc58bf866)">
     <use style="fill:#21918c;fill-opacity:0.7;stroke:#ffffff;stroke-opacity:0.7;stroke-width:0.438178;" x="91.4556" xlink:href="#C0_0_6fdab4bcc3" y="502.98528"/>
    </g>
    <g clip-path="url(#pabc58bf866)">
     <use style="fill:#21918c;fill-opacity:0.7;stroke:#ffffff;stroke-opacity:0.7;stroke-width:0.438178;" x="100.7556" xlink:href="#C0_0_6fdab4bcc3" y="502.62288"/>
    </g>
    <g clip-path="url(#pabc58bf866)">
     <use style="fill:#21918c;fill-opacity:0.7;stroke:#ffffff;stroke-opacity:0.7;stroke-width:0.438178;" x="95.9196" xlink:href="#C0_0_6fdab4bcc3" y="502.7316"/>
    </g>
    <g clip-path="url(#pabc58bf866)">
     <use style="fill:#21918c;fill-opacity:0.7;stroke:#ffffff;stroke-opacity:0.7;stroke-width:0.438178;" x="117.9048" xlink:href="#C0_0_6fdab4bcc3" y="500.84712"/>
    </g>
    <g clip-path="url(#pabc58bf866)">
     <use style="fill:#21918c;fill-opacity:0.7;stroke:#ffffff;stroke-opacity:0.7;stroke-width:0.438178;" x="99.7512" xlink:href="#C0_0_6fdab4bcc3" y="502.65912"/>
    </g>
    <g clip-path="url(#pabc58bf866)">
     <use style="fill:#21918c;fill-opacity:0.7;stroke:#ffffff;stroke-opacity:0.7;stroke-width:0.438178;" x="103.992" xlink:href="#C0_0_6fdab4bcc3" y="503.094"/>
    </g>
    <g clip-path="url(#pabc58bf866)">
     <use style="fill:#21918c;fill-opacity:0.7;stroke:#ffffff;stroke-opacity:0.7;stroke-width:0.438178;" x="99.714" xlink:href="#C0_0_6fdab4bcc3" y="502.76784"/>
    </g>
    <g clip-path="url(#pabc58bf866)">
     <use style="fill:#21918c;fill-opacity:0.7;stroke:#ffffff;stroke-opacity:0.7;stroke-width:0.438178;" x="97.668" xlink:href="#C0_0_6fdab4bcc3" y="503.02152"/>
    </g>
    <g clip-path="url(#pabc58bf866)">
     <use style="fill:#21918c;fill-opacity:0.7;stroke:#ffffff;stroke-opacity:0.7;stroke-width:0.438178;" x="98.8956" xlink:href="#C0_0_6fdab4bcc3" y="502.22424"/>
    </g>
    <g clip-path="url(#pabc58bf866)">
     <use style="fill:#21918c;fill-opacity:0.7;stroke:#ffffff;stroke-opacity:0.7;stroke-width:0.438178;" x="86.4336" xlink:href="#C0_0_6fdab4bcc3" y="489.97512"/>
    </g>
    <g clip-path="url(#pabc58bf866)">
     <use style="fill:#21918c;fill-opacity:0.7;stroke:#ffffff;stroke-opacity:0.7;stroke-width:0.438178;" x="79.812" xlink:href="#C0_0_6fdab4bcc3" y="496.06344"/>
    </g>
    <g clip-path="url(#pabc58bf866)">
     <use style="fill:#21918c;fill-opacity:0.7;stroke:#ffffff;stroke-opacity:0.7;stroke-width:0.438178;" x="80.8908" xlink:href="#C0_0_6fdab4bcc3" y="498.89016"/>
    </g>
    <g clip-path="url(#pabc58bf866)">
     <use style="fill:#21918c;fill-opacity:0.7;stroke:#ffffff;stroke-opacity:0.7;stroke-width:0.438178;" x="78.5844" xlink:href="#C0_0_6fdab4bcc3" y="497.25936"/>
    </g>
    <g clip-path="url(#pabc58bf866)">
     <use style="fill:#21918c;fill-opacity:0.7;stroke:#ffffff;stroke-opacity:0.7;stroke-width:0.438178;" x="82.0068" xlink:href="#C0_0_6fdab4bcc3" y="496.17216"/>
    </g>
    <g clip-path="url(#pabc58bf866)">
     <use style="fill:#21918c;fill-opacity:0.7;stroke:#ffffff;stroke-opacity:0.7;stroke-width:0.438178;" x="89.1864" xlink:href="#C0_0_6fdab4bcc3" y="502.04304"/>
    </g>
    <g clip-path="url(#pabc58bf866)">
     <use style="fill:#21918c;fill-opacity:0.7;stroke:#ffffff;stroke-opacity:0.7;stroke-width:0.438178;" x="80.9652" xlink:href="#C0_0_6fdab4bcc3" y="496.3896"/>
    </g>
    <g clip-path="url(#pabc58bf866)">
     <use style="fill:#21918c;fill-opacity:0.7;stroke:#ffffff;stroke-opacity:0.7;stroke-width:0.438178;" x="79.4028" xlink:href="#C0_0_6fdab4bcc3" y="497.91168"/>
    </g>
    <g clip-path="url(#pabc58bf866)">
     <use style="fill:#21918c;fill-opacity:0.7;stroke:#ffffff;stroke-opacity:0.7;stroke-width:0.438178;" x="73.7484" xlink:href="#C0_0_6fdab4bcc3" y="472.76112"/>
    </g>
   </g>
   <g id="PathCollection_2"/>
   <g id="matplotlib.axis_1">
    <g id="xtick_1">
     <g id="line2d_1">
      <defs>
       <path d="M 0 0 
L 0 3.5 
" id="m439af5cbf0" style="stroke:#000000;stroke-width:0.8;"/>
      </defs>
      <g>
       <use style="stroke:#000000;stroke-width:0.8;" x="72" xlink:href="#m439af5cbf0" y="504"/>
      </g>
     </g>
     <g id="text_1">
      <!-- 0 -->
      <g transform="translate(68.81875 518.598438)scale(0.1 -0.1)">
       <defs>
        <path d="M 2034 4250 
Q 1547 4250 1301 3770 
Q 1056 3291 1056 2328 
Q 1056 1369 1301 889 
Q 1547 409 2034 409 
Q 2525 409 2770 889 
Q 3016 1369 3016 2328 
Q 3016 3291 2770 3770 
Q 2525 4250 2034 4250 
z
M 2034 4750 
Q 2819 4750 3233 4129 
Q 3647 3509 3647 2328 
Q 3647 1150 3233 529 
Q 2819 -91 2034 -91 
Q 1250 -91 836 529 
Q 422 1150 422 2328 
Q 422 3509 836 4129 
Q 1250 4750 2034 4750 
z
" id="DejaVuSans-30" transform="scale(0.015625)"/>
       </defs>
       <use xlink:href="#DejaVuSans-30"/>
      </g>
     </g>
    </g>
    <g id="xtick_2">
     <g id="line2d_2">
      <g>
       <use style="stroke:#000000;stroke-width:0.8;" x="146.4" xlink:href="#m439af5cbf0" y="504"/>
      </g>
     </g>
     <g id="text_2">
      <!-- 2000 -->
      <g transform="translate(133.675 518.598438)scale(0.1 -0.1)">
       <defs>
        <path d="M 1228 531 
L 3431 531 
L 3431 0 
L 469 0 
L 469 531 
Q 828 903 1448 1529 
Q 2069 2156 2228 2338 
Q 2531 2678 2651 2914 
Q 2772 3150 2772 3378 
Q 2772 3750 2511 3984 
Q 2250 4219 1831 4219 
Q 1534 4219 1204 4116 
Q 875 4013 500 3803 
L 500 4441 
Q 881 4594 1212 4672 
Q 1544 4750 1819 4750 
Q 2544 4750 2975 4387 
Q 3406 4025 3406 3419 
Q 3406 3131 3298 2873 
Q 3191 2616 2906 2266 
Q 2828 2175 2409 1742 
Q 1991 1309 1228 531 
z
" id="DejaVuSans-32" transform="scale(0.015625)"/>
       </defs>
       <use xlink:href="#DejaVuSans-32"/>
       <use x="63.623047" xlink:href="#DejaVuSans-30"/>
       <use x="127.246094" xlink:href="#DejaVuSans-30"/>
       <use x="190.869141" xlink:href="#DejaVuSans-30"/>
      </g>
     </g>
    </g>
    <g id="xtick_3">
     <g id="line2d_3">
      <g>
       <use style="stroke:#000000;stroke-width:0.8;" x="220.8" xlink:href="#m439af5cbf0" y="504"/>
      </g>
     </g>
     <g id="text_3">
      <!-- 4000 -->
      <g transform="translate(208.075 518.598438)scale(0.1 -0.1)">
       <defs>
        <path d="M 2419 4116 
L 825 1625 
L 2419 1625 
L 2419 4116 
z
M 2253 4666 
L 3047 4666 
L 3047 1625 
L 3713 1625 
L 3713 1100 
L 3047 1100 
L 3047 0 
L 2419 0 
L 2419 1100 
L 313 1100 
L 313 1709 
L 2253 4666 
z
" id="DejaVuSans-34" transform="scale(0.015625)"/>
       </defs>
       <use xlink:href="#DejaVuSans-34"/>
       <use x="63.623047" xlink:href="#DejaVuSans-30"/>
       <use x="127.246094" xlink:href="#DejaVuSans-30"/>
       <use x="190.869141" xlink:href="#DejaVuSans-30"/>
      </g>
     </g>
    </g>
    <g id="xtick_4">
     <g id="line2d_4">
      <g>
       <use style="stroke:#000000;stroke-width:0.8;" x="295.2" xlink:href="#m439af5cbf0" y="504"/>
      </g>
     </g>
     <g id="text_4">
      <!-- 6000 -->
      <g transform="translate(282.475 518.598438)scale(0.1 -0.1)">
       <defs>
        <path d="M 2113 2584 
Q 1688 2584 1439 2293 
Q 1191 2003 1191 1497 
Q 1191 994 1439 701 
Q 1688 409 2113 409 
Q 2538 409 2786 701 
Q 3034 994 3034 1497 
Q 3034 2003 2786 2293 
Q 2538 2584 2113 2584 
z
M 3366 4563 
L 3366 3988 
Q 3128 4100 2886 4159 
Q 2644 4219 2406 4219 
Q 1781 4219 1451 3797 
Q 1122 3375 1075 2522 
Q 1259 2794 1537 2939 
Q 1816 3084 2150 3084 
Q 2853 3084 3261 2657 
Q 3669 2231 3669 1497 
Q 3669 778 3244 343 
Q 2819 -91 2113 -91 
Q 1303 -91 875 529 
Q 447 1150 447 2328 
Q 447 3434 972 4092 
Q 1497 4750 2381 4750 
Q 2619 4750 2861 4703 
Q 3103 4656 3366 4563 
z
" id="DejaVuSans-36" transform="scale(0.015625)"/>
       </defs>
       <use xlink:href="#DejaVuSans-36"/>
       <use x="63.623047" xlink:href="#DejaVuSans-30"/>
       <use x="127.246094" xlink:href="#DejaVuSans-30"/>
       <use x="190.869141" xlink:href="#DejaVuSans-30"/>
      </g>
     </g>
    </g>
    <g id="xtick_5">
     <g id="line2d_5">
      <g>
       <use style="stroke:#000000;stroke-width:0.8;" x="369.6" xlink:href="#m439af5cbf0" y="504"/>
      </g>
     </g>
     <g id="text_5">
      <!-- 8000 -->
      <g transform="translate(356.875 518.598438)scale(0.1 -0.1)">
       <defs>
        <path d="M 2034 2216 
Q 1584 2216 1326 1975 
Q 1069 1734 1069 1313 
Q 1069 891 1326 650 
Q 1584 409 2034 409 
Q 2484 409 2743 651 
Q 3003 894 3003 1313 
Q 3003 1734 2745 1975 
Q 2488 2216 2034 2216 
z
M 1403 2484 
Q 997 2584 770 2862 
Q 544 3141 544 3541 
Q 544 4100 942 4425 
Q 1341 4750 2034 4750 
Q 2731 4750 3128 4425 
Q 3525 4100 3525 3541 
Q 3525 3141 3298 2862 
Q 3072 2584 2669 2484 
Q 3125 2378 3379 2068 
Q 3634 1759 3634 1313 
Q 3634 634 3220 271 
Q 2806 -91 2034 -91 
Q 1263 -91 848 271 
Q 434 634 434 1313 
Q 434 1759 690 2068 
Q 947 2378 1403 2484 
z
M 1172 3481 
Q 1172 3119 1398 2916 
Q 1625 2713 2034 2713 
Q 2441 2713 2670 2916 
Q 2900 3119 2900 3481 
Q 2900 3844 2670 4047 
Q 2441 4250 2034 4250 
Q 1625 4250 1398 4047 
Q 1172 3844 1172 3481 
z
" id="DejaVuSans-38" transform="scale(0.015625)"/>
       </defs>
       <use xlink:href="#DejaVuSans-38"/>
       <use x="63.623047" xlink:href="#DejaVuSans-30"/>
       <use x="127.246094" xlink:href="#DejaVuSans-30"/>
       <use x="190.869141" xlink:href="#DejaVuSans-30"/>
      </g>
     </g>
    </g>
    <g id="xtick_6">
     <g id="line2d_6">
      <g>
       <use style="stroke:#000000;stroke-width:0.8;" x="444" xlink:href="#m439af5cbf0" y="504"/>
      </g>
     </g>
     <g id="text_6">
      <!-- 10000 -->
      <g transform="translate(428.09375 518.598438)scale(0.1 -0.1)">
       <defs>
        <path d="M 794 531 
L 1825 531 
L 1825 4091 
L 703 3866 
L 703 4441 
L 1819 4666 
L 2450 4666 
L 2450 531 
L 3481 531 
L 3481 0 
L 794 0 
L 794 531 
z
" id="DejaVuSans-31" transform="scale(0.015625)"/>
       </defs>
       <use xlink:href="#DejaVuSans-31"/>
       <use x="63.623047" xlink:href="#DejaVuSans-30"/>
       <use x="127.246094" xlink:href="#DejaVuSans-30"/>
       <use x="190.869141" xlink:href="#DejaVuSans-30"/>
       <use x="254.492188" xlink:href="#DejaVuSans-30"/>
      </g>
     </g>
    </g>
    <g id="xtick_7">
     <g id="line2d_7">
      <g>
       <use style="stroke:#000000;stroke-width:0.8;" x="518.4" xlink:href="#m439af5cbf0" y="504"/>
      </g>
     </g>
     <g id="text_7">
      <!-- 12000 -->
      <g transform="translate(502.49375 518.598438)scale(0.1 -0.1)">
       <use xlink:href="#DejaVuSans-31"/>
       <use x="63.623047" xlink:href="#DejaVuSans-32"/>
       <use x="127.246094" xlink:href="#DejaVuSans-30"/>
       <use x="190.869141" xlink:href="#DejaVuSans-30"/>
       <use x="254.492188" xlink:href="#DejaVuSans-30"/>
      </g>
     </g>
    </g>
    <g id="text_8">
     <!-- HUMAN_COUNTS -->
     <g transform="translate(252.75 532.1)scale(0.1 -0.1)">
      <defs>
       <path d="M 628 4666 
L 1259 4666 
L 1259 2753 
L 3553 2753 
L 3553 4666 
L 4184 4666 
L 4184 0 
L 3553 0 
L 3553 2222 
L 1259 2222 
L 1259 0 
L 628 0 
L 628 4666 
z
" id="DejaVuSans-48" transform="scale(0.015625)"/>
       <path d="M 556 4666 
L 1191 4666 
L 1191 1831 
Q 1191 1081 1462 751 
Q 1734 422 2344 422 
Q 2950 422 3222 751 
Q 3494 1081 3494 1831 
L 3494 4666 
L 4128 4666 
L 4128 1753 
Q 4128 841 3676 375 
Q 3225 -91 2344 -91 
Q 1459 -91 1007 375 
Q 556 841 556 1753 
L 556 4666 
z
" id="DejaVuSans-55" transform="scale(0.015625)"/>
       <path d="M 628 4666 
L 1569 4666 
L 2759 1491 
L 3956 4666 
L 4897 4666 
L 4897 0 
L 4281 0 
L 4281 4097 
L 3078 897 
L 2444 897 
L 1241 4097 
L 1241 0 
L 628 0 
L 628 4666 
z
" id="DejaVuSans-4d" transform="scale(0.015625)"/>
       <path d="M 2188 4044 
L 1331 1722 
L 3047 1722 
L 2188 4044 
z
M 1831 4666 
L 2547 4666 
L 4325 0 
L 3669 0 
L 3244 1197 
L 1141 1197 
L 716 0 
L 50 0 
L 1831 4666 
z
" id="DejaVuSans-41" transform="scale(0.015625)"/>
       <path d="M 628 4666 
L 1478 4666 
L 3547 763 
L 3547 4666 
L 4159 4666 
L 4159 0 
L 3309 0 
L 1241 3903 
L 1241 0 
L 628 0 
L 628 4666 
z
" id="DejaVuSans-4e" transform="scale(0.015625)"/>
       <path d="M 3263 -1063 
L 3263 -1509 
L -63 -1509 
L -63 -1063 
L 3263 -1063 
z
" id="DejaVuSans-5f" transform="scale(0.015625)"/>
       <path d="M 4122 4306 
L 4122 3641 
Q 3803 3938 3442 4084 
Q 3081 4231 2675 4231 
Q 1875 4231 1450 3742 
Q 1025 3253 1025 2328 
Q 1025 1406 1450 917 
Q 1875 428 2675 428 
Q 3081 428 3442 575 
Q 3803 722 4122 1019 
L 4122 359 
Q 3791 134 3420 21 
Q 3050 -91 2638 -91 
Q 1578 -91 968 557 
Q 359 1206 359 2328 
Q 359 3453 968 4101 
Q 1578 4750 2638 4750 
Q 3056 4750 3426 4639 
Q 3797 4528 4122 4306 
z
" id="DejaVuSans-43" transform="scale(0.015625)"/>
       <path d="M 2522 4238 
Q 1834 4238 1429 3725 
Q 1025 3213 1025 2328 
Q 1025 1447 1429 934 
Q 1834 422 2522 422 
Q 3209 422 3611 934 
Q 4013 1447 4013 2328 
Q 4013 3213 3611 3725 
Q 3209 4238 2522 4238 
z
M 2522 4750 
Q 3503 4750 4090 4092 
Q 4678 3434 4678 2328 
Q 4678 1225 4090 567 
Q 3503 -91 2522 -91 
Q 1538 -91 948 565 
Q 359 1222 359 2328 
Q 359 3434 948 4092 
Q 1538 4750 2522 4750 
z
" id="DejaVuSans-4f" transform="scale(0.015625)"/>
       <path d="M -19 4666 
L 3928 4666 
L 3928 4134 
L 2272 4134 
L 2272 0 
L 1638 0 
L 1638 4134 
L -19 4134 
L -19 4666 
z
" id="DejaVuSans-54" transform="scale(0.015625)"/>
       <path d="M 3425 4513 
L 3425 3897 
Q 3066 4069 2747 4153 
Q 2428 4238 2131 4238 
Q 1616 4238 1336 4038 
Q 1056 3838 1056 3469 
Q 1056 3159 1242 3001 
Q 1428 2844 1947 2747 
L 2328 2669 
Q 3034 2534 3370 2195 
Q 3706 1856 3706 1288 
Q 3706 609 3251 259 
Q 2797 -91 1919 -91 
Q 1588 -91 1214 -16 
Q 841 59 441 206 
L 441 856 
Q 825 641 1194 531 
Q 1563 422 1919 422 
Q 2459 422 2753 634 
Q 3047 847 3047 1241 
Q 3047 1584 2836 1778 
Q 2625 1972 2144 2069 
L 1759 2144 
Q 1053 2284 737 2584 
Q 422 2884 422 3419 
Q 422 4038 858 4394 
Q 1294 4750 2059 4750 
Q 2388 4750 2728 4690 
Q 3069 4631 3425 4513 
z
" id="DejaVuSans-53" transform="scale(0.015625)"/>
      </defs>
      <use xlink:href="#DejaVuSans-48"/>
      <use x="75.195312" xlink:href="#DejaVuSans-55"/>
      <use x="148.388672" xlink:href="#DejaVuSans-4d"/>
      <use x="234.667969" xlink:href="#DejaVuSans-41"/>
      <use x="303.076172" xlink:href="#DejaVuSans-4e"/>
      <use x="377.880859" xlink:href="#DejaVuSans-5f"/>
      <use x="427.880859" xlink:href="#DejaVuSans-43"/>
      <use x="497.705078" xlink:href="#DejaVuSans-4f"/>
      <use x="576.416016" xlink:href="#DejaVuSans-55"/>
      <use x="649.609375" xlink:href="#DejaVuSans-4e"/>
      <use x="724.414062" xlink:href="#DejaVuSans-54"/>
      <use x="785.498047" xlink:href="#DejaVuSans-53"/>
     </g>
    </g>
   </g>
   <g id="matplotlib.axis_2">
    <g id="ytick_1">
     <g id="line2d_8">
      <defs>
       <path d="M 0 0 
L -3.5 0 
" id="m9ec657b8da" style="stroke:#000000;stroke-width:0.8;"/>
      </defs>
      <g>
       <use style="stroke:#000000;stroke-width:0.8;" x="72" xlink:href="#m9ec657b8da" y="504"/>
      </g>
     </g>
     <g id="text_9">
      <!-- 0 -->
      <g transform="translate(58.6375 507.799219)scale(0.1 -0.1)">
       <use xlink:href="#DejaVuSans-30"/>
      </g>
     </g>
    </g>
    <g id="ytick_2">
     <g id="line2d_9">
      <g>
       <use style="stroke:#000000;stroke-width:0.8;" x="72" xlink:href="#m9ec657b8da" y="431.52"/>
      </g>
     </g>
     <g id="text_10">
      <!-- 2000 -->
      <g transform="translate(39.55 435.319219)scale(0.1 -0.1)">
       <use xlink:href="#DejaVuSans-32"/>
       <use x="63.623047" xlink:href="#DejaVuSans-30"/>
       <use x="127.246094" xlink:href="#DejaVuSans-30"/>
       <use x="190.869141" xlink:href="#DejaVuSans-30"/>
      </g>
     </g>
    </g>
    <g id="ytick_3">
     <g id="line2d_10">
      <g>
       <use style="stroke:#000000;stroke-width:0.8;" x="72" xlink:href="#m9ec657b8da" y="359.04"/>
      </g>
     </g>
     <g id="text_11">
      <!-- 4000 -->
      <g transform="translate(39.55 362.839219)scale(0.1 -0.1)">
       <use xlink:href="#DejaVuSans-34"/>
       <use x="63.623047" xlink:href="#DejaVuSans-30"/>
       <use x="127.246094" xlink:href="#DejaVuSans-30"/>
       <use x="190.869141" xlink:href="#DejaVuSans-30"/>
      </g>
     </g>
    </g>
    <g id="ytick_4">
     <g id="line2d_11">
      <g>
       <use style="stroke:#000000;stroke-width:0.8;" x="72" xlink:href="#m9ec657b8da" y="286.56"/>
      </g>
     </g>
     <g id="text_12">
      <!-- 6000 -->
      <g transform="translate(39.55 290.359219)scale(0.1 -0.1)">
       <use xlink:href="#DejaVuSans-36"/>
       <use x="63.623047" xlink:href="#DejaVuSans-30"/>
       <use x="127.246094" xlink:href="#DejaVuSans-30"/>
       <use x="190.869141" xlink:href="#DejaVuSans-30"/>
      </g>
     </g>
    </g>
    <g id="ytick_5">
     <g id="line2d_12">
      <g>
       <use style="stroke:#000000;stroke-width:0.8;" x="72" xlink:href="#m9ec657b8da" y="214.08"/>
      </g>
     </g>
     <g id="text_13">
      <!-- 8000 -->
      <g transform="translate(39.55 217.879219)scale(0.1 -0.1)">
       <use xlink:href="#DejaVuSans-38"/>
       <use x="63.623047" xlink:href="#DejaVuSans-30"/>
       <use x="127.246094" xlink:href="#DejaVuSans-30"/>
       <use x="190.869141" xlink:href="#DejaVuSans-30"/>
      </g>
     </g>
    </g>
    <g id="ytick_6">
     <g id="line2d_13">
      <g>
       <use style="stroke:#000000;stroke-width:0.8;" x="72" xlink:href="#m9ec657b8da" y="141.6"/>
      </g>
     </g>
     <g id="text_14">
      <!-- 10000 -->
      <g transform="translate(33.1875 145.399219)scale(0.1 -0.1)">
       <use xlink:href="#DejaVuSans-31"/>
       <use x="63.623047" xlink:href="#DejaVuSans-30"/>
       <use x="127.246094" xlink:href="#DejaVuSans-30"/>
       <use x="190.869141" xlink:href="#DejaVuSans-30"/>
       <use x="254.492188" xlink:href="#DejaVuSans-30"/>
      </g>
     </g>
    </g>
    <g id="ytick_7">
     <g id="line2d_14">
      <g>
       <use style="stroke:#000000;stroke-width:0.8;" x="72" xlink:href="#m9ec657b8da" y="69.12"/>
      </g>
     </g>
     <g id="text_15">
      <!-- 12000 -->
      <g transform="translate(33.1875 72.919219)scale(0.1 -0.1)">
       <use xlink:href="#DejaVuSans-31"/>
       <use x="63.623047" xlink:href="#DejaVuSans-32"/>
       <use x="127.246094" xlink:href="#DejaVuSans-30"/>
       <use x="190.869141" xlink:href="#DejaVuSans-30"/>
       <use x="254.492188" xlink:href="#DejaVuSans-30"/>
      </g>
     </g>
    </g>
    <g id="text_16">
     <!-- MOUSE_COUNTS -->
     <g transform="translate(26.829687 328.358438)rotate(-90)scale(0.1 -0.1)">
      <defs>
       <path d="M 628 4666 
L 3578 4666 
L 3578 4134 
L 1259 4134 
L 1259 2753 
L 3481 2753 
L 3481 2222 
L 1259 2222 
L 1259 531 
L 3634 531 
L 3634 0 
L 628 0 
L 628 4666 
z
" id="DejaVuSans-45" transform="scale(0.015625)"/>
      </defs>
      <use xlink:href="#DejaVuSans-4d"/>
      <use x="86.279297" xlink:href="#DejaVuSans-4f"/>
      <use x="164.990234" xlink:href="#DejaVuSans-55"/>
      <use x="238.183594" xlink:href="#DejaVuSans-53"/>
      <use x="301.660156" xlink:href="#DejaVuSans-45"/>
      <use x="364.84375" xlink:href="#DejaVuSans-5f"/>
      <use x="414.84375" xlink:href="#DejaVuSans-43"/>
      <use x="484.667969" xlink:href="#DejaVuSans-4f"/>
      <use x="563.378906" xlink:href="#DejaVuSans-55"/>
      <use x="636.572266" xlink:href="#DejaVuSans-4e"/>
      <use x="711.376953" xlink:href="#DejaVuSans-54"/>
      <use x="772.460938" xlink:href="#DejaVuSans-53"/>
     </g>
    </g>
   </g>
   <g id="patch_3">
    <path d="M 72 504 
L 72 69.12 
" style="fill:none;stroke:#000000;stroke-linecap:square;stroke-linejoin:miter;stroke-width:0.8;"/>
   </g>
   <g id="patch_4">
    <path d="M 518.4 504 
L 518.4 69.12 
" style="fill:none;stroke:#000000;stroke-linecap:square;stroke-linejoin:miter;stroke-width:0.8;"/>
   </g>
   <g id="patch_5">
    <path d="M 72 504 
L 518.4 504 
" style="fill:none;stroke:#000000;stroke-linecap:square;stroke-linejoin:miter;stroke-width:0.8;"/>
   </g>
   <g id="patch_6">
    <path d="M 72 69.12 
L 518.4 69.12 
" style="fill:none;stroke:#000000;stroke-linecap:square;stroke-linejoin:miter;stroke-width:0.8;"/>
   </g>
   <g id="text_17">
    <!-- SC_3TP_QC_K562_EL4 -->
    <g transform="translate(228.849375 63.12)scale(0.12 -0.12)">
     <defs>
      <path d="M 2597 2516 
Q 3050 2419 3304 2112 
Q 3559 1806 3559 1356 
Q 3559 666 3084 287 
Q 2609 -91 1734 -91 
Q 1441 -91 1130 -33 
Q 819 25 488 141 
L 488 750 
Q 750 597 1062 519 
Q 1375 441 1716 441 
Q 2309 441 2620 675 
Q 2931 909 2931 1356 
Q 2931 1769 2642 2001 
Q 2353 2234 1838 2234 
L 1294 2234 
L 1294 2753 
L 1863 2753 
Q 2328 2753 2575 2939 
Q 2822 3125 2822 3475 
Q 2822 3834 2567 4026 
Q 2313 4219 1838 4219 
Q 1578 4219 1281 4162 
Q 984 4106 628 3988 
L 628 4550 
Q 988 4650 1302 4700 
Q 1616 4750 1894 4750 
Q 2613 4750 3031 4423 
Q 3450 4097 3450 3541 
Q 3450 3153 3228 2886 
Q 3006 2619 2597 2516 
z
" id="DejaVuSans-33" transform="scale(0.015625)"/>
      <path d="M 1259 4147 
L 1259 2394 
L 2053 2394 
Q 2494 2394 2734 2622 
Q 2975 2850 2975 3272 
Q 2975 3691 2734 3919 
Q 2494 4147 2053 4147 
L 1259 4147 
z
M 628 4666 
L 2053 4666 
Q 2838 4666 3239 4311 
Q 3641 3956 3641 3272 
Q 3641 2581 3239 2228 
Q 2838 1875 2053 1875 
L 1259 1875 
L 1259 0 
L 628 0 
L 628 4666 
z
" id="DejaVuSans-50" transform="scale(0.015625)"/>
      <path d="M 2522 4238 
Q 1834 4238 1429 3725 
Q 1025 3213 1025 2328 
Q 1025 1447 1429 934 
Q 1834 422 2522 422 
Q 3209 422 3611 934 
Q 4013 1447 4013 2328 
Q 4013 3213 3611 3725 
Q 3209 4238 2522 4238 
z
M 3406 84 
L 4238 -825 
L 3475 -825 
L 2784 -78 
Q 2681 -84 2626 -87 
Q 2572 -91 2522 -91 
Q 1538 -91 948 567 
Q 359 1225 359 2328 
Q 359 3434 948 4092 
Q 1538 4750 2522 4750 
Q 3503 4750 4090 4092 
Q 4678 3434 4678 2328 
Q 4678 1516 4351 937 
Q 4025 359 3406 84 
z
" id="DejaVuSans-51" transform="scale(0.015625)"/>
      <path d="M 628 4666 
L 1259 4666 
L 1259 2694 
L 3353 4666 
L 4166 4666 
L 1850 2491 
L 4331 0 
L 3500 0 
L 1259 2247 
L 1259 0 
L 628 0 
L 628 4666 
z
" id="DejaVuSans-4b" transform="scale(0.015625)"/>
      <path d="M 691 4666 
L 3169 4666 
L 3169 4134 
L 1269 4134 
L 1269 2991 
Q 1406 3038 1543 3061 
Q 1681 3084 1819 3084 
Q 2600 3084 3056 2656 
Q 3513 2228 3513 1497 
Q 3513 744 3044 326 
Q 2575 -91 1722 -91 
Q 1428 -91 1123 -41 
Q 819 9 494 109 
L 494 744 
Q 775 591 1075 516 
Q 1375 441 1709 441 
Q 2250 441 2565 725 
Q 2881 1009 2881 1497 
Q 2881 1984 2565 2268 
Q 2250 2553 1709 2553 
Q 1456 2553 1204 2497 
Q 953 2441 691 2322 
L 691 4666 
z
" id="DejaVuSans-35" transform="scale(0.015625)"/>
      <path d="M 628 4666 
L 1259 4666 
L 1259 531 
L 3531 531 
L 3531 0 
L 628 0 
L 628 4666 
z
" id="DejaVuSans-4c" transform="scale(0.015625)"/>
     </defs>
     <use xlink:href="#DejaVuSans-53"/>
     <use x="63.476562" xlink:href="#DejaVuSans-43"/>
     <use x="133.300781" xlink:href="#DejaVuSans-5f"/>
     <use x="183.300781" xlink:href="#DejaVuSans-33"/>
     <use x="246.923828" xlink:href="#DejaVuSans-54"/>
     <use x="308.007812" xlink:href="#DejaVuSans-50"/>
     <use x="368.310547" xlink:href="#DejaVuSans-5f"/>
     <use x="418.310547" xlink:href="#DejaVuSans-51"/>
     <use x="497.021484" xlink:href="#DejaVuSans-43"/>
     <use x="566.845703" xlink:href="#DejaVuSans-5f"/>
     <use x="616.845703" xlink:href="#DejaVuSans-4b"/>
     <use x="682.421875" xlink:href="#DejaVuSans-35"/>
     <use x="746.044922" xlink:href="#DejaVuSans-36"/>
     <use x="809.667969" xlink:href="#DejaVuSans-32"/>
     <use x="873.291016" xlink:href="#DejaVuSans-5f"/>
     <use x="923.291016" xlink:href="#DejaVuSans-45"/>
     <use x="986.474609" xlink:href="#DejaVuSans-4c"/>
     <use x="1042.1875" xlink:href="#DejaVuSans-34"/>
    </g>
   </g>
   <g id="legend_1">
    <g id="patch_7">
     <path d="M 411.673437 106.754375 
L 511.4 106.754375 
Q 513.4 106.754375 513.4 104.754375 
L 513.4 76.12 
Q 513.4 74.12 511.4 74.12 
L 411.673437 74.12 
Q 409.673437 74.12 409.673437 76.12 
L 409.673437 104.754375 
Q 409.673437 106.754375 411.673437 106.754375 
z
" style="fill:#ffffff;opacity:0.8;stroke:#cccccc;stroke-linejoin:miter;"/>
    </g>
    <g id="text_18">
     <!-- FINAL TIME TAG -->
     <g transform="translate(422.185156 85.718437)scale(0.1 -0.1)">
      <defs>
       <path d="M 628 4666 
L 3309 4666 
L 3309 4134 
L 1259 4134 
L 1259 2759 
L 3109 2759 
L 3109 2228 
L 1259 2228 
L 1259 0 
L 628 0 
L 628 4666 
z
" id="DejaVuSans-46" transform="scale(0.015625)"/>
       <path d="M 628 4666 
L 1259 4666 
L 1259 0 
L 628 0 
L 628 4666 
z
" id="DejaVuSans-49" transform="scale(0.015625)"/>
       <path id="DejaVuSans-20" transform="scale(0.015625)"/>
       <path d="M 3809 666 
L 3809 1919 
L 2778 1919 
L 2778 2438 
L 4434 2438 
L 4434 434 
Q 4069 175 3628 42 
Q 3188 -91 2688 -91 
Q 1594 -91 976 548 
Q 359 1188 359 2328 
Q 359 3472 976 4111 
Q 1594 4750 2688 4750 
Q 3144 4750 3555 4637 
Q 3966 4525 4313 4306 
L 4313 3634 
Q 3963 3931 3569 4081 
Q 3175 4231 2741 4231 
Q 1884 4231 1454 3753 
Q 1025 3275 1025 2328 
Q 1025 1384 1454 906 
Q 1884 428 2741 428 
Q 3075 428 3337 486 
Q 3600 544 3809 666 
z
" id="DejaVuSans-47" transform="scale(0.015625)"/>
      </defs>
      <use xlink:href="#DejaVuSans-46"/>
      <use x="57.519531" xlink:href="#DejaVuSans-49"/>
      <use x="87.011719" xlink:href="#DejaVuSans-4e"/>
      <use x="161.816406" xlink:href="#DejaVuSans-41"/>
      <use x="230.224609" xlink:href="#DejaVuSans-4c"/>
      <use x="285.9375" xlink:href="#DejaVuSans-20"/>
      <use x="317.724609" xlink:href="#DejaVuSans-54"/>
      <use x="378.808594" xlink:href="#DejaVuSans-49"/>
      <use x="408.300781" xlink:href="#DejaVuSans-4d"/>
      <use x="494.580078" xlink:href="#DejaVuSans-45"/>
      <use x="557.763672" xlink:href="#DejaVuSans-20"/>
      <use x="589.550781" xlink:href="#DejaVuSans-54"/>
      <use x="642.884766" xlink:href="#DejaVuSans-41"/>
      <use x="709.542969" xlink:href="#DejaVuSans-47"/>
     </g>
    </g>
    <g id="PathCollection_3">
     <defs>
      <path d="M 0 3 
C 0.795609 3 1.55874 2.683901 2.12132 2.12132 
C 2.683901 1.55874 3 0.795609 3 0 
C 3 -0.795609 2.683901 -1.55874 2.12132 -2.12132 
C 1.55874 -2.683901 0.795609 -3 0 -3 
C -0.795609 -3 -1.55874 -2.683901 -2.12132 -2.12132 
C -2.683901 -1.55874 -3 -0.795609 -3 0 
C -3 0.795609 -2.683901 1.55874 -2.12132 2.12132 
C -1.55874 2.683901 -0.795609 3 0 3 
z
" id="m0efd93448e" style="stroke:#21918c;"/>
     </defs>
     <g>
      <use style="fill:#21918c;stroke:#21918c;" x="423.673437" xlink:href="#m0efd93448e" y="97.771563"/>
     </g>
    </g>
    <g id="text_19">
     <!-- SEQ11_GGCC -->
     <g transform="translate(441.673437 100.396563)scale(0.1 -0.1)">
      <use xlink:href="#DejaVuSans-53"/>
      <use x="63.476562" xlink:href="#DejaVuSans-45"/>
      <use x="126.660156" xlink:href="#DejaVuSans-51"/>
      <use x="205.371094" xlink:href="#DejaVuSans-31"/>
      <use x="268.994141" xlink:href="#DejaVuSans-31"/>
      <use x="332.617188" xlink:href="#DejaVuSans-5f"/>
      <use x="382.617188" xlink:href="#DejaVuSans-47"/>
      <use x="460.107422" xlink:href="#DejaVuSans-47"/>
      <use x="537.597656" xlink:href="#DejaVuSans-43"/>
      <use x="607.421875" xlink:href="#DejaVuSans-43"/>
     </g>
    </g>
   </g>
  </g>
 </g>
 <defs>
  <clipPath id="pabc58bf866">
   <rect height="434.88" width="446.4" x="72" y="69.12"/>
  </clipPath>
 </defs>
</svg>
